<svg id="Calque_1" data-name="Calque 1" xmlns="http://www.w3.org/2000/svg" viewBox="0 0 1920 571"><defs><style>.cls-1{fill:#08aade;opacity:0.1;}.cls-2{fill:none;stroke:#fff;stroke-miterlimit:10;stroke-width:4px;}.cls-3{fill:#fff;}.cls-4{font-size:85px;fill:#00abde;font-family:Mali-Bold, Mali;font-weight:700;}</style></defs><path class="cls-1" d="M80,0H1840a80,80,0,0,1,80,80V571a0,0,0,0,1,0,0H0a0,0,0,0,1,0,0V80A80,80,0,0,1,80,0Z"/><path class="cls-2" d="M165.71,783.22s19.37-29.85-17.76-55.5c.22.16-25.26-21.38-53.8,4.27.87.66-2.83-.79-3.57,8.27l-17.86,6.29s-3.4.84-1.36,4.47a13.48,13.48,0,0,0,2.92,4.28s.2,1.54-3.09,3.15c0,0-2.53,1.5-.92,4.8,0,0-4.82,1.81-2.78,5.44l-5.31,6.94s-3.08,3.14,1.36,7.23l8.95,6.84s4.82,5.74.73,10.18l-8.29,10.85s-.25,3.94,1.48,5.26L92.5,835.93s3.77,2.19,5.33-.75c0,0,14.44-14.41,21.69-18.5l10.21-5.26s18.1-7.49,20.09-10.09c0,0,7-5.62,11-10.83A68,68,0,0,0,165.71,783.22Z" transform="translate(0.82 -314)"/><path class="cls-2" d="M50,839.23s-3.49-8.86,5.45-8.9c0,0-3.77-7.69,7.16-7.59l26.09,19.93s4.81,9.18-5,9.26c-.06,0,1.93,9-6.9,7.1,0,0-1,10.27-10.85,3.4,0,0-16.11,5.58-16.33-12.47-.17-.13-8.12-6.82.51-10.92" transform="translate(0.82 -314)"/><path class="cls-3" d="M119.07,762.36c-9.33,20.67-23.09,38.37-36,56.88l-2.35-1.49c12.36-18.48,25.77-36.08,35.62-56.09-1-.67-1.87-1.16-2.65-1.74a4.22,4.22,0,0,1-1.48-5.55,3.77,3.77,0,0,1,4.44-2.35c2.32.44,3.27,2.14,3.43,4.34a14.32,14.32,0,0,0-.06,2.16c.11.48.69.86,1.32,1.18-.14-2.84.15-5.39,3.12-6.31a4.26,4.26,0,0,1,5,1.8c1.41,2.15.9,3.58-2.46,7.07l2.06,1.57c2-3.93,3.4-5,5.78-4.35a4.34,4.34,0,0,1,3.35,4.43c.09,2.22-1.55,3.58-5.86,4.63,1.14.5,1.67.94,2.19.92a17.34,17.34,0,0,0,2.37-.57c2.13-.38,4.13.33,4.63,2.36a6.11,6.11,0,0,1-1.12,4.6c-1.38,1.74-3.52,1.74-5.41.39-.8-.57-1.5-1.29-2.67-2.33-16.55,14.66-30.23,32-44.62,49l-2.34-1.48c14.25-17.63,28-35.34,45.42-49.85C129.82,766.9,124.64,762.72,119.07,762.36Zm5.29-3.27,1.19.51,1.55-2.79-1.91-.6Zm-9.55-1.35,1.28-.15,0-3.19-2,.43Zm17,6.91,1,.85,2.34-2.16-1.62-1.17Zm3.7,8.36.42,1.22,3.11-.71-.83-1.82Z" transform="translate(0.82 -314)"/><path class="cls-2" d="M165.71,598.22s19.37-29.85-17.76-55.5c.22.16-25.26-21.38-53.8,4.27.87.66-2.83-.79-3.57,8.27l-17.86,6.29s-3.4.84-1.36,4.47a13.48,13.48,0,0,0,2.92,4.28s.2,1.54-3.09,3.15c0,0-2.53,1.5-.92,4.8,0,0-4.82,1.81-2.78,5.44l-5.31,6.94s-3.08,3.14,1.36,7.23l8.95,6.84s4.82,5.74.73,10.18l-8.29,10.85s-.25,3.94,1.48,5.26L92.5,650.93s3.77,2.19,5.33-.75c0,0,14.44-14.41,21.69-18.5l10.21-5.26s18.1-7.49,20.09-10.09c0,0,7-5.62,11-10.83A68,68,0,0,0,165.71,598.22Z" transform="translate(0.82 -314)"/><path class="cls-2" d="M50,654.23s-3.49-8.86,5.45-8.9c0,0-3.77-7.69,7.16-7.59l26.09,19.93s4.81,9.18-5,9.26c-.06,0,1.93,9-6.9,7.1,0,0-1,10.27-10.85,3.4,0,0-16.11,5.58-16.33-12.47-.17-.13-8.12-6.82.51-10.92" transform="translate(0.82 -314)"/><path class="cls-3" d="M119.07,577.36c-9.33,20.67-23.09,38.37-36,56.88l-2.35-1.49c12.36-18.48,25.77-36.08,35.62-56.09-1-.67-1.87-1.16-2.65-1.74a4.22,4.22,0,0,1-1.48-5.55,3.77,3.77,0,0,1,4.44-2.35c2.32.44,3.27,2.14,3.43,4.34a14.32,14.32,0,0,0-.06,2.16c.11.48.69.86,1.32,1.18-.14-2.84.15-5.39,3.12-6.31a4.26,4.26,0,0,1,5,1.8c1.41,2.15.9,3.58-2.46,7.07l2.06,1.57c2-3.93,3.4-5,5.78-4.35a4.34,4.34,0,0,1,3.35,4.43c.09,2.22-1.55,3.58-5.86,4.63,1.14.5,1.67.94,2.19.92a17.34,17.34,0,0,0,2.37-.57c2.13-.38,4.13.33,4.63,2.36a6.11,6.11,0,0,1-1.12,4.6c-1.38,1.74-3.52,1.74-5.41.39-.8-.57-1.5-1.29-2.67-2.33-16.55,14.66-30.23,32-44.62,49l-2.34-1.48c14.25-17.63,28-35.34,45.42-49.85C129.82,581.9,124.64,577.72,119.07,577.36Zm5.29-3.27,1.19.51,1.55-2.79-1.91-.6Zm-9.55-1.35,1.28-.15,0-3.19-2,.43Zm17,6.91,1,.85,2.34-2.16-1.62-1.17Zm3.7,8.36.42,1.22,3.11-.71-.83-1.82Z" transform="translate(0.82 -314)"/><path class="cls-2" d="M165.71,413.22s19.37-29.85-17.76-55.5c.22.16-25.26-21.38-53.8,4.27.87.66-2.83-.79-3.57,8.27l-17.86,6.29s-3.4.84-1.36,4.47a13.48,13.48,0,0,0,2.92,4.28s.2,1.54-3.09,3.15c0,0-2.53,1.5-.92,4.8,0,0-4.82,1.81-2.78,5.44l-5.31,6.94s-3.08,3.14,1.36,7.23l8.95,6.84s4.82,5.74.73,10.18l-8.29,10.85s-.25,3.94,1.48,5.26L92.5,465.93s3.77,2.19,5.33-.75c0,0,14.44-14.41,21.69-18.5l10.21-5.26s18.1-7.49,20.09-10.09c0,0,7-5.62,11-10.83A68,68,0,0,0,165.71,413.22Z" transform="translate(0.82 -314)"/><path class="cls-2" d="M50,469.23s-3.49-8.86,5.45-8.9c0,0-3.77-7.69,7.16-7.59l26.09,19.93s4.81,9.18-5,9.26c-.06-.05,1.93,9-6.9,7.1,0,0-1,10.27-10.85,3.4,0,0-16.11,5.58-16.33-12.47-.17-.13-8.12-6.82.51-10.92" transform="translate(0.82 -314)"/><path class="cls-3" d="M119.07,392.36c-9.33,20.67-23.09,38.37-36,56.88l-2.35-1.49c12.36-18.48,25.77-36.08,35.62-56.09-1-.67-1.87-1.16-2.65-1.74a4.22,4.22,0,0,1-1.48-5.55,3.77,3.77,0,0,1,4.44-2.35c2.32.44,3.27,2.14,3.43,4.34a14.32,14.32,0,0,0-.06,2.16c.11.48.69.86,1.32,1.18-.14-2.84.15-5.39,3.12-6.31a4.26,4.26,0,0,1,5,1.8c1.41,2.15.9,3.58-2.46,7.07l2.06,1.57c2-3.93,3.4-5,5.78-4.35a4.34,4.34,0,0,1,3.35,4.43c.09,2.22-1.55,3.58-5.86,4.63,1.14.5,1.67.94,2.19.92a17.34,17.34,0,0,0,2.37-.57c2.13-.38,4.13.33,4.63,2.36a6.11,6.11,0,0,1-1.12,4.6c-1.38,1.74-3.52,1.74-5.41.39-.8-.57-1.5-1.29-2.67-2.33-16.55,14.66-30.23,32-44.62,49l-2.34-1.48c14.25-17.63,28-35.34,45.42-49.85C129.82,396.9,124.64,392.72,119.07,392.36Zm5.29-3.27,1.19.51,1.55-2.79-1.91-.6Zm-9.55-1.35,1.28-.15,0-3.19-2,.43Zm17,6.91,1,.85,2.34-2.16-1.62-1.17Zm3.7,8.36.42,1.22,3.11-.71-.83-1.82Z" transform="translate(0.82 -314)"/><path class="cls-2" d="M330.71,671.22s19.37-29.85-17.76-55.5c.22.16-25.26-21.38-53.8,4.27.87.66-2.83-.79-3.57,8.27l-17.86,6.29s-3.4.84-1.36,4.47a13.48,13.48,0,0,0,2.92,4.28s.2,1.54-3.09,3.15c0,0-2.53,1.5-.92,4.8,0,0-4.82,1.81-2.78,5.44l-5.31,6.94s-3.08,3.14,1.36,7.23l9,6.84s4.82,5.74.73,10.18l-8.29,10.85s-.25,3.94,1.48,5.26l26.09,19.94s3.77,2.19,5.33-.75c0,0,14.44-14.41,21.69-18.5l10.21-5.26s18.1-7.49,20.09-10.09c0,0,7-5.62,11-10.83A68,68,0,0,0,330.71,671.22Z" transform="translate(0.82 -314)"/><path class="cls-2" d="M215,727.23s-3.49-8.86,5.45-8.9c0,0-3.77-7.69,7.16-7.59l26.09,19.93s4.81,9.18-5,9.26c-.06,0,1.93,9-6.9,7.1,0,0-1,10.27-10.85,3.4,0,0-16.11,5.58-16.33-12.47-.17-.13-8.12-6.82.51-10.92" transform="translate(0.82 -314)"/><path class="cls-3" d="M284.07,650.36c-9.33,20.67-23.09,38.37-36,56.88l-2.35-1.49c12.36-18.48,25.77-36.08,35.62-56.09-1-.67-1.87-1.16-2.65-1.74a4.22,4.22,0,0,1-1.48-5.55,3.77,3.77,0,0,1,4.44-2.35c2.32.44,3.27,2.14,3.43,4.34a14.32,14.32,0,0,0-.06,2.16c.11.48.69.86,1.32,1.18-.14-2.84.15-5.39,3.12-6.31a4.26,4.26,0,0,1,5,1.8c1.41,2.15.9,3.58-2.46,7.07l2.06,1.57c2-3.93,3.4-5,5.78-4.35a4.34,4.34,0,0,1,3.35,4.43c.09,2.22-1.55,3.58-5.86,4.63,1.14.5,1.67.94,2.19.92a17.34,17.34,0,0,0,2.37-.57c2.13-.38,4.13.33,4.63,2.36a6.11,6.11,0,0,1-1.12,4.6c-1.38,1.74-3.52,1.74-5.41.39-.8-.57-1.5-1.29-2.67-2.33-16.55,14.66-30.23,32-44.62,49l-2.34-1.48c14.25-17.63,28-35.34,45.42-49.85C294.82,654.9,289.64,650.72,284.07,650.36Zm5.29-3.27,1.19.51,1.55-2.79-1.91-.6Zm-9.55-1.35,1.28-.15,0-3.19-1.95.43Zm17,6.91,1,.85,2.34-2.16-1.62-1.17Zm3.7,8.36.42,1.22,3.11-.71-.83-1.82Z" transform="translate(0.82 -314)"/><path class="cls-2" d="M330.71,486.22s19.37-29.85-17.76-55.5c.22.16-25.26-21.38-53.8,4.27.87.66-2.83-.79-3.57,8.27l-17.86,6.29s-3.4.84-1.36,4.47a13.48,13.48,0,0,0,2.92,4.28s.2,1.54-3.09,3.15c0,0-2.53,1.5-.92,4.8,0,0-4.82,1.81-2.78,5.44l-5.31,6.94s-3.08,3.14,1.36,7.23l9,6.84s4.82,5.74.73,10.18l-8.29,10.85s-.25,3.94,1.48,5.26l26.09,19.94s3.77,2.19,5.33-.75c0,0,14.44-14.41,21.69-18.5l10.21-5.26s18.1-7.49,20.09-10.09c0,0,7-5.62,11-10.83A68,68,0,0,0,330.71,486.22Z" transform="translate(0.82 -314)"/><path class="cls-2" d="M215,542.23s-3.49-8.86,5.45-8.9c0,0-3.77-7.69,7.16-7.59l26.09,19.93s4.81,9.18-5,9.26c-.06,0,1.93,9-6.9,7.1,0,0-1,10.27-10.85,3.4,0,0-16.11,5.58-16.33-12.47-.17-.13-8.12-6.82.51-10.92" transform="translate(0.82 -314)"/><path class="cls-3" d="M284.07,465.36c-9.33,20.67-23.09,38.37-36,56.88l-2.35-1.49c12.36-18.48,25.77-36.08,35.62-56.09-1-.67-1.87-1.16-2.65-1.74a4.22,4.22,0,0,1-1.48-5.55,3.77,3.77,0,0,1,4.44-2.35c2.32.44,3.27,2.14,3.43,4.34a14.32,14.32,0,0,0-.06,2.16c.11.48.69.86,1.32,1.18-.14-2.84.15-5.39,3.12-6.31a4.26,4.26,0,0,1,5,1.8c1.41,2.15.9,3.58-2.46,7.07l2.06,1.57c2-3.93,3.4-5,5.78-4.35a4.34,4.34,0,0,1,3.35,4.43c.09,2.22-1.55,3.58-5.86,4.63,1.14.5,1.67.94,2.19.92a17.34,17.34,0,0,0,2.37-.57c2.13-.38,4.13.33,4.63,2.36a6.11,6.11,0,0,1-1.12,4.6c-1.38,1.74-3.52,1.74-5.41.39-.8-.57-1.5-1.29-2.67-2.33-16.55,14.66-30.23,32-44.62,49l-2.34-1.48c14.25-17.63,28-35.34,45.42-49.85C294.82,469.9,289.64,465.72,284.07,465.36Zm5.29-3.27,1.19.51,1.55-2.79-1.91-.6Zm-9.55-1.35,1.28-.15,0-3.19-1.95.43Zm17,6.91,1,.85,2.34-2.16-1.62-1.17Zm3.7,8.36.42,1.22,3.11-.71-.83-1.82Z" transform="translate(0.82 -314)"/><path class="cls-2" d="M507.71,783.22s19.37-29.85-17.76-55.5c.22.16-25.26-21.38-53.8,4.27.87.66-2.83-.79-3.57,8.27l-17.86,6.29s-3.4.84-1.36,4.47a13.48,13.48,0,0,0,2.92,4.28s.2,1.54-3.09,3.15c0,0-2.53,1.5-.92,4.8,0,0-4.82,1.81-2.78,5.44l-5.31,6.94s-3.08,3.14,1.36,7.23l8.95,6.84s4.82,5.74.73,10.18l-8.29,10.85s-.25,3.94,1.48,5.26l26.09,19.94s3.77,2.19,5.33-.75c0,0,14.44-14.41,21.69-18.5l10.21-5.26s18.1-7.49,20.09-10.09c0,0,7-5.62,11-10.83A68,68,0,0,0,507.71,783.22Z" transform="translate(0.82 -314)"/><path class="cls-2" d="M392,839.23s-3.49-8.86,5.45-8.9c0,0-3.77-7.69,7.16-7.59l26.09,19.93s4.81,9.18-5,9.26c-.06,0,1.93,9-6.9,7.1,0,0-1,10.27-10.85,3.4,0,0-16.11,5.58-16.33-12.47-.17-.13-8.12-6.82.51-10.92" transform="translate(0.82 -314)"/><path class="cls-3" d="M461.07,762.36c-9.33,20.67-23.09,38.37-36,56.88l-2.35-1.49c12.36-18.48,25.77-36.08,35.62-56.09-1-.67-1.87-1.16-2.65-1.74a4.22,4.22,0,0,1-1.48-5.55,3.77,3.77,0,0,1,4.44-2.35c2.32.44,3.27,2.14,3.43,4.34a14.32,14.32,0,0,0-.06,2.16c.11.48.69.86,1.32,1.18-.14-2.84.15-5.39,3.12-6.31a4.26,4.26,0,0,1,5,1.8c1.41,2.15.9,3.58-2.46,7.07l2.06,1.57c2-3.93,3.4-5,5.78-4.35a4.34,4.34,0,0,1,3.35,4.43c.09,2.22-1.55,3.58-5.86,4.63,1.14.5,1.67.94,2.19.92a17.34,17.34,0,0,0,2.37-.57c2.13-.38,4.13.33,4.63,2.36a6.11,6.11,0,0,1-1.12,4.6c-1.38,1.74-3.52,1.74-5.41.39-.8-.57-1.5-1.29-2.67-2.33-16.55,14.66-30.23,32-44.62,49l-2.34-1.48c14.25-17.63,28-35.34,45.42-49.85C471.82,766.9,466.64,762.72,461.07,762.36Zm5.29-3.27,1.19.51,1.55-2.79-1.91-.6Zm-9.55-1.35,1.28-.15,0-3.19-1.95.43Zm17,6.91,1,.85,2.34-2.16-1.62-1.17Zm3.7,8.36.42,1.22,3.11-.71-.83-1.82Z" transform="translate(0.82 -314)"/><path class="cls-2" d="M507.71,598.22s19.37-29.85-17.76-55.5c.22.16-25.26-21.38-53.8,4.27.87.66-2.83-.79-3.57,8.27l-17.86,6.29s-3.4.84-1.36,4.47a13.48,13.48,0,0,0,2.92,4.28s.2,1.54-3.09,3.15c0,0-2.53,1.5-.92,4.8,0,0-4.82,1.81-2.78,5.44l-5.31,6.94s-3.08,3.14,1.36,7.23l8.95,6.84s4.82,5.74.73,10.18l-8.29,10.85s-.25,3.94,1.48,5.26l26.09,19.94s3.77,2.19,5.33-.75c0,0,14.44-14.41,21.69-18.5l10.21-5.26s18.1-7.49,20.09-10.09c0,0,7-5.62,11-10.83A68,68,0,0,0,507.71,598.22Z" transform="translate(0.82 -314)"/><path class="cls-2" d="M392,654.23s-3.49-8.86,5.45-8.9c0,0-3.77-7.69,7.16-7.59l26.09,19.93s4.81,9.18-5,9.26c-.06,0,1.93,9-6.9,7.1,0,0-1,10.27-10.85,3.4,0,0-16.11,5.58-16.33-12.47-.17-.13-8.12-6.82.51-10.92" transform="translate(0.82 -314)"/><path class="cls-3" d="M461.07,577.36c-9.33,20.67-23.09,38.37-36,56.88l-2.35-1.49c12.36-18.48,25.77-36.08,35.62-56.09-1-.67-1.87-1.16-2.65-1.74a4.22,4.22,0,0,1-1.48-5.55,3.77,3.77,0,0,1,4.44-2.35c2.32.44,3.27,2.14,3.43,4.34a14.32,14.32,0,0,0-.06,2.16c.11.48.69.86,1.32,1.18-.14-2.84.15-5.39,3.12-6.31a4.26,4.26,0,0,1,5,1.8c1.41,2.15.9,3.58-2.46,7.07l2.06,1.57c2-3.93,3.4-5,5.78-4.35a4.34,4.34,0,0,1,3.35,4.43c.09,2.22-1.55,3.58-5.86,4.63,1.14.5,1.67.94,2.19.92a17.34,17.34,0,0,0,2.37-.57c2.13-.38,4.13.33,4.63,2.36a6.11,6.11,0,0,1-1.12,4.6c-1.38,1.74-3.52,1.74-5.41.39-.8-.57-1.5-1.29-2.67-2.33-16.55,14.66-30.23,32-44.62,49l-2.34-1.48c14.25-17.63,28-35.34,45.42-49.85C471.82,581.9,466.64,577.72,461.07,577.36Zm5.29-3.27,1.19.51,1.55-2.79-1.91-.6Zm-9.55-1.35,1.28-.15,0-3.19-1.95.43Zm17,6.91,1,.85,2.34-2.16-1.62-1.17Zm3.7,8.36.42,1.22,3.11-.71-.83-1.82Z" transform="translate(0.82 -314)"/><path class="cls-2" d="M507.71,413.22s19.37-29.85-17.76-55.5c.22.16-25.26-21.38-53.8,4.27.87.66-2.83-.79-3.57,8.27l-17.86,6.29s-3.4.84-1.36,4.47a13.48,13.48,0,0,0,2.92,4.28s.2,1.54-3.09,3.15c0,0-2.53,1.5-.92,4.8,0,0-4.82,1.81-2.78,5.44l-5.31,6.94s-3.08,3.14,1.36,7.23l8.95,6.84s4.82,5.74.73,10.18l-8.29,10.85s-.25,3.94,1.48,5.26l26.09,19.94s3.77,2.19,5.33-.75c0,0,14.44-14.41,21.69-18.5l10.21-5.26s18.1-7.49,20.09-10.09c0,0,7-5.62,11-10.83A68,68,0,0,0,507.71,413.22Z" transform="translate(0.82 -314)"/><path class="cls-2" d="M392,469.23s-3.49-8.86,5.45-8.9c0,0-3.77-7.69,7.16-7.59l26.09,19.93s4.81,9.18-5,9.26c-.06-.05,1.93,9-6.9,7.1,0,0-1,10.27-10.85,3.4,0,0-16.11,5.58-16.33-12.47-.17-.13-8.12-6.82.51-10.92" transform="translate(0.82 -314)"/><path class="cls-3" d="M461.07,392.36c-9.33,20.67-23.09,38.37-36,56.88l-2.35-1.49c12.36-18.48,25.77-36.08,35.62-56.09-1-.67-1.87-1.16-2.65-1.74a4.22,4.22,0,0,1-1.48-5.55,3.77,3.77,0,0,1,4.44-2.35c2.32.44,3.27,2.14,3.43,4.34a14.32,14.32,0,0,0-.06,2.16c.11.48.69.86,1.32,1.18-.14-2.84.15-5.39,3.12-6.31a4.26,4.26,0,0,1,5,1.8c1.41,2.15.9,3.58-2.46,7.07l2.06,1.57c2-3.93,3.4-5,5.78-4.35a4.34,4.34,0,0,1,3.35,4.43c.09,2.22-1.55,3.58-5.86,4.63,1.14.5,1.67.94,2.19.92a17.34,17.34,0,0,0,2.37-.57c2.13-.38,4.13.33,4.63,2.36a6.11,6.11,0,0,1-1.12,4.6c-1.38,1.74-3.52,1.74-5.41.39-.8-.57-1.5-1.29-2.67-2.33-16.55,14.66-30.23,32-44.62,49l-2.34-1.48c14.25-17.63,28-35.34,45.42-49.85C471.82,396.9,466.64,392.72,461.07,392.36Zm5.29-3.27,1.19.51,1.55-2.79-1.91-.6Zm-9.55-1.35,1.28-.15,0-3.19-1.95.43Zm17,6.91,1,.85,2.34-2.16-1.62-1.17Zm3.7,8.36.42,1.22,3.11-.71-.83-1.82Z" transform="translate(0.82 -314)"/><path class="cls-2" d="M672.71,671.22s19.37-29.85-17.76-55.5c.22.16-25.26-21.38-53.8,4.27.87.66-2.83-.79-3.57,8.27l-17.86,6.29s-3.4.84-1.36,4.47a13.48,13.48,0,0,0,2.92,4.28s.2,1.54-3.09,3.15c0,0-2.53,1.5-.92,4.8,0,0-4.82,1.81-2.78,5.44l-5.31,6.94s-3.08,3.14,1.36,7.23l9,6.84s4.82,5.74.73,10.18l-8.29,10.85s-.25,3.94,1.48,5.26l26.09,19.94s3.77,2.19,5.33-.75c0,0,14.44-14.41,21.69-18.5l10.21-5.26s18.1-7.49,20.09-10.09c0,0,7-5.62,11-10.83A68,68,0,0,0,672.71,671.22Z" transform="translate(0.82 -314)"/><path class="cls-2" d="M557,727.23s-3.49-8.86,5.45-8.9c0,0-3.77-7.69,7.16-7.59l26.09,19.93s4.81,9.18-5,9.26c-.06,0,1.93,9-6.9,7.1,0,0-1,10.27-10.85,3.4,0,0-16.11,5.58-16.33-12.47-.17-.13-8.12-6.82.51-10.92" transform="translate(0.82 -314)"/><path class="cls-3" d="M626.07,650.36c-9.33,20.67-23.09,38.37-36,56.88l-2.35-1.49c12.36-18.48,25.77-36.08,35.62-56.09-1-.67-1.87-1.16-2.65-1.74a4.22,4.22,0,0,1-1.48-5.55,3.77,3.77,0,0,1,4.44-2.35c2.32.44,3.27,2.14,3.43,4.34a14.32,14.32,0,0,0-.06,2.16c.11.48.69.86,1.32,1.18-.14-2.84.15-5.39,3.12-6.31a4.26,4.26,0,0,1,5,1.8c1.41,2.15.9,3.58-2.46,7.07l2.06,1.57c2-3.93,3.4-5,5.78-4.35a4.34,4.34,0,0,1,3.35,4.43c.09,2.22-1.55,3.58-5.86,4.63,1.14.5,1.67.94,2.19.92a17.34,17.34,0,0,0,2.37-.57c2.13-.38,4.13.33,4.63,2.36a6.11,6.11,0,0,1-1.12,4.6c-1.38,1.74-3.52,1.74-5.41.39-.8-.57-1.5-1.29-2.67-2.33-16.55,14.66-30.23,32-44.62,49l-2.34-1.48c14.25-17.63,28-35.34,45.42-49.85C636.82,654.9,631.64,650.72,626.07,650.36Zm5.29-3.27,1.19.51,1.55-2.79-1.91-.6Zm-9.55-1.35,1.28-.15,0-3.19-1.95.43Zm17,6.91,1,.85,2.34-2.16-1.62-1.17Zm3.7,8.36.42,1.22,3.11-.71-.83-1.82Z" transform="translate(0.82 -314)"/><path class="cls-2" d="M672.71,486.22s19.37-29.85-17.76-55.5c.22.16-25.26-21.38-53.8,4.27.87.66-2.83-.79-3.57,8.27l-17.86,6.29s-3.4.84-1.36,4.47a13.48,13.48,0,0,0,2.92,4.28s.2,1.54-3.09,3.15c0,0-2.53,1.5-.92,4.8,0,0-4.82,1.81-2.78,5.44l-5.31,6.94s-3.08,3.14,1.36,7.23l9,6.84s4.82,5.74.73,10.18l-8.29,10.85s-.25,3.94,1.48,5.26l26.09,19.94s3.77,2.19,5.33-.75c0,0,14.44-14.41,21.69-18.5l10.21-5.26s18.1-7.49,20.09-10.09c0,0,7-5.62,11-10.83A68,68,0,0,0,672.71,486.22Z" transform="translate(0.82 -314)"/><path class="cls-2" d="M557,542.23s-3.49-8.86,5.45-8.9c0,0-3.77-7.69,7.16-7.59l26.09,19.93s4.81,9.18-5,9.26c-.06,0,1.93,9-6.9,7.1,0,0-1,10.27-10.85,3.4,0,0-16.11,5.58-16.33-12.47-.17-.13-8.12-6.82.51-10.92" transform="translate(0.82 -314)"/><path class="cls-3" d="M626.07,465.36c-9.33,20.67-23.09,38.37-36,56.88l-2.35-1.49c12.36-18.48,25.77-36.08,35.62-56.09-1-.67-1.87-1.16-2.65-1.74a4.22,4.22,0,0,1-1.48-5.55,3.77,3.77,0,0,1,4.44-2.35c2.32.44,3.27,2.14,3.43,4.34a14.32,14.32,0,0,0-.06,2.16c.11.48.69.86,1.32,1.18-.14-2.84.15-5.39,3.12-6.31a4.26,4.26,0,0,1,5,1.8c1.41,2.15.9,3.58-2.46,7.07l2.06,1.57c2-3.93,3.4-5,5.78-4.35a4.34,4.34,0,0,1,3.35,4.43c.09,2.22-1.55,3.58-5.86,4.63,1.14.5,1.67.94,2.19.92a17.34,17.34,0,0,0,2.37-.57c2.13-.38,4.13.33,4.63,2.36a6.11,6.11,0,0,1-1.12,4.6c-1.38,1.74-3.52,1.74-5.41.39-.8-.57-1.5-1.29-2.67-2.33-16.55,14.66-30.23,32-44.62,49l-2.34-1.48c14.25-17.63,28-35.34,45.42-49.85C636.82,469.9,631.64,465.72,626.07,465.36Zm5.29-3.27,1.19.51,1.55-2.79-1.91-.6Zm-9.55-1.35,1.28-.15,0-3.19-1.95.43Zm17,6.91,1,.85,2.34-2.16-1.62-1.17Zm3.7,8.36.42,1.22,3.11-.71-.83-1.82Z" transform="translate(0.82 -314)"/><path class="cls-2" d="M849.71,783.22s19.37-29.85-17.76-55.5c.22.16-25.26-21.38-53.8,4.27.87.66-2.83-.79-3.57,8.27l-17.86,6.29s-3.4.84-1.36,4.47a13.48,13.48,0,0,0,2.92,4.28s.2,1.54-3.09,3.15c0,0-2.53,1.5-.92,4.8,0,0-4.82,1.81-2.78,5.44l-5.31,6.94s-3.08,3.14,1.36,7.23l9,6.84s4.82,5.74.73,10.18l-8.29,10.85s-.25,3.94,1.48,5.26l26.09,19.94s3.77,2.19,5.33-.75c0,0,14.44-14.41,21.69-18.5l10.21-5.26s18.1-7.49,20.09-10.09c0,0,7-5.62,11-10.83A68,68,0,0,0,849.71,783.22Z" transform="translate(0.82 -314)"/><path class="cls-2" d="M734,839.23s-3.49-8.86,5.45-8.9c0,0-3.77-7.69,7.16-7.59l26.09,19.93s4.81,9.18-5,9.26c-.06,0,1.93,9-6.9,7.1,0,0-1,10.27-10.85,3.4,0,0-16.11,5.58-16.33-12.47-.17-.13-8.12-6.82.51-10.92" transform="translate(0.82 -314)"/><path class="cls-3" d="M803.07,762.36c-9.33,20.67-23.09,38.37-36,56.88l-2.35-1.49c12.36-18.48,25.77-36.08,35.62-56.09-1-.67-1.87-1.16-2.65-1.74a4.22,4.22,0,0,1-1.48-5.55,3.77,3.77,0,0,1,4.44-2.35c2.32.44,3.27,2.14,3.43,4.34a14.32,14.32,0,0,0-.06,2.16c.11.48.69.86,1.32,1.18-.14-2.84.15-5.39,3.12-6.31a4.26,4.26,0,0,1,5,1.8c1.41,2.15.9,3.58-2.46,7.07l2.06,1.57c2-3.93,3.4-5,5.78-4.35a4.34,4.34,0,0,1,3.35,4.43c.09,2.22-1.55,3.58-5.86,4.63,1.14.5,1.67.94,2.19.92a17.34,17.34,0,0,0,2.37-.57c2.13-.38,4.13.33,4.63,2.36a6.11,6.11,0,0,1-1.12,4.6c-1.38,1.74-3.52,1.74-5.41.39-.8-.57-1.5-1.29-2.67-2.33-16.55,14.66-30.23,32-44.62,49l-2.34-1.48c14.25-17.63,28-35.34,45.42-49.85C813.82,766.9,808.64,762.72,803.07,762.36Zm5.29-3.27,1.19.51,1.55-2.79-1.91-.6Zm-9.55-1.35,1.28-.15,0-3.19-1.95.43Zm17,6.91,1,.85,2.34-2.16-1.62-1.17Zm3.7,8.36.42,1.22,3.11-.71-.83-1.82Z" transform="translate(0.82 -314)"/><path class="cls-2" d="M849.71,598.22s19.37-29.85-17.76-55.5c.22.16-25.26-21.38-53.8,4.27.87.66-2.83-.79-3.57,8.27l-17.86,6.29s-3.4.84-1.36,4.47a13.48,13.48,0,0,0,2.92,4.28s.2,1.54-3.09,3.15c0,0-2.53,1.5-.92,4.8,0,0-4.82,1.81-2.78,5.44l-5.31,6.94s-3.08,3.14,1.36,7.23l9,6.84s4.82,5.74.73,10.18l-8.29,10.85s-.25,3.94,1.48,5.26l26.09,19.94s3.77,2.19,5.33-.75c0,0,14.44-14.41,21.69-18.5l10.21-5.26s18.1-7.49,20.09-10.09c0,0,7-5.62,11-10.83A68,68,0,0,0,849.71,598.22Z" transform="translate(0.82 -314)"/><path class="cls-2" d="M734,654.23s-3.49-8.86,5.45-8.9c0,0-3.77-7.69,7.16-7.59l26.09,19.93s4.81,9.18-5,9.26c-.06,0,1.93,9-6.9,7.1,0,0-1,10.27-10.85,3.4,0,0-16.11,5.58-16.33-12.47-.17-.13-8.12-6.82.51-10.92" transform="translate(0.82 -314)"/><path class="cls-3" d="M803.07,577.36c-9.33,20.67-23.09,38.37-36,56.88l-2.35-1.49c12.36-18.48,25.77-36.08,35.62-56.09-1-.67-1.87-1.16-2.65-1.74a4.22,4.22,0,0,1-1.48-5.55,3.77,3.77,0,0,1,4.44-2.35c2.32.44,3.27,2.14,3.43,4.34a14.32,14.32,0,0,0-.06,2.16c.11.48.69.86,1.32,1.18-.14-2.84.15-5.39,3.12-6.31a4.26,4.26,0,0,1,5,1.8c1.41,2.15.9,3.58-2.46,7.07l2.06,1.57c2-3.93,3.4-5,5.78-4.35a4.34,4.34,0,0,1,3.35,4.43c.09,2.22-1.55,3.58-5.86,4.63,1.14.5,1.67.94,2.19.92a17.34,17.34,0,0,0,2.37-.57c2.13-.38,4.13.33,4.63,2.36a6.11,6.11,0,0,1-1.12,4.6c-1.38,1.74-3.52,1.74-5.41.39-.8-.57-1.5-1.29-2.67-2.33-16.55,14.66-30.23,32-44.62,49l-2.34-1.48c14.25-17.63,28-35.34,45.42-49.85C813.82,581.9,808.64,577.72,803.07,577.36Zm5.29-3.27,1.19.51,1.55-2.79-1.91-.6Zm-9.55-1.35,1.28-.15,0-3.19-1.95.43Zm17,6.91,1,.85,2.34-2.16-1.62-1.17Zm3.7,8.36.42,1.22,3.11-.71-.83-1.82Z" transform="translate(0.82 -314)"/><path class="cls-2" d="M849.71,413.22s19.37-29.85-17.76-55.5c.22.16-25.26-21.38-53.8,4.27.87.66-2.83-.79-3.57,8.27l-17.86,6.29s-3.4.84-1.36,4.47a13.48,13.48,0,0,0,2.92,4.28s.2,1.54-3.09,3.15c0,0-2.53,1.5-.92,4.8,0,0-4.82,1.81-2.78,5.44l-5.31,6.94s-3.08,3.14,1.36,7.23l9,6.84s4.82,5.74.73,10.18l-8.29,10.85s-.25,3.94,1.48,5.26l26.09,19.94s3.77,2.19,5.33-.75c0,0,14.44-14.41,21.69-18.5l10.21-5.26s18.1-7.49,20.09-10.09c0,0,7-5.62,11-10.83A68,68,0,0,0,849.71,413.22Z" transform="translate(0.82 -314)"/><path class="cls-2" d="M734,469.23s-3.49-8.86,5.45-8.9c0,0-3.77-7.69,7.16-7.59l26.09,19.93s4.81,9.18-5,9.26c-.06-.05,1.93,9-6.9,7.1,0,0-1,10.27-10.85,3.4,0,0-16.11,5.58-16.33-12.47-.17-.13-8.12-6.82.51-10.92" transform="translate(0.82 -314)"/><path class="cls-3" d="M803.07,392.36c-9.33,20.67-23.09,38.37-36,56.88l-2.35-1.49c12.36-18.48,25.77-36.08,35.62-56.09-1-.67-1.87-1.16-2.65-1.74a4.22,4.22,0,0,1-1.48-5.55,3.77,3.77,0,0,1,4.44-2.35c2.32.44,3.27,2.14,3.43,4.34a14.32,14.32,0,0,0-.06,2.16c.11.48.69.86,1.32,1.18-.14-2.84.15-5.39,3.12-6.31a4.26,4.26,0,0,1,5,1.8c1.41,2.15.9,3.58-2.46,7.07l2.06,1.57c2-3.93,3.4-5,5.78-4.35a4.34,4.34,0,0,1,3.35,4.43c.09,2.22-1.55,3.58-5.86,4.63,1.14.5,1.67.94,2.19.92a17.34,17.34,0,0,0,2.37-.57c2.13-.38,4.13.33,4.63,2.36a6.11,6.11,0,0,1-1.12,4.6c-1.38,1.74-3.52,1.74-5.41.39-.8-.57-1.5-1.29-2.67-2.33-16.55,14.66-30.23,32-44.62,49l-2.34-1.48c14.25-17.63,28-35.34,45.42-49.85C813.82,396.9,808.64,392.72,803.07,392.36Zm5.29-3.27,1.19.51,1.55-2.79-1.91-.6Zm-9.55-1.35,1.28-.15,0-3.19-1.95.43Zm17,6.91,1,.85,2.34-2.16-1.62-1.17Zm3.7,8.36.42,1.22,3.11-.71-.83-1.82Z" transform="translate(0.82 -314)"/><path class="cls-2" d="M1014.71,671.22s19.37-29.85-17.76-55.5c.22.16-25.26-21.38-53.8,4.27.87.66-2.83-.79-3.57,8.27l-17.86,6.29s-3.4.84-1.36,4.47a13.48,13.48,0,0,0,2.92,4.28s.2,1.54-3.09,3.15c0,0-2.53,1.5-.92,4.8,0,0-4.82,1.81-2.78,5.44l-5.31,6.94s-3.08,3.14,1.36,7.23l9,6.84s4.82,5.74.73,10.18l-8.29,10.85s-.25,3.94,1.48,5.26l26.09,19.94s3.77,2.19,5.33-.75c0,0,14.44-14.41,21.69-18.5l10.21-5.26s18.1-7.49,20.09-10.09c0,0,7-5.62,11-10.83A68,68,0,0,0,1014.71,671.22Z" transform="translate(0.82 -314)"/><path class="cls-2" d="M899,727.23s-3.49-8.86,5.45-8.9c0,0-3.77-7.69,7.16-7.59l26.09,19.93s4.81,9.18-5,9.26c-.06,0,1.93,9-6.9,7.1,0,0-1,10.27-10.85,3.4,0,0-16.11,5.58-16.33-12.47-.17-.13-8.12-6.82.51-10.92" transform="translate(0.82 -314)"/><path class="cls-3" d="M968.07,650.36c-9.33,20.67-23.09,38.37-36,56.88l-2.35-1.49c12.36-18.48,25.77-36.08,35.62-56.09-1-.67-1.87-1.16-2.65-1.74a4.22,4.22,0,0,1-1.48-5.55,3.77,3.77,0,0,1,4.44-2.35c2.32.44,3.27,2.14,3.43,4.34a14.32,14.32,0,0,0-.06,2.16c.11.48.69.86,1.32,1.18-.14-2.84.15-5.39,3.12-6.31a4.26,4.26,0,0,1,5,1.8c1.41,2.15.9,3.58-2.46,7.07l2.06,1.57c2-3.93,3.4-5,5.78-4.35a4.34,4.34,0,0,1,3.35,4.43c.09,2.22-1.55,3.58-5.86,4.63,1.14.5,1.67.94,2.19.92a17.34,17.34,0,0,0,2.37-.57c2.13-.38,4.13.33,4.63,2.36a6.11,6.11,0,0,1-1.12,4.6c-1.38,1.74-3.52,1.74-5.41.39-.8-.57-1.5-1.29-2.67-2.33-16.55,14.66-30.23,32-44.62,49l-2.34-1.48c14.25-17.63,28-35.34,45.42-49.85C978.82,654.9,973.64,650.72,968.07,650.36Zm5.29-3.27,1.19.51,1.55-2.79-1.91-.6Zm-9.55-1.35,1.28-.15,0-3.19-1.95.43Zm17,6.91,1,.85,2.34-2.16-1.62-1.17Zm3.7,8.36.42,1.22,3.11-.71-.83-1.82Z" transform="translate(0.82 -314)"/><path class="cls-2" d="M1014.71,486.22s19.37-29.85-17.76-55.5c.22.16-25.26-21.38-53.8,4.27.87.66-2.83-.79-3.57,8.27l-17.86,6.29s-3.4.84-1.36,4.47a13.48,13.48,0,0,0,2.92,4.28s.2,1.54-3.09,3.15c0,0-2.53,1.5-.92,4.8,0,0-4.82,1.81-2.78,5.44l-5.31,6.94s-3.08,3.14,1.36,7.23l9,6.84s4.82,5.74.73,10.18l-8.29,10.85s-.25,3.94,1.48,5.26l26.09,19.94s3.77,2.19,5.33-.75c0,0,14.44-14.41,21.69-18.5l10.21-5.26s18.1-7.49,20.09-10.09c0,0,7-5.62,11-10.83A68,68,0,0,0,1014.71,486.22Z" transform="translate(0.82 -314)"/><path class="cls-2" d="M899,542.23s-3.49-8.86,5.45-8.9c0,0-3.77-7.69,7.16-7.59l26.09,19.93s4.81,9.18-5,9.26c-.06,0,1.93,9-6.9,7.1,0,0-1,10.27-10.85,3.4,0,0-16.11,5.58-16.33-12.47-.17-.13-8.12-6.82.51-10.92" transform="translate(0.82 -314)"/><path class="cls-3" d="M968.07,465.36c-9.33,20.67-23.09,38.37-36,56.88l-2.35-1.49c12.36-18.48,25.77-36.08,35.62-56.09-1-.67-1.87-1.16-2.65-1.74a4.22,4.22,0,0,1-1.48-5.55,3.77,3.77,0,0,1,4.44-2.35c2.32.44,3.27,2.14,3.43,4.34a14.32,14.32,0,0,0-.06,2.16c.11.48.69.86,1.32,1.18-.14-2.84.15-5.39,3.12-6.31a4.26,4.26,0,0,1,5,1.8c1.41,2.15.9,3.58-2.46,7.07l2.06,1.57c2-3.93,3.4-5,5.78-4.35a4.34,4.34,0,0,1,3.35,4.43c.09,2.22-1.55,3.58-5.86,4.63,1.14.5,1.67.94,2.19.92a17.34,17.34,0,0,0,2.37-.57c2.13-.38,4.13.33,4.63,2.36a6.11,6.11,0,0,1-1.12,4.6c-1.38,1.74-3.52,1.74-5.41.39-.8-.57-1.5-1.29-2.67-2.33-16.55,14.66-30.23,32-44.62,49l-2.34-1.48c14.25-17.63,28-35.34,45.42-49.85C978.82,469.9,973.64,465.72,968.07,465.36Zm5.29-3.27,1.19.51,1.55-2.79-1.91-.6Zm-9.55-1.35,1.28-.15,0-3.19-1.95.43Zm17,6.91,1,.85,2.34-2.16-1.62-1.17Zm3.7,8.36.42,1.22,3.11-.71-.83-1.82Z" transform="translate(0.82 -314)"/><path class="cls-2" d="M1191.71,783.22s19.37-29.85-17.76-55.5c.22.16-25.26-21.38-53.8,4.27.87.66-2.83-.79-3.57,8.27l-17.86,6.29s-3.4.84-1.36,4.47a13.48,13.48,0,0,0,2.92,4.28s.2,1.54-3.09,3.15c0,0-2.53,1.5-.92,4.8,0,0-4.82,1.81-2.78,5.44l-5.31,6.94s-3.08,3.14,1.36,7.23l9,6.84s4.82,5.74.73,10.18l-8.29,10.85s-.25,3.94,1.48,5.26l26.09,19.94s3.77,2.19,5.33-.75c0,0,14.44-14.41,21.69-18.5l10.21-5.26s18.1-7.49,20.09-10.09c0,0,7-5.62,11-10.83A68,68,0,0,0,1191.71,783.22Z" transform="translate(0.82 -314)"/><path class="cls-2" d="M1076,839.23s-3.49-8.86,5.45-8.9c0,0-3.77-7.69,7.16-7.59l26.09,19.93s4.81,9.18-5,9.26c-.06,0,1.93,9-6.9,7.1,0,0-1,10.27-10.85,3.4,0,0-16.11,5.58-16.33-12.47-.17-.13-8.12-6.82.51-10.92" transform="translate(0.82 -314)"/><path class="cls-3" d="M1145.07,762.36c-9.33,20.67-23.09,38.37-36,56.88l-2.35-1.49c12.36-18.48,25.77-36.08,35.62-56.09-1-.67-1.87-1.16-2.65-1.74a4.22,4.22,0,0,1-1.48-5.55,3.77,3.77,0,0,1,4.44-2.35c2.32.44,3.27,2.14,3.43,4.34a14.32,14.32,0,0,0-.06,2.16c.11.48.69.86,1.32,1.18-.14-2.84.15-5.39,3.12-6.31a4.26,4.26,0,0,1,5,1.8c1.41,2.15.9,3.58-2.46,7.07l2.06,1.57c2-3.93,3.4-5,5.78-4.35a4.34,4.34,0,0,1,3.35,4.43c.09,2.22-1.55,3.58-5.86,4.63,1.14.5,1.67.94,2.19.92a17.34,17.34,0,0,0,2.37-.57c2.13-.38,4.13.33,4.63,2.36a6.11,6.11,0,0,1-1.12,4.6c-1.38,1.74-3.52,1.74-5.41.39-.8-.57-1.5-1.29-2.67-2.33-16.55,14.66-30.23,32-44.62,49l-2.34-1.48c14.25-17.63,28-35.34,45.42-49.85C1155.82,766.9,1150.64,762.72,1145.07,762.36Zm5.29-3.27,1.19.51,1.55-2.79-1.91-.6Zm-9.55-1.35,1.28-.15,0-3.19-2,.43Zm17,6.91,1,.85,2.34-2.16-1.62-1.17Zm3.7,8.36.42,1.22,3.11-.71-.83-1.82Z" transform="translate(0.82 -314)"/><path class="cls-2" d="M1191.71,598.22s19.37-29.85-17.76-55.5c.22.16-25.26-21.38-53.8,4.27.87.66-2.83-.79-3.57,8.27l-17.86,6.29s-3.4.84-1.36,4.47a13.48,13.48,0,0,0,2.92,4.28s.2,1.54-3.09,3.15c0,0-2.53,1.5-.92,4.8,0,0-4.82,1.81-2.78,5.44l-5.31,6.94s-3.08,3.14,1.36,7.23l9,6.84s4.82,5.74.73,10.18l-8.29,10.85s-.25,3.94,1.48,5.26l26.09,19.94s3.77,2.19,5.33-.75c0,0,14.44-14.41,21.69-18.5l10.21-5.26s18.1-7.49,20.09-10.09c0,0,7-5.62,11-10.83A68,68,0,0,0,1191.71,598.22Z" transform="translate(0.82 -314)"/><path class="cls-2" d="M1076,654.23s-3.49-8.86,5.45-8.9c0,0-3.77-7.69,7.16-7.59l26.09,19.93s4.81,9.18-5,9.26c-.06,0,1.93,9-6.9,7.1,0,0-1,10.27-10.85,3.4,0,0-16.11,5.58-16.33-12.47-.17-.13-8.12-6.82.51-10.92" transform="translate(0.82 -314)"/><path class="cls-3" d="M1145.07,577.36c-9.33,20.67-23.09,38.37-36,56.88l-2.35-1.49c12.36-18.48,25.77-36.08,35.62-56.09-1-.67-1.87-1.16-2.65-1.74a4.22,4.22,0,0,1-1.48-5.55,3.77,3.77,0,0,1,4.44-2.35c2.32.44,3.27,2.14,3.43,4.34a14.32,14.32,0,0,0-.06,2.16c.11.48.69.86,1.32,1.18-.14-2.84.15-5.39,3.12-6.31a4.26,4.26,0,0,1,5,1.8c1.41,2.15.9,3.58-2.46,7.07l2.06,1.57c2-3.93,3.4-5,5.78-4.35a4.34,4.34,0,0,1,3.35,4.43c.09,2.22-1.55,3.58-5.86,4.63,1.14.5,1.67.94,2.19.92a17.34,17.34,0,0,0,2.37-.57c2.13-.38,4.13.33,4.63,2.36a6.11,6.11,0,0,1-1.12,4.6c-1.38,1.74-3.52,1.74-5.41.39-.8-.57-1.5-1.29-2.67-2.33-16.55,14.66-30.23,32-44.62,49l-2.34-1.48c14.25-17.63,28-35.34,45.42-49.85C1155.82,581.9,1150.64,577.72,1145.07,577.36Zm5.29-3.27,1.19.51,1.55-2.79-1.91-.6Zm-9.55-1.35,1.28-.15,0-3.19-2,.43Zm17,6.91,1,.85,2.34-2.16-1.62-1.17Zm3.7,8.36.42,1.22,3.11-.71-.83-1.82Z" transform="translate(0.82 -314)"/><path class="cls-2" d="M1191.71,413.22s19.37-29.85-17.76-55.5c.22.16-25.26-21.38-53.8,4.27.87.66-2.83-.79-3.57,8.27l-17.86,6.29s-3.4.84-1.36,4.47a13.48,13.48,0,0,0,2.92,4.28s.2,1.54-3.09,3.15c0,0-2.53,1.5-.92,4.8,0,0-4.82,1.81-2.78,5.44l-5.31,6.94s-3.08,3.14,1.36,7.23l9,6.84s4.82,5.74.73,10.18l-8.29,10.85s-.25,3.94,1.48,5.26l26.09,19.94s3.77,2.19,5.33-.75c0,0,14.44-14.41,21.69-18.5l10.21-5.26s18.1-7.49,20.09-10.09c0,0,7-5.62,11-10.83A68,68,0,0,0,1191.71,413.22Z" transform="translate(0.82 -314)"/><path class="cls-2" d="M1076,469.23s-3.49-8.86,5.45-8.9c0,0-3.77-7.69,7.16-7.59l26.09,19.93s4.81,9.18-5,9.26c-.06-.05,1.93,9-6.9,7.1,0,0-1,10.27-10.85,3.4,0,0-16.11,5.58-16.33-12.47-.17-.13-8.12-6.82.51-10.92" transform="translate(0.82 -314)"/><path class="cls-3" d="M1145.07,392.36c-9.33,20.67-23.09,38.37-36,56.88l-2.35-1.49c12.36-18.48,25.77-36.08,35.62-56.09-1-.67-1.87-1.16-2.65-1.74a4.22,4.22,0,0,1-1.48-5.55,3.77,3.77,0,0,1,4.44-2.35c2.32.44,3.27,2.14,3.43,4.34a14.32,14.32,0,0,0-.06,2.16c.11.48.69.86,1.32,1.18-.14-2.84.15-5.39,3.12-6.31a4.26,4.26,0,0,1,5,1.8c1.41,2.15.9,3.58-2.46,7.07l2.06,1.57c2-3.93,3.4-5,5.78-4.35a4.34,4.34,0,0,1,3.35,4.43c.09,2.22-1.55,3.58-5.86,4.63,1.14.5,1.67.94,2.19.92a17.34,17.34,0,0,0,2.37-.57c2.13-.38,4.13.33,4.63,2.36a6.11,6.11,0,0,1-1.12,4.6c-1.38,1.74-3.52,1.74-5.41.39-.8-.57-1.5-1.29-2.67-2.33-16.55,14.66-30.23,32-44.62,49l-2.34-1.48c14.25-17.63,28-35.34,45.42-49.85C1155.82,396.9,1150.64,392.72,1145.07,392.36Zm5.29-3.27,1.19.51,1.55-2.79-1.91-.6Zm-9.55-1.35,1.28-.15,0-3.19-2,.43Zm17,6.91,1,.85,2.34-2.16-1.62-1.17Zm3.7,8.36.42,1.22,3.11-.71-.83-1.82Z" transform="translate(0.82 -314)"/><path class="cls-2" d="M1356.71,671.22s19.37-29.85-17.76-55.5c.22.16-25.26-21.38-53.8,4.27.87.66-2.83-.79-3.57,8.27l-17.86,6.29s-3.4.84-1.36,4.47a13.48,13.48,0,0,0,2.92,4.28s.2,1.54-3.09,3.15c0,0-2.53,1.5-.92,4.8,0,0-4.82,1.81-2.78,5.44l-5.31,6.94s-3.08,3.14,1.36,7.23l9,6.84s4.82,5.74.73,10.18l-8.29,10.85s-.25,3.94,1.48,5.26l26.09,19.94s3.77,2.19,5.33-.75c0,0,14.44-14.41,21.69-18.5l10.21-5.26s18.1-7.49,20.09-10.09c0,0,7-5.62,11-10.83A68,68,0,0,0,1356.71,671.22Z" transform="translate(0.82 -314)"/><path class="cls-2" d="M1241,727.23s-3.49-8.86,5.45-8.9c0,0-3.77-7.69,7.16-7.59l26.09,19.93s4.81,9.18-5,9.26c-.06,0,1.93,9-6.9,7.1,0,0-1,10.27-10.85,3.4,0,0-16.11,5.58-16.33-12.47-.17-.13-8.12-6.82.51-10.92" transform="translate(0.82 -314)"/><path class="cls-3" d="M1310.07,650.36c-9.33,20.67-23.09,38.37-36,56.88l-2.35-1.49c12.36-18.48,25.77-36.08,35.62-56.09-1-.67-1.87-1.16-2.65-1.74a4.22,4.22,0,0,1-1.48-5.55,3.77,3.77,0,0,1,4.44-2.35c2.32.44,3.27,2.14,3.43,4.34a14.32,14.32,0,0,0-.06,2.16c.11.48.69.86,1.32,1.18-.14-2.84.15-5.39,3.12-6.31a4.26,4.26,0,0,1,5,1.8c1.41,2.15.9,3.58-2.46,7.07l2.06,1.57c2-3.93,3.4-5,5.78-4.35a4.34,4.34,0,0,1,3.35,4.43c.09,2.22-1.55,3.58-5.86,4.63,1.14.5,1.67.94,2.19.92a17.34,17.34,0,0,0,2.37-.57c2.13-.38,4.13.33,4.63,2.36a6.11,6.11,0,0,1-1.12,4.6c-1.38,1.74-3.52,1.74-5.41.39-.8-.57-1.5-1.29-2.67-2.33-16.55,14.66-30.23,32-44.62,49l-2.34-1.48c14.25-17.63,28-35.34,45.42-49.85C1320.82,654.9,1315.64,650.72,1310.07,650.36Zm5.29-3.27,1.19.51,1.55-2.79-1.91-.6Zm-9.55-1.35,1.28-.15,0-3.19-2,.43Zm17,6.91,1,.85,2.34-2.16-1.62-1.17Zm3.7,8.36.42,1.22,3.11-.71-.83-1.82Z" transform="translate(0.82 -314)"/><path class="cls-2" d="M1356.71,486.22s19.37-29.85-17.76-55.5c.22.16-25.26-21.38-53.8,4.27.87.66-2.83-.79-3.57,8.27l-17.86,6.29s-3.4.84-1.36,4.47a13.48,13.48,0,0,0,2.92,4.28s.2,1.54-3.09,3.15c0,0-2.53,1.5-.92,4.8,0,0-4.82,1.81-2.78,5.44l-5.31,6.94s-3.08,3.14,1.36,7.23l9,6.84s4.82,5.74.73,10.18l-8.29,10.85s-.25,3.94,1.48,5.26l26.09,19.94s3.77,2.19,5.33-.75c0,0,14.44-14.41,21.69-18.5l10.21-5.26s18.1-7.49,20.09-10.09c0,0,7-5.62,11-10.83A68,68,0,0,0,1356.71,486.22Z" transform="translate(0.82 -314)"/><path class="cls-2" d="M1241,542.23s-3.49-8.86,5.45-8.9c0,0-3.77-7.69,7.16-7.59l26.09,19.93s4.81,9.18-5,9.26c-.06,0,1.93,9-6.9,7.1,0,0-1,10.27-10.85,3.4,0,0-16.11,5.58-16.33-12.47-.17-.13-8.12-6.82.51-10.92" transform="translate(0.82 -314)"/><path class="cls-3" d="M1310.07,465.36c-9.33,20.67-23.09,38.37-36,56.88l-2.35-1.49c12.36-18.48,25.77-36.08,35.62-56.09-1-.67-1.87-1.16-2.65-1.74a4.22,4.22,0,0,1-1.48-5.55,3.77,3.77,0,0,1,4.44-2.35c2.32.44,3.27,2.14,3.43,4.34a14.32,14.32,0,0,0-.06,2.16c.11.48.69.86,1.32,1.18-.14-2.84.15-5.39,3.12-6.31a4.26,4.26,0,0,1,5,1.8c1.41,2.15.9,3.58-2.46,7.07l2.06,1.57c2-3.93,3.4-5,5.78-4.35a4.34,4.34,0,0,1,3.35,4.43c.09,2.22-1.55,3.58-5.86,4.63,1.14.5,1.67.94,2.19.92a17.34,17.34,0,0,0,2.37-.57c2.13-.38,4.13.33,4.63,2.36a6.11,6.11,0,0,1-1.12,4.6c-1.38,1.74-3.52,1.74-5.41.39-.8-.57-1.5-1.29-2.67-2.33-16.55,14.66-30.23,32-44.62,49l-2.34-1.48c14.25-17.63,28-35.34,45.42-49.85C1320.82,469.9,1315.64,465.72,1310.07,465.36Zm5.29-3.27,1.19.51,1.55-2.79-1.91-.6Zm-9.55-1.35,1.28-.15,0-3.19-2,.43Zm17,6.91,1,.85,2.34-2.16-1.62-1.17Zm3.7,8.36.42,1.22,3.11-.71-.83-1.82Z" transform="translate(0.82 -314)"/><path class="cls-2" d="M1533.71,783.22s19.37-29.85-17.76-55.5c.22.16-25.26-21.38-53.8,4.27.87.66-2.83-.79-3.57,8.27l-17.86,6.29s-3.4.84-1.36,4.47a13.48,13.48,0,0,0,2.92,4.28s.2,1.54-3.09,3.15c0,0-2.53,1.5-.92,4.8,0,0-4.82,1.81-2.78,5.44l-5.31,6.94s-3.08,3.14,1.36,7.23l9,6.84s4.82,5.74.73,10.18l-8.29,10.85s-.25,3.94,1.48,5.26l26.09,19.94s3.77,2.19,5.33-.75c0,0,14.44-14.41,21.69-18.5l10.21-5.26s18.1-7.49,20.09-10.09c0,0,7-5.62,11-10.83A68,68,0,0,0,1533.71,783.22Z" transform="translate(0.82 -314)"/><path class="cls-2" d="M1418,839.23s-3.49-8.86,5.45-8.9c0,0-3.77-7.69,7.16-7.59l26.09,19.93s4.81,9.18-5,9.26c-.06,0,1.93,9-6.9,7.1,0,0-1,10.27-10.85,3.4,0,0-16.11,5.58-16.33-12.47-.17-.13-8.12-6.82.51-10.92" transform="translate(0.82 -314)"/><path class="cls-3" d="M1487.07,762.36c-9.33,20.67-23.09,38.37-36,56.88l-2.35-1.49c12.36-18.48,25.77-36.08,35.62-56.09-1-.67-1.87-1.16-2.65-1.74a4.22,4.22,0,0,1-1.48-5.55,3.77,3.77,0,0,1,4.44-2.35c2.32.44,3.27,2.14,3.43,4.34a14.32,14.32,0,0,0-.06,2.16c.11.48.69.86,1.32,1.18-.14-2.84.15-5.39,3.12-6.31a4.26,4.26,0,0,1,5,1.8c1.41,2.15.9,3.58-2.46,7.07l2.06,1.57c2-3.93,3.4-5,5.78-4.35a4.34,4.34,0,0,1,3.35,4.43c.09,2.22-1.55,3.58-5.86,4.63,1.14.5,1.67.94,2.19.92a17.34,17.34,0,0,0,2.37-.57c2.13-.38,4.13.33,4.63,2.36a6.11,6.11,0,0,1-1.12,4.6c-1.38,1.74-3.52,1.74-5.41.39-.8-.57-1.5-1.29-2.67-2.33-16.55,14.66-30.23,32-44.62,49l-2.34-1.48c14.25-17.63,28-35.34,45.42-49.85C1497.82,766.9,1492.64,762.72,1487.07,762.36Zm5.29-3.27,1.19.51,1.55-2.79-1.91-.6Zm-9.55-1.35,1.28-.15,0-3.19-2,.43Zm17,6.91,1,.85,2.34-2.16-1.62-1.17Zm3.7,8.36.42,1.22,3.11-.71-.83-1.82Z" transform="translate(0.82 -314)"/><path class="cls-2" d="M1533.71,598.22s19.37-29.85-17.76-55.5c.22.16-25.26-21.38-53.8,4.27.87.66-2.83-.79-3.57,8.27l-17.86,6.29s-3.4.84-1.36,4.47a13.48,13.48,0,0,0,2.92,4.28s.2,1.54-3.09,3.15c0,0-2.53,1.5-.92,4.8,0,0-4.82,1.81-2.78,5.44l-5.31,6.94s-3.08,3.14,1.36,7.23l9,6.84s4.82,5.74.73,10.18l-8.29,10.85s-.25,3.94,1.48,5.26l26.09,19.94s3.77,2.19,5.33-.75c0,0,14.44-14.41,21.69-18.5l10.21-5.26s18.1-7.49,20.09-10.09c0,0,7-5.62,11-10.83A68,68,0,0,0,1533.71,598.22Z" transform="translate(0.82 -314)"/><path class="cls-2" d="M1418,654.23s-3.49-8.86,5.45-8.9c0,0-3.77-7.69,7.16-7.59l26.09,19.93s4.81,9.18-5,9.26c-.06,0,1.93,9-6.9,7.1,0,0-1,10.27-10.85,3.4,0,0-16.11,5.58-16.33-12.47-.17-.13-8.12-6.82.51-10.92" transform="translate(0.82 -314)"/><path class="cls-3" d="M1487.07,577.36c-9.33,20.67-23.09,38.37-36,56.88l-2.35-1.49c12.36-18.48,25.77-36.08,35.62-56.09-1-.67-1.87-1.16-2.65-1.74a4.22,4.22,0,0,1-1.48-5.55,3.77,3.77,0,0,1,4.44-2.35c2.32.44,3.27,2.14,3.43,4.34a14.32,14.32,0,0,0-.06,2.16c.11.48.69.86,1.32,1.18-.14-2.84.15-5.39,3.12-6.31a4.26,4.26,0,0,1,5,1.8c1.41,2.15.9,3.58-2.46,7.07l2.06,1.57c2-3.93,3.4-5,5.78-4.35a4.34,4.34,0,0,1,3.35,4.43c.09,2.22-1.55,3.58-5.86,4.63,1.14.5,1.67.94,2.19.92a17.34,17.34,0,0,0,2.37-.57c2.13-.38,4.13.33,4.63,2.36a6.11,6.11,0,0,1-1.12,4.6c-1.38,1.74-3.52,1.74-5.41.39-.8-.57-1.5-1.29-2.67-2.33-16.55,14.66-30.23,32-44.62,49l-2.34-1.48c14.25-17.63,28-35.34,45.42-49.85C1497.82,581.9,1492.64,577.72,1487.07,577.36Zm5.29-3.27,1.19.51,1.55-2.79-1.91-.6Zm-9.55-1.35,1.28-.15,0-3.19-2,.43Zm17,6.91,1,.85,2.34-2.16-1.62-1.17Zm3.7,8.36.42,1.22,3.11-.71-.83-1.82Z" transform="translate(0.82 -314)"/><path class="cls-2" d="M1533.71,413.22s19.37-29.85-17.76-55.5c.22.16-25.26-21.38-53.8,4.27.87.66-2.83-.79-3.57,8.27l-17.86,6.29s-3.4.84-1.36,4.47a13.48,13.48,0,0,0,2.92,4.28s.2,1.54-3.09,3.15c0,0-2.53,1.5-.92,4.8,0,0-4.82,1.81-2.78,5.44l-5.31,6.94s-3.08,3.14,1.36,7.23l9,6.84s4.82,5.74.73,10.18l-8.29,10.85s-.25,3.94,1.48,5.26l26.09,19.94s3.77,2.19,5.33-.75c0,0,14.44-14.41,21.69-18.5l10.21-5.26s18.1-7.49,20.09-10.09c0,0,7-5.62,11-10.83A68,68,0,0,0,1533.71,413.22Z" transform="translate(0.82 -314)"/><path class="cls-2" d="M1418,469.23s-3.49-8.86,5.45-8.9c0,0-3.77-7.69,7.16-7.59l26.09,19.93s4.81,9.18-5,9.26c-.06-.05,1.93,9-6.9,7.1,0,0-1,10.27-10.85,3.4,0,0-16.11,5.58-16.33-12.47-.17-.13-8.12-6.82.51-10.92" transform="translate(0.82 -314)"/><path class="cls-3" d="M1487.07,392.36c-9.33,20.67-23.09,38.37-36,56.88l-2.35-1.49c12.36-18.48,25.77-36.08,35.62-56.09-1-.67-1.87-1.16-2.65-1.74a4.22,4.22,0,0,1-1.48-5.55,3.77,3.77,0,0,1,4.44-2.35c2.32.44,3.27,2.14,3.43,4.34a14.32,14.32,0,0,0-.06,2.16c.11.48.69.86,1.32,1.18-.14-2.84.15-5.39,3.12-6.31a4.26,4.26,0,0,1,5,1.8c1.41,2.15.9,3.58-2.46,7.07l2.06,1.57c2-3.93,3.4-5,5.78-4.35a4.34,4.34,0,0,1,3.35,4.43c.09,2.22-1.55,3.58-5.86,4.63,1.14.5,1.67.94,2.19.92a17.34,17.34,0,0,0,2.37-.57c2.13-.38,4.13.33,4.63,2.36a6.11,6.11,0,0,1-1.12,4.6c-1.38,1.74-3.52,1.74-5.41.39-.8-.57-1.5-1.29-2.67-2.33-16.55,14.66-30.23,32-44.62,49l-2.34-1.48c14.25-17.63,28-35.34,45.42-49.85C1497.82,396.9,1492.64,392.72,1487.07,392.36Zm5.29-3.27,1.19.51,1.55-2.79-1.91-.6Zm-9.55-1.35,1.28-.15,0-3.19-2,.43Zm17,6.91,1,.85,2.34-2.16-1.62-1.17Zm3.7,8.36.42,1.22,3.11-.71-.83-1.82Z" transform="translate(0.82 -314)"/><path class="cls-2" d="M1698.71,671.22s19.37-29.85-17.76-55.5c.22.16-25.26-21.38-53.8,4.27.87.66-2.83-.79-3.57,8.27l-17.86,6.29s-3.4.84-1.36,4.47a13.48,13.48,0,0,0,2.92,4.28s.2,1.54-3.09,3.15c0,0-2.53,1.5-.92,4.8,0,0-4.82,1.81-2.78,5.44l-5.31,6.94s-3.08,3.14,1.36,7.23l9,6.84s4.82,5.74.73,10.18l-8.29,10.85s-.25,3.94,1.48,5.26l26.09,19.94s3.77,2.19,5.33-.75c0,0,14.44-14.41,21.69-18.5l10.21-5.26s18.1-7.49,20.09-10.09c0,0,7-5.62,11-10.83A68,68,0,0,0,1698.71,671.22Z" transform="translate(0.82 -314)"/><path class="cls-2" d="M1583,727.23s-3.49-8.86,5.45-8.9c0,0-3.77-7.69,7.16-7.59l26.09,19.93s4.81,9.18-5,9.26c-.06,0,1.93,9-6.9,7.1,0,0-1,10.27-10.85,3.4,0,0-16.11,5.58-16.33-12.47-.17-.13-8.12-6.82.51-10.92" transform="translate(0.82 -314)"/><path class="cls-3" d="M1652.07,650.36c-9.33,20.67-23.09,38.37-36,56.88l-2.35-1.49c12.36-18.48,25.77-36.08,35.62-56.09-1-.67-1.87-1.16-2.65-1.74a4.22,4.22,0,0,1-1.48-5.55,3.77,3.77,0,0,1,4.44-2.35c2.32.44,3.27,2.14,3.43,4.34a14.32,14.32,0,0,0-.06,2.16c.11.48.69.86,1.32,1.18-.14-2.84.15-5.39,3.12-6.31a4.26,4.26,0,0,1,5,1.8c1.41,2.15.9,3.58-2.46,7.07l2.06,1.57c2-3.93,3.4-5,5.78-4.35a4.34,4.34,0,0,1,3.35,4.43c.09,2.22-1.55,3.58-5.86,4.63,1.14.5,1.67.94,2.19.92a17.34,17.34,0,0,0,2.37-.57c2.13-.38,4.13.33,4.63,2.36a6.11,6.11,0,0,1-1.12,4.6c-1.38,1.74-3.52,1.74-5.41.39-.8-.57-1.5-1.29-2.67-2.33-16.55,14.66-30.23,32-44.62,49l-2.34-1.48c14.25-17.63,28-35.34,45.42-49.85C1662.82,654.9,1657.64,650.72,1652.07,650.36Zm5.29-3.27,1.19.51,1.55-2.79-1.91-.6Zm-9.55-1.35,1.28-.15,0-3.19-2,.43Zm17,6.91,1,.85,2.34-2.16-1.62-1.17Zm3.7,8.36.42,1.22,3.11-.71-.83-1.82Z" transform="translate(0.82 -314)"/><path class="cls-2" d="M1698.71,486.22s19.37-29.85-17.76-55.5c.22.16-25.26-21.38-53.8,4.27.87.66-2.83-.79-3.57,8.27l-17.86,6.29s-3.4.84-1.36,4.47a13.48,13.48,0,0,0,2.92,4.28s.2,1.54-3.09,3.15c0,0-2.53,1.5-.92,4.8,0,0-4.82,1.81-2.78,5.44l-5.31,6.94s-3.08,3.14,1.36,7.23l9,6.84s4.82,5.74.73,10.18l-8.29,10.85s-.25,3.94,1.48,5.26l26.09,19.94s3.77,2.19,5.33-.75c0,0,14.44-14.41,21.69-18.5l10.21-5.26s18.1-7.49,20.09-10.09c0,0,7-5.62,11-10.83A68,68,0,0,0,1698.71,486.22Z" transform="translate(0.82 -314)"/><path class="cls-2" d="M1583,542.23s-3.49-8.86,5.45-8.9c0,0-3.77-7.69,7.16-7.59l26.09,19.93s4.81,9.18-5,9.26c-.06,0,1.93,9-6.9,7.1,0,0-1,10.27-10.85,3.4,0,0-16.11,5.58-16.33-12.47-.17-.13-8.12-6.82.51-10.92" transform="translate(0.82 -314)"/><path class="cls-3" d="M1652.07,465.36c-9.33,20.67-23.09,38.37-36,56.88l-2.35-1.49c12.36-18.48,25.77-36.08,35.62-56.09-1-.67-1.87-1.16-2.65-1.74a4.22,4.22,0,0,1-1.48-5.55,3.77,3.77,0,0,1,4.44-2.35c2.32.44,3.27,2.14,3.43,4.34a14.32,14.32,0,0,0-.06,2.16c.11.48.69.86,1.32,1.18-.14-2.84.15-5.39,3.12-6.31a4.26,4.26,0,0,1,5,1.8c1.41,2.15.9,3.58-2.46,7.07l2.06,1.57c2-3.93,3.4-5,5.78-4.35a4.34,4.34,0,0,1,3.35,4.43c.09,2.22-1.55,3.58-5.86,4.63,1.14.5,1.67.94,2.19.92a17.34,17.34,0,0,0,2.37-.57c2.13-.38,4.13.33,4.63,2.36a6.11,6.11,0,0,1-1.12,4.6c-1.38,1.74-3.52,1.74-5.41.39-.8-.57-1.5-1.29-2.67-2.33-16.55,14.66-30.23,32-44.62,49l-2.34-1.48c14.25-17.63,28-35.34,45.42-49.85C1662.82,469.9,1657.64,465.72,1652.07,465.36Zm5.29-3.27,1.19.51,1.55-2.79-1.91-.6Zm-9.55-1.35,1.28-.15,0-3.19-2,.43Zm17,6.91,1,.85,2.34-2.16-1.62-1.17Zm3.7,8.36.42,1.22,3.11-.71-.83-1.82Z" transform="translate(0.82 -314)"/><path class="cls-2" d="M1875.71,783.22s19.37-29.85-17.76-55.5c.22.16-25.26-21.38-53.8,4.27.87.66-2.83-.79-3.57,8.27l-17.86,6.29s-3.4.84-1.36,4.47a13.48,13.48,0,0,0,2.92,4.28s.2,1.54-3.09,3.15c0,0-2.53,1.5-.92,4.8,0,0-4.82,1.81-2.78,5.44l-5.31,6.94s-3.08,3.14,1.36,7.23l9,6.84s4.82,5.74.73,10.18l-8.29,10.85s-.25,3.94,1.48,5.26l26.09,19.94s3.77,2.19,5.33-.75c0,0,14.44-14.41,21.69-18.5l10.21-5.26s18.1-7.49,20.09-10.09c0,0,7-5.62,11-10.83A68,68,0,0,0,1875.71,783.22Z" transform="translate(0.82 -314)"/><path class="cls-2" d="M1760,839.23s-3.49-8.86,5.45-8.9c0,0-3.77-7.69,7.16-7.59l26.09,19.93s4.81,9.18-5,9.26c-.06,0,1.93,9-6.9,7.1,0,0-1,10.27-10.85,3.4,0,0-16.11,5.58-16.33-12.47-.17-.13-8.12-6.82.51-10.92" transform="translate(0.82 -314)"/><path class="cls-3" d="M1829.07,762.36c-9.33,20.67-23.09,38.37-36,56.88l-2.35-1.49c12.36-18.48,25.77-36.08,35.62-56.09-1-.67-1.87-1.16-2.65-1.74a4.22,4.22,0,0,1-1.48-5.55,3.77,3.77,0,0,1,4.44-2.35c2.32.44,3.27,2.14,3.43,4.34a14.32,14.32,0,0,0-.06,2.16c.11.48.69.86,1.32,1.18-.14-2.84.15-5.39,3.12-6.31a4.26,4.26,0,0,1,5,1.8c1.41,2.15.9,3.58-2.46,7.07l2.06,1.57c2-3.93,3.4-5,5.78-4.35a4.34,4.34,0,0,1,3.35,4.43c.09,2.22-1.55,3.58-5.86,4.63,1.14.5,1.67.94,2.19.92a17.34,17.34,0,0,0,2.37-.57c2.13-.38,4.13.33,4.63,2.36a6.11,6.11,0,0,1-1.12,4.6c-1.38,1.74-3.52,1.74-5.41.39-.8-.57-1.5-1.29-2.67-2.33-16.55,14.66-30.23,32-44.62,49l-2.34-1.48c14.25-17.63,28-35.34,45.42-49.85C1839.82,766.9,1834.64,762.72,1829.07,762.36Zm5.29-3.27,1.19.51,1.55-2.79-1.91-.6Zm-9.55-1.35,1.28-.15,0-3.19-2,.43Zm17,6.91,1,.85,2.34-2.16-1.62-1.17Zm3.7,8.36.42,1.22,3.11-.71-.83-1.82Z" transform="translate(0.82 -314)"/><path class="cls-2" d="M1875.71,598.22s19.37-29.85-17.76-55.5c.22.16-25.26-21.38-53.8,4.27.87.66-2.83-.79-3.57,8.27l-17.86,6.29s-3.4.84-1.36,4.47a13.48,13.48,0,0,0,2.92,4.28s.2,1.54-3.09,3.15c0,0-2.53,1.5-.92,4.8,0,0-4.82,1.81-2.78,5.44l-5.31,6.94s-3.08,3.14,1.36,7.23l9,6.84s4.82,5.74.73,10.18l-8.29,10.85s-.25,3.94,1.48,5.26l26.09,19.94s3.77,2.19,5.33-.75c0,0,14.44-14.41,21.69-18.5l10.21-5.26s18.1-7.49,20.09-10.09c0,0,7-5.62,11-10.83A68,68,0,0,0,1875.71,598.22Z" transform="translate(0.82 -314)"/><path class="cls-2" d="M1760,654.23s-3.49-8.86,5.45-8.9c0,0-3.77-7.69,7.16-7.59l26.09,19.93s4.81,9.18-5,9.26c-.06,0,1.93,9-6.9,7.1,0,0-1,10.27-10.85,3.4,0,0-16.11,5.58-16.33-12.47-.17-.13-8.12-6.82.51-10.92" transform="translate(0.82 -314)"/><path class="cls-3" d="M1829.07,577.36c-9.33,20.67-23.09,38.37-36,56.88l-2.35-1.49c12.36-18.48,25.77-36.08,35.62-56.09-1-.67-1.87-1.16-2.65-1.74a4.22,4.22,0,0,1-1.48-5.55,3.77,3.77,0,0,1,4.44-2.35c2.32.44,3.27,2.14,3.43,4.34a14.32,14.32,0,0,0-.06,2.16c.11.48.69.86,1.32,1.18-.14-2.84.15-5.39,3.12-6.31a4.26,4.26,0,0,1,5,1.8c1.41,2.15.9,3.58-2.46,7.07l2.06,1.57c2-3.93,3.4-5,5.78-4.35a4.34,4.34,0,0,1,3.35,4.43c.09,2.22-1.55,3.58-5.86,4.63,1.14.5,1.67.94,2.19.92a17.34,17.34,0,0,0,2.37-.57c2.13-.38,4.13.33,4.63,2.36a6.11,6.11,0,0,1-1.12,4.6c-1.38,1.74-3.52,1.74-5.41.39-.8-.57-1.5-1.29-2.67-2.33-16.55,14.66-30.23,32-44.62,49l-2.34-1.48c14.25-17.63,28-35.34,45.42-49.85C1839.82,581.9,1834.64,577.72,1829.07,577.36Zm5.29-3.27,1.19.51,1.55-2.79-1.91-.6Zm-9.55-1.35,1.28-.15,0-3.19-2,.43Zm17,6.91,1,.85,2.34-2.16-1.62-1.17Zm3.7,8.36.42,1.22,3.11-.71-.83-1.82Z" transform="translate(0.82 -314)"/><path class="cls-2" d="M1875.71,413.22s19.37-29.85-17.76-55.5c.22.16-25.26-21.38-53.8,4.27.87.66-2.83-.79-3.57,8.27l-17.86,6.29s-3.4.84-1.36,4.47a13.48,13.48,0,0,0,2.92,4.28s.2,1.54-3.09,3.15c0,0-2.53,1.5-.92,4.8,0,0-4.82,1.81-2.78,5.44l-5.31,6.94s-3.08,3.14,1.36,7.23l9,6.84s4.82,5.74.73,10.18l-8.29,10.85s-.25,3.94,1.48,5.26l26.09,19.94s3.77,2.19,5.33-.75c0,0,14.44-14.41,21.69-18.5l10.21-5.26s18.1-7.49,20.09-10.09c0,0,7-5.62,11-10.83A68,68,0,0,0,1875.71,413.22Z" transform="translate(0.82 -314)"/><path class="cls-2" d="M1760,469.23s-3.49-8.86,5.45-8.9c0,0-3.77-7.69,7.16-7.59l26.09,19.93s4.81,9.18-5,9.26c-.06-.05,1.93,9-6.9,7.1,0,0-1,10.27-10.85,3.4,0,0-16.11,5.58-16.33-12.47-.17-.13-8.12-6.82.51-10.92" transform="translate(0.82 -314)"/><path class="cls-3" d="M1829.07,392.36c-9.33,20.67-23.09,38.37-36,56.88l-2.35-1.49c12.36-18.48,25.77-36.08,35.62-56.09-1-.67-1.87-1.16-2.65-1.74a4.22,4.22,0,0,1-1.48-5.55,3.77,3.77,0,0,1,4.44-2.35c2.32.44,3.27,2.14,3.43,4.34a14.32,14.32,0,0,0-.06,2.16c.11.48.69.86,1.32,1.18-.14-2.84.15-5.39,3.12-6.31a4.26,4.26,0,0,1,5,1.8c1.41,2.15.9,3.58-2.46,7.07l2.06,1.57c2-3.93,3.4-5,5.78-4.35a4.34,4.34,0,0,1,3.35,4.43c.09,2.22-1.55,3.58-5.86,4.63,1.14.5,1.67.94,2.19.92a17.34,17.34,0,0,0,2.37-.57c2.13-.38,4.13.33,4.63,2.36a6.11,6.11,0,0,1-1.12,4.6c-1.38,1.74-3.52,1.74-5.41.39-.8-.57-1.5-1.29-2.67-2.33-16.55,14.66-30.23,32-44.62,49l-2.34-1.48c14.25-17.63,28-35.34,45.42-49.85C1839.82,396.9,1834.64,392.72,1829.07,392.36Zm5.29-3.27,1.19.51,1.55-2.79-1.91-.6Zm-9.55-1.35,1.28-.15,0-3.19-2,.43Zm17,6.91,1,.85,2.34-2.16-1.62-1.17Zm3.7,8.36.42,1.22,3.11-.71-.83-1.82Z" transform="translate(0.82 -314)"/><text class="cls-4" transform="translate(724.34 292.82)">Le concept</text></svg>