<?xml version="1.0" encoding="UTF-8"?><svg id="Calque_1" xmlns="http://www.w3.org/2000/svg" viewBox="0 0 1920 571"><defs><style>.cls-1{fill:#08aade;opacity:.1;}.cls-2{fill:#fff;}.cls-3{fill:#00abde;font-family:Mali-Bold, Mali;font-size:85px;}.cls-4{fill:none;stroke:#fff;stroke-miterlimit:10;stroke-width:4px;}</style></defs><path class="cls-1" d="M80,0H1840c44.15,0,80,35.85,80,80v491H0V80C0,35.85,35.85,0,80,0Z"/><g><path class="cls-4" d="M166.53,469.22s19.37-29.85-17.77-55.5c.23,.15-25.26-21.38-53.79,4.26,.87,.66-2.83-.79-3.57,8.27l-17.87,6.29s-3.4,.84-1.35,4.47c0,0,.64,1.86,2.91,4.29,0,0,.2,1.53-3.09,3.14,0,0-2.53,1.51-.92,4.8,0,0-4.82,1.81-2.78,5.44l-5.31,6.95s-3.09,3.14,1.36,7.22l8.95,6.84s4.82,5.74,.73,10.19l-8.29,10.85s-.25,3.93,1.48,5.26l26.09,19.93s3.77,2.19,5.32-.75c0,0,14.44-14.41,21.69-18.49l10.21-5.26s18.1-7.49,20.09-10.09c0,0,7.04-5.62,11.02-10.83,0,0,3.32-4.34,4.87-7.28Z"/><path class="cls-4" d="M50.85,525.23s-3.5-8.86,5.45-8.9c-.02-.01-3.77-7.69,7.16-7.6l26.09,19.93s4.82,9.18-4.97,9.26c-.06-.05,1.93,9.04-6.9,7.1,0,0-.97,10.26-10.85,3.4,0,0-16.11,5.57-16.33-12.48-.17-.13-8.12-6.81,.51-10.91"/></g><path class="cls-2" d="M119.89,448.36c-9.34,20.67-23.1,38.37-36.02,56.88l-2.35-1.5c12.37-18.48,25.78-36.07,35.63-56.08-1.03-.68-1.87-1.16-2.65-1.74-1.94-1.45-2.46-3.36-1.49-5.55,.83-1.88,2.42-2.74,4.44-2.35,2.31,.44,3.27,2.14,3.42,4.34,.05,.72-.22,1.48-.06,2.16,.11,.48,.69,.85,1.32,1.18-.15-2.85,.15-5.39,3.12-6.31,1.93-.6,3.83-.03,5.04,1.79,1.42,2.15,.91,3.58-2.45,7.08l2.05,1.57c2.03-3.93,3.4-4.97,5.79-4.35,2.25,.58,3.26,2.26,3.35,4.43,.09,2.22-1.55,3.58-5.86,4.64,1.13,.5,1.67,.94,2.19,.92,.79-.03,1.57-.43,2.37-.57,2.13-.38,4.13,.32,4.63,2.35,.34,1.39-.2,3.45-1.12,4.61-1.38,1.74-3.51,1.74-5.41,.39-.8-.57-1.5-1.29-2.68-2.33-16.55,14.65-30.23,31.99-44.62,48.97-.67-.43-1.32-.84-2.33-1.49,14.25-17.62,28.01-35.34,45.42-49.85-.99-4.65-6.17-8.82-11.73-9.18Zm5.29-3.27l1.19,.5,1.54-2.79-1.91-.6-.83,2.88Zm-9.56-1.35l1.28-.15-.04-3.19-1.95,.42,.71,2.91Zm17.01,6.9l.97,.85,2.34-2.16-1.62-1.17-1.69,2.47Zm3.7,8.36l.42,1.22,3.1-.71-.83-1.82-2.7,1.31Z"/><g><path class="cls-4" d="M166.53,284.22s19.37-29.85-17.77-55.5c.23,.15-25.26-21.38-53.79,4.26,.87,.66-2.83-.79-3.57,8.27l-17.87,6.29s-3.4,.84-1.35,4.47c0,0,.64,1.86,2.91,4.29,0,0,.2,1.53-3.09,3.14,0,0-2.53,1.51-.92,4.8,0,0-4.82,1.81-2.78,5.44l-5.31,6.95s-3.09,3.14,1.36,7.22l8.95,6.84s4.82,5.74,.73,10.19l-8.29,10.85s-.25,3.93,1.48,5.26l26.09,19.93s3.77,2.19,5.32-.75c0,0,14.44-14.41,21.69-18.49l10.21-5.26s18.1-7.49,20.09-10.09c0,0,7.04-5.62,11.02-10.83,0,0,3.32-4.34,4.87-7.28Z"/><path class="cls-4" d="M50.85,340.23s-3.5-8.86,5.45-8.9c-.02-.01-3.77-7.69,7.16-7.6l26.09,19.93s4.82,9.18-4.97,9.26c-.06-.05,1.93,9.04-6.9,7.1,0,0-.97,10.26-10.85,3.4,0,0-16.11,5.57-16.33-12.48-.17-.13-8.12-6.81,.51-10.91"/></g><path class="cls-2" d="M119.89,263.36c-9.34,20.67-23.1,38.37-36.02,56.88l-2.35-1.5c12.37-18.48,25.78-36.07,35.63-56.08-1.03-.68-1.87-1.16-2.65-1.74-1.94-1.45-2.46-3.36-1.49-5.55,.83-1.88,2.42-2.74,4.44-2.35,2.31,.44,3.27,2.14,3.42,4.34,.05,.72-.22,1.48-.06,2.16,.11,.48,.69,.85,1.32,1.18-.15-2.85,.15-5.39,3.12-6.31,1.93-.6,3.83-.03,5.04,1.79,1.42,2.15,.91,3.58-2.45,7.08l2.05,1.57c2.03-3.93,3.4-4.97,5.79-4.35,2.25,.58,3.26,2.26,3.35,4.43,.09,2.22-1.55,3.58-5.86,4.64,1.13,.5,1.67,.94,2.19,.92,.79-.03,1.57-.43,2.37-.57,2.13-.38,4.13,.32,4.63,2.35,.34,1.39-.2,3.45-1.12,4.61-1.38,1.74-3.51,1.74-5.41,.39-.8-.57-1.5-1.29-2.68-2.33-16.55,14.65-30.23,31.99-44.62,48.97-.67-.43-1.32-.84-2.33-1.49,14.25-17.62,28.01-35.34,45.42-49.85-.99-4.65-6.17-8.82-11.73-9.18Zm5.29-3.27l1.19,.5,1.54-2.79-1.91-.6-.83,2.88Zm-9.56-1.35l1.28-.15-.04-3.19-1.95,.42,.71,2.91Zm17.01,6.9l.97,.85,2.34-2.16-1.62-1.17-1.69,2.47Zm3.7,8.36l.42,1.22,3.1-.71-.83-1.82-2.7,1.31Z"/><g><path class="cls-4" d="M166.53,99.22s19.37-29.85-17.77-55.5c.23,.15-25.26-21.38-53.79,4.26,.87,.66-2.83-.79-3.57,8.27l-17.87,6.29s-3.4,.84-1.35,4.47c0,0,.64,1.86,2.91,4.29,0,0,.2,1.53-3.09,3.14,0,0-2.53,1.51-.92,4.8,0,0-4.82,1.81-2.78,5.44l-5.31,6.95s-3.09,3.14,1.36,7.22l8.95,6.84s4.82,5.74,.73,10.19l-8.29,10.85s-.25,3.93,1.48,5.26l26.09,19.93s3.77,2.19,5.32-.75c0,0,14.44-14.41,21.69-18.49l10.21-5.26s18.1-7.49,20.09-10.09c0,0,7.04-5.62,11.02-10.83,0,0,3.32-4.34,4.87-7.28Z"/><path class="cls-4" d="M50.85,155.23s-3.5-8.86,5.45-8.9c-.02-.01-3.77-7.69,7.16-7.6l26.09,19.93s4.82,9.18-4.97,9.26c-.06-.05,1.93,9.04-6.9,7.1,0,0-.97,10.26-10.85,3.4,0,0-16.11,5.57-16.33-12.48-.17-.13-8.12-6.81,.51-10.91"/></g><path class="cls-2" d="M119.89,78.36c-9.34,20.67-23.1,38.37-36.02,56.88l-2.35-1.5c12.37-18.48,25.78-36.07,35.63-56.08-1.03-.68-1.87-1.16-2.65-1.74-1.94-1.45-2.46-3.36-1.49-5.55,.83-1.88,2.42-2.74,4.44-2.35,2.31,.44,3.27,2.14,3.42,4.34,.05,.72-.22,1.48-.06,2.16,.11,.48,.69,.85,1.32,1.18-.15-2.85,.15-5.39,3.12-6.31,1.93-.6,3.83-.03,5.04,1.79,1.42,2.15,.91,3.58-2.45,7.08l2.05,1.57c2.03-3.93,3.4-4.97,5.79-4.35,2.25,.58,3.26,2.26,3.35,4.43,.09,2.22-1.55,3.58-5.86,4.64,1.13,.5,1.67,.94,2.19,.92,.79-.03,1.57-.43,2.37-.57,2.13-.38,4.13,.32,4.63,2.35,.34,1.39-.2,3.45-1.12,4.61-1.38,1.74-3.51,1.74-5.41,.39-.8-.57-1.5-1.29-2.68-2.33-16.55,14.65-30.23,31.99-44.62,48.97-.67-.43-1.32-.84-2.33-1.49,14.25-17.62,28.01-35.34,45.42-49.85-.99-4.65-6.17-8.82-11.73-9.18Zm5.29-3.27l1.19,.5,1.54-2.79-1.91-.6-.83,2.88Zm-9.56-1.35l1.28-.15-.04-3.19-1.95,.42,.71,2.91Zm17.01,6.9l.97,.85,2.34-2.16-1.62-1.17-1.69,2.47Zm3.7,8.36l.42,1.22,3.1-.71-.83-1.82-2.7,1.31Z"/><g><path class="cls-4" d="M331.53,357.22s19.37-29.85-17.77-55.5c.23,.15-25.26-21.38-53.79,4.26,.87,.66-2.83-.79-3.57,8.27l-17.87,6.29s-3.4,.84-1.35,4.47c0,0,.64,1.86,2.91,4.29,0,0,.2,1.53-3.09,3.14,0,0-2.53,1.51-.92,4.8,0,0-4.82,1.81-2.78,5.44l-5.31,6.95s-3.09,3.14,1.36,7.22l8.95,6.84s4.82,5.74,.73,10.19l-8.29,10.85s-.25,3.93,1.48,5.26l26.09,19.93s3.77,2.19,5.32-.75c0,0,14.44-14.41,21.69-18.49l10.21-5.26s18.1-7.49,20.09-10.09c0,0,7.04-5.62,11.02-10.83,0,0,3.32-4.34,4.87-7.28Z"/><path class="cls-4" d="M215.85,413.23s-3.5-8.86,5.45-8.9c-.02-.01-3.77-7.69,7.16-7.6l26.09,19.93s4.82,9.18-4.97,9.26c-.06-.05,1.93,9.04-6.9,7.1,0,0-.97,10.26-10.85,3.4,0,0-16.11,5.57-16.33-12.48-.17-.13-8.12-6.81,.51-10.91"/></g><path class="cls-2" d="M284.89,336.36c-9.34,20.67-23.1,38.37-36.02,56.88l-2.35-1.5c12.37-18.48,25.78-36.07,35.63-56.08-1.03-.68-1.87-1.16-2.65-1.74-1.94-1.45-2.46-3.36-1.49-5.55,.83-1.88,2.42-2.74,4.44-2.35,2.31,.44,3.27,2.14,3.42,4.34,.05,.72-.22,1.48-.06,2.16,.11,.48,.69,.85,1.32,1.18-.15-2.85,.15-5.39,3.12-6.31,1.93-.6,3.83-.03,5.04,1.79,1.42,2.15,.91,3.58-2.45,7.08l2.05,1.57c2.03-3.93,3.4-4.97,5.79-4.35,2.25,.58,3.26,2.26,3.35,4.43,.09,2.22-1.55,3.58-5.86,4.64,1.13,.5,1.67,.94,2.19,.92,.79-.03,1.57-.43,2.37-.57,2.13-.38,4.13,.32,4.63,2.35,.34,1.39-.2,3.45-1.12,4.61-1.38,1.74-3.51,1.74-5.41,.39-.8-.57-1.5-1.29-2.68-2.33-16.55,14.65-30.23,31.99-44.62,48.97-.67-.43-1.32-.84-2.33-1.49,14.25-17.62,28.01-35.34,45.42-49.85-.99-4.65-6.17-8.82-11.73-9.18Zm5.29-3.27l1.19,.5,1.54-2.79-1.91-.6-.83,2.88Zm-9.56-1.35l1.28-.15-.04-3.19-1.95,.42,.71,2.91Zm17.01,6.9l.97,.85,2.34-2.16-1.62-1.17-1.69,2.47Zm3.7,8.36l.42,1.22,3.1-.71-.83-1.82-2.7,1.31Z"/><g><path class="cls-4" d="M331.53,172.22s19.37-29.85-17.77-55.5c.23,.15-25.26-21.38-53.79,4.26,.87,.66-2.83-.79-3.57,8.27l-17.87,6.29s-3.4,.84-1.35,4.47c0,0,.64,1.86,2.91,4.29,0,0,.2,1.53-3.09,3.14,0,0-2.53,1.51-.92,4.8,0,0-4.82,1.81-2.78,5.44l-5.31,6.95s-3.09,3.14,1.36,7.22l8.95,6.84s4.82,5.74,.73,10.19l-8.29,10.85s-.25,3.93,1.48,5.26l26.09,19.93s3.77,2.19,5.32-.75c0,0,14.44-14.41,21.69-18.49l10.21-5.26s18.1-7.49,20.09-10.09c0,0,7.04-5.62,11.02-10.83,0,0,3.32-4.34,4.87-7.28Z"/><path class="cls-4" d="M215.85,228.23s-3.5-8.86,5.45-8.9c-.02-.01-3.77-7.69,7.16-7.6l26.09,19.93s4.82,9.18-4.97,9.26c-.06-.05,1.93,9.04-6.9,7.1,0,0-.97,10.26-10.85,3.4,0,0-16.11,5.57-16.33-12.48-.17-.13-8.12-6.81,.51-10.91"/></g><path class="cls-2" d="M284.89,151.36c-9.34,20.67-23.1,38.37-36.02,56.88l-2.35-1.5c12.37-18.48,25.78-36.07,35.63-56.08-1.03-.68-1.87-1.16-2.65-1.74-1.94-1.45-2.46-3.36-1.49-5.55,.83-1.88,2.42-2.74,4.44-2.35,2.31,.44,3.27,2.14,3.42,4.34,.05,.72-.22,1.48-.06,2.16,.11,.48,.69,.85,1.32,1.18-.15-2.85,.15-5.39,3.12-6.31,1.93-.6,3.83-.03,5.04,1.79,1.42,2.15,.91,3.58-2.45,7.08l2.05,1.57c2.03-3.93,3.4-4.97,5.79-4.35,2.25,.58,3.26,2.26,3.35,4.43,.09,2.22-1.55,3.58-5.86,4.64,1.13,.5,1.67,.94,2.19,.92,.79-.03,1.57-.43,2.37-.57,2.13-.38,4.13,.32,4.63,2.35,.34,1.39-.2,3.45-1.12,4.61-1.38,1.74-3.51,1.74-5.41,.39-.8-.57-1.5-1.29-2.68-2.33-16.55,14.65-30.23,31.99-44.62,48.97-.67-.43-1.32-.84-2.33-1.49,14.25-17.62,28.01-35.34,45.42-49.85-.99-4.65-6.17-8.82-11.73-9.18Zm5.29-3.27l1.19,.5,1.54-2.79-1.91-.6-.83,2.88Zm-9.56-1.35l1.28-.15-.04-3.19-1.95,.42,.71,2.91Zm17.01,6.9l.97,.85,2.34-2.16-1.62-1.17-1.69,2.47Zm3.7,8.36l.42,1.22,3.1-.71-.83-1.82-2.7,1.31Z"/><g><path class="cls-4" d="M508.53,469.22s19.37-29.85-17.77-55.5c.23,.15-25.26-21.38-53.79,4.26,.87,.66-2.83-.79-3.57,8.27l-17.87,6.29s-3.4,.84-1.35,4.47c0,0,.64,1.86,2.91,4.29,0,0,.2,1.53-3.09,3.14,0,0-2.53,1.51-.92,4.8,0,0-4.82,1.81-2.78,5.44l-5.31,6.95s-3.09,3.14,1.36,7.22l8.95,6.84s4.82,5.74,.73,10.19l-8.29,10.85s-.25,3.93,1.48,5.26l26.09,19.93s3.77,2.19,5.32-.75c0,0,14.44-14.41,21.69-18.49l10.21-5.26s18.1-7.49,20.09-10.09c0,0,7.04-5.62,11.02-10.83,0,0,3.32-4.34,4.87-7.28Z"/><path class="cls-4" d="M392.85,525.23s-3.5-8.86,5.45-8.9c-.02-.01-3.77-7.69,7.16-7.6l26.09,19.93s4.82,9.18-4.97,9.26c-.06-.05,1.93,9.04-6.9,7.1,0,0-.97,10.26-10.85,3.4,0,0-16.11,5.57-16.33-12.48-.17-.13-8.12-6.81,.51-10.91"/></g><path class="cls-2" d="M461.89,448.36c-9.34,20.67-23.1,38.37-36.02,56.88l-2.35-1.5c12.37-18.48,25.78-36.07,35.63-56.08-1.03-.68-1.87-1.16-2.65-1.74-1.94-1.45-2.46-3.36-1.49-5.55,.83-1.88,2.42-2.74,4.44-2.35,2.31,.44,3.27,2.14,3.42,4.34,.05,.72-.22,1.48-.06,2.16,.11,.48,.69,.85,1.32,1.18-.15-2.85,.15-5.39,3.12-6.31,1.93-.6,3.83-.03,5.04,1.79,1.42,2.15,.91,3.58-2.45,7.08l2.05,1.57c2.03-3.93,3.4-4.97,5.79-4.35,2.25,.58,3.26,2.26,3.35,4.43,.09,2.22-1.55,3.58-5.86,4.64,1.13,.5,1.67,.94,2.19,.92,.79-.03,1.57-.43,2.37-.57,2.13-.38,4.13,.32,4.63,2.35,.34,1.39-.2,3.45-1.12,4.61-1.38,1.74-3.51,1.74-5.41,.39-.8-.57-1.5-1.29-2.68-2.33-16.55,14.65-30.23,31.99-44.62,48.97-.67-.43-1.32-.84-2.33-1.49,14.25-17.62,28.01-35.34,45.42-49.85-.99-4.65-6.17-8.82-11.73-9.18Zm5.29-3.27l1.19,.5,1.54-2.79-1.91-.6-.83,2.88Zm-9.56-1.35l1.28-.15-.04-3.19-1.95,.42,.71,2.91Zm17.01,6.9l.97,.85,2.34-2.16-1.62-1.17-1.69,2.47Zm3.7,8.36l.42,1.22,3.1-.71-.83-1.82-2.7,1.31Z"/><g><path class="cls-4" d="M508.53,284.22s19.37-29.85-17.77-55.5c.23,.15-25.26-21.38-53.79,4.26,.87,.66-2.83-.79-3.57,8.27l-17.87,6.29s-3.4,.84-1.35,4.47c0,0,.64,1.86,2.91,4.29,0,0,.2,1.53-3.09,3.14,0,0-2.53,1.51-.92,4.8,0,0-4.82,1.81-2.78,5.44l-5.31,6.95s-3.09,3.14,1.36,7.22l8.95,6.84s4.82,5.74,.73,10.19l-8.29,10.85s-.25,3.93,1.48,5.26l26.09,19.93s3.77,2.19,5.32-.75c0,0,14.44-14.41,21.69-18.49l10.21-5.26s18.1-7.49,20.09-10.09c0,0,7.04-5.62,11.02-10.83,0,0,3.32-4.34,4.87-7.28Z"/><path class="cls-4" d="M392.85,340.23s-3.5-8.86,5.45-8.9c-.02-.01-3.77-7.69,7.16-7.6l26.09,19.93s4.82,9.18-4.97,9.26c-.06-.05,1.93,9.04-6.9,7.1,0,0-.97,10.26-10.85,3.4,0,0-16.11,5.57-16.33-12.48-.17-.13-8.12-6.81,.51-10.91"/></g><path class="cls-2" d="M461.89,263.36c-9.34,20.67-23.1,38.37-36.02,56.88l-2.35-1.5c12.37-18.48,25.78-36.07,35.63-56.08-1.03-.68-1.87-1.16-2.65-1.74-1.94-1.45-2.46-3.36-1.49-5.55,.83-1.88,2.42-2.74,4.44-2.35,2.31,.44,3.27,2.14,3.42,4.34,.05,.72-.22,1.48-.06,2.16,.11,.48,.69,.85,1.32,1.18-.15-2.85,.15-5.39,3.12-6.31,1.93-.6,3.83-.03,5.04,1.79,1.42,2.15,.91,3.58-2.45,7.08l2.05,1.57c2.03-3.93,3.4-4.97,5.79-4.35,2.25,.58,3.26,2.26,3.35,4.43,.09,2.22-1.55,3.58-5.86,4.64,1.13,.5,1.67,.94,2.19,.92,.79-.03,1.57-.43,2.37-.57,2.13-.38,4.13,.32,4.63,2.35,.34,1.39-.2,3.45-1.12,4.61-1.38,1.74-3.51,1.74-5.41,.39-.8-.57-1.5-1.29-2.68-2.33-16.55,14.65-30.23,31.99-44.62,48.97-.67-.43-1.32-.84-2.33-1.49,14.25-17.62,28.01-35.34,45.42-49.85-.99-4.65-6.17-8.82-11.73-9.18Zm5.29-3.27l1.19,.5,1.54-2.79-1.91-.6-.83,2.88Zm-9.56-1.35l1.28-.15-.04-3.19-1.95,.42,.71,2.91Zm17.01,6.9l.97,.85,2.34-2.16-1.62-1.17-1.69,2.47Zm3.7,8.36l.42,1.22,3.1-.71-.83-1.82-2.7,1.31Z"/><g><path class="cls-4" d="M508.53,99.22s19.37-29.85-17.77-55.5c.23,.15-25.26-21.38-53.79,4.26,.87,.66-2.83-.79-3.57,8.27l-17.87,6.29s-3.4,.84-1.35,4.47c0,0,.64,1.86,2.91,4.29,0,0,.2,1.53-3.09,3.14,0,0-2.53,1.51-.92,4.8,0,0-4.82,1.81-2.78,5.44l-5.31,6.95s-3.09,3.14,1.36,7.22l8.95,6.84s4.82,5.74,.73,10.19l-8.29,10.85s-.25,3.93,1.48,5.26l26.09,19.93s3.77,2.19,5.32-.75c0,0,14.44-14.41,21.69-18.49l10.21-5.26s18.1-7.49,20.09-10.09c0,0,7.04-5.62,11.02-10.83,0,0,3.32-4.34,4.87-7.28Z"/><path class="cls-4" d="M392.85,155.23s-3.5-8.86,5.45-8.9c-.02-.01-3.77-7.69,7.16-7.6l26.09,19.93s4.82,9.18-4.97,9.26c-.06-.05,1.93,9.04-6.9,7.1,0,0-.97,10.26-10.85,3.4,0,0-16.11,5.57-16.33-12.48-.17-.13-8.12-6.81,.51-10.91"/></g><path class="cls-2" d="M461.89,78.36c-9.34,20.67-23.1,38.37-36.02,56.88l-2.35-1.5c12.37-18.48,25.78-36.07,35.63-56.08-1.03-.68-1.87-1.16-2.65-1.74-1.94-1.45-2.46-3.36-1.49-5.55,.83-1.88,2.42-2.74,4.44-2.35,2.31,.44,3.27,2.14,3.42,4.34,.05,.72-.22,1.48-.06,2.16,.11,.48,.69,.85,1.32,1.18-.15-2.85,.15-5.39,3.12-6.31,1.93-.6,3.83-.03,5.04,1.79,1.42,2.15,.91,3.58-2.45,7.08l2.05,1.57c2.03-3.93,3.4-4.97,5.79-4.35,2.25,.58,3.26,2.26,3.35,4.43,.09,2.22-1.55,3.58-5.86,4.64,1.13,.5,1.67,.94,2.19,.92,.79-.03,1.57-.43,2.37-.57,2.13-.38,4.13,.32,4.63,2.35,.34,1.39-.2,3.45-1.12,4.61-1.38,1.74-3.51,1.74-5.41,.39-.8-.57-1.5-1.29-2.68-2.33-16.55,14.65-30.23,31.99-44.62,48.97-.67-.43-1.32-.84-2.33-1.49,14.25-17.62,28.01-35.34,45.42-49.85-.99-4.65-6.17-8.82-11.73-9.18Zm5.29-3.27l1.19,.5,1.54-2.79-1.91-.6-.83,2.88Zm-9.56-1.35l1.28-.15-.04-3.19-1.95,.42,.71,2.91Zm17.01,6.9l.97,.85,2.34-2.16-1.62-1.17-1.69,2.47Zm3.7,8.36l.42,1.22,3.1-.71-.83-1.82-2.7,1.31Z"/><g><path class="cls-4" d="M673.53,357.22s19.37-29.85-17.77-55.5c.23,.15-25.26-21.38-53.79,4.26,.87,.66-2.83-.79-3.57,8.27l-17.87,6.29s-3.4,.84-1.35,4.47c0,0,.64,1.86,2.91,4.29,0,0,.2,1.53-3.09,3.14,0,0-2.53,1.51-.92,4.8,0,0-4.82,1.81-2.78,5.44l-5.31,6.95s-3.09,3.14,1.36,7.22l8.95,6.84s4.82,5.74,.73,10.19l-8.29,10.85s-.25,3.93,1.48,5.26l26.09,19.93s3.77,2.19,5.32-.75c0,0,14.44-14.41,21.69-18.49l10.21-5.26s18.1-7.49,20.09-10.09c0,0,7.04-5.62,11.02-10.83,0,0,3.32-4.34,4.87-7.28Z"/><path class="cls-4" d="M557.85,413.23s-3.5-8.86,5.45-8.9c-.02-.01-3.77-7.69,7.16-7.6l26.09,19.93s4.82,9.18-4.97,9.26c-.06-.05,1.93,9.04-6.9,7.1,0,0-.97,10.26-10.85,3.4,0,0-16.11,5.57-16.33-12.48-.17-.13-8.12-6.81,.51-10.91"/></g><path class="cls-2" d="M626.89,336.36c-9.34,20.67-23.1,38.37-36.02,56.88l-2.35-1.5c12.37-18.48,25.78-36.07,35.63-56.08-1.03-.68-1.87-1.16-2.65-1.74-1.94-1.45-2.46-3.36-1.49-5.55,.83-1.88,2.42-2.74,4.44-2.35,2.31,.44,3.27,2.14,3.42,4.34,.05,.72-.22,1.48-.06,2.16,.11,.48,.69,.85,1.32,1.18-.15-2.85,.15-5.39,3.12-6.31,1.93-.6,3.83-.03,5.04,1.79,1.42,2.15,.91,3.58-2.45,7.08l2.05,1.57c2.03-3.93,3.4-4.97,5.79-4.35,2.25,.58,3.26,2.26,3.35,4.43,.09,2.22-1.55,3.58-5.86,4.64,1.13,.5,1.67,.94,2.19,.92,.79-.03,1.57-.43,2.37-.57,2.13-.38,4.13,.32,4.63,2.35,.34,1.39-.2,3.45-1.12,4.61-1.38,1.74-3.51,1.74-5.41,.39-.8-.57-1.5-1.29-2.68-2.33-16.55,14.65-30.23,31.99-44.62,48.97-.67-.43-1.32-.84-2.33-1.49,14.25-17.62,28.01-35.34,45.42-49.85-.99-4.65-6.17-8.82-11.73-9.18Zm5.29-3.27l1.19,.5,1.54-2.79-1.91-.6-.83,2.88Zm-9.56-1.35l1.28-.15-.04-3.19-1.95,.42,.71,2.91Zm17.01,6.9l.97,.85,2.34-2.16-1.62-1.17-1.69,2.47Zm3.7,8.36l.42,1.22,3.1-.71-.83-1.82-2.7,1.31Z"/><g><path class="cls-4" d="M673.53,172.22s19.37-29.85-17.77-55.5c.23,.15-25.26-21.38-53.79,4.26,.87,.66-2.83-.79-3.57,8.27l-17.87,6.29s-3.4,.84-1.35,4.47c0,0,.64,1.86,2.91,4.29,0,0,.2,1.53-3.09,3.14,0,0-2.53,1.51-.92,4.8,0,0-4.82,1.81-2.78,5.44l-5.31,6.95s-3.09,3.14,1.36,7.22l8.95,6.84s4.82,5.74,.73,10.19l-8.29,10.85s-.25,3.93,1.48,5.26l26.09,19.93s3.77,2.19,5.32-.75c0,0,14.44-14.41,21.69-18.49l10.21-5.26s18.1-7.49,20.09-10.09c0,0,7.04-5.62,11.02-10.83,0,0,3.32-4.34,4.87-7.28Z"/><path class="cls-4" d="M557.85,228.23s-3.5-8.86,5.45-8.9c-.02-.01-3.77-7.69,7.16-7.6l26.09,19.93s4.82,9.18-4.97,9.26c-.06-.05,1.93,9.04-6.9,7.1,0,0-.97,10.26-10.85,3.4,0,0-16.11,5.57-16.33-12.48-.17-.13-8.12-6.81,.51-10.91"/></g><path class="cls-2" d="M626.89,151.36c-9.34,20.67-23.1,38.37-36.02,56.88l-2.35-1.5c12.37-18.48,25.78-36.07,35.63-56.08-1.03-.68-1.87-1.16-2.65-1.74-1.94-1.45-2.46-3.36-1.49-5.55,.83-1.88,2.42-2.74,4.44-2.35,2.31,.44,3.27,2.14,3.42,4.34,.05,.72-.22,1.48-.06,2.16,.11,.48,.69,.85,1.32,1.18-.15-2.85,.15-5.39,3.12-6.31,1.93-.6,3.83-.03,5.04,1.79,1.42,2.15,.91,3.58-2.45,7.08l2.05,1.57c2.03-3.93,3.4-4.97,5.79-4.35,2.25,.58,3.26,2.26,3.35,4.43,.09,2.22-1.55,3.58-5.86,4.64,1.13,.5,1.67,.94,2.19,.92,.79-.03,1.57-.43,2.37-.57,2.13-.38,4.13,.32,4.63,2.35,.34,1.39-.2,3.45-1.12,4.61-1.38,1.74-3.51,1.74-5.41,.39-.8-.57-1.5-1.29-2.68-2.33-16.55,14.65-30.23,31.99-44.62,48.97-.67-.43-1.32-.84-2.33-1.49,14.25-17.62,28.01-35.34,45.42-49.85-.99-4.65-6.17-8.82-11.73-9.18Zm5.29-3.27l1.19,.5,1.54-2.79-1.91-.6-.83,2.88Zm-9.56-1.35l1.28-.15-.04-3.19-1.95,.42,.71,2.91Zm17.01,6.9l.97,.85,2.34-2.16-1.62-1.17-1.69,2.47Zm3.7,8.36l.42,1.22,3.1-.71-.83-1.82-2.7,1.31Z"/><g><path class="cls-4" d="M850.53,469.22s19.37-29.85-17.77-55.5c.23,.15-25.26-21.38-53.79,4.26,.87,.66-2.83-.79-3.57,8.27l-17.87,6.29s-3.4,.84-1.35,4.47c0,0,.64,1.86,2.91,4.29,0,0,.2,1.53-3.09,3.14,0,0-2.53,1.51-.92,4.8,0,0-4.82,1.81-2.78,5.44l-5.31,6.95s-3.09,3.14,1.36,7.22l8.95,6.84s4.82,5.74,.73,10.19l-8.29,10.85s-.25,3.93,1.48,5.26l26.09,19.93s3.77,2.19,5.32-.75c0,0,14.44-14.41,21.69-18.49l10.21-5.26s18.1-7.49,20.09-10.09c0,0,7.04-5.62,11.02-10.83,0,0,3.32-4.34,4.87-7.28Z"/><path class="cls-4" d="M734.85,525.23s-3.5-8.86,5.45-8.9c-.02-.01-3.77-7.69,7.16-7.6l26.09,19.93s4.82,9.18-4.97,9.26c-.06-.05,1.93,9.04-6.9,7.1,0,0-.97,10.26-10.85,3.4,0,0-16.11,5.57-16.33-12.48-.17-.13-8.12-6.81,.51-10.91"/></g><path class="cls-2" d="M803.89,448.36c-9.34,20.67-23.1,38.37-36.02,56.88l-2.35-1.5c12.37-18.48,25.78-36.07,35.63-56.08-1.03-.68-1.87-1.16-2.65-1.74-1.94-1.45-2.46-3.36-1.49-5.55,.83-1.88,2.42-2.74,4.44-2.35,2.31,.44,3.27,2.14,3.42,4.34,.05,.72-.22,1.48-.06,2.16,.11,.48,.69,.85,1.32,1.18-.15-2.85,.15-5.39,3.12-6.31,1.93-.6,3.83-.03,5.04,1.79,1.42,2.15,.91,3.58-2.45,7.08l2.05,1.57c2.03-3.93,3.4-4.97,5.79-4.35,2.25,.58,3.26,2.26,3.35,4.43,.09,2.22-1.55,3.58-5.86,4.64,1.13,.5,1.67,.94,2.19,.92,.79-.03,1.57-.43,2.37-.57,2.13-.38,4.13,.32,4.63,2.35,.34,1.39-.2,3.45-1.12,4.61-1.38,1.74-3.51,1.74-5.41,.39-.8-.57-1.5-1.29-2.68-2.33-16.55,14.65-30.23,31.99-44.62,48.97-.67-.43-1.32-.84-2.33-1.49,14.25-17.62,28.01-35.34,45.42-49.85-.99-4.65-6.17-8.82-11.73-9.18Zm5.29-3.27l1.19,.5,1.54-2.79-1.91-.6-.83,2.88Zm-9.56-1.35l1.28-.15-.04-3.19-1.95,.42,.71,2.91Zm17.01,6.9l.97,.85,2.34-2.16-1.62-1.17-1.69,2.47Zm3.7,8.36l.42,1.22,3.1-.71-.83-1.82-2.7,1.31Z"/><g><path class="cls-4" d="M850.53,284.22s19.37-29.85-17.77-55.5c.23,.15-25.26-21.38-53.79,4.26,.87,.66-2.83-.79-3.57,8.27l-17.87,6.29s-3.4,.84-1.35,4.47c0,0,.64,1.86,2.91,4.29,0,0,.2,1.53-3.09,3.14,0,0-2.53,1.51-.92,4.8,0,0-4.82,1.81-2.78,5.44l-5.31,6.95s-3.09,3.14,1.36,7.22l8.95,6.84s4.82,5.74,.73,10.19l-8.29,10.85s-.25,3.93,1.48,5.26l26.09,19.93s3.77,2.19,5.32-.75c0,0,14.44-14.41,21.69-18.49l10.21-5.26s18.1-7.49,20.09-10.09c0,0,7.04-5.62,11.02-10.83,0,0,3.32-4.34,4.87-7.28Z"/><path class="cls-4" d="M734.85,340.23s-3.5-8.86,5.45-8.9c-.02-.01-3.77-7.69,7.16-7.6l26.09,19.93s4.82,9.18-4.97,9.26c-.06-.05,1.93,9.04-6.9,7.1,0,0-.97,10.26-10.85,3.4,0,0-16.11,5.57-16.33-12.48-.17-.13-8.12-6.81,.51-10.91"/></g><path class="cls-2" d="M803.89,263.36c-9.34,20.67-23.1,38.37-36.02,56.88l-2.35-1.5c12.37-18.48,25.78-36.07,35.63-56.08-1.03-.68-1.87-1.16-2.65-1.74-1.94-1.45-2.46-3.36-1.49-5.55,.83-1.88,2.42-2.74,4.44-2.35,2.31,.44,3.27,2.14,3.42,4.34,.05,.72-.22,1.48-.06,2.16,.11,.48,.69,.85,1.32,1.18-.15-2.85,.15-5.39,3.12-6.31,1.93-.6,3.83-.03,5.04,1.79,1.42,2.15,.91,3.58-2.45,7.08l2.05,1.57c2.03-3.93,3.4-4.97,5.79-4.35,2.25,.58,3.26,2.26,3.35,4.43,.09,2.22-1.55,3.58-5.86,4.64,1.13,.5,1.67,.94,2.19,.92,.79-.03,1.57-.43,2.37-.57,2.13-.38,4.13,.32,4.63,2.35,.34,1.39-.2,3.45-1.12,4.61-1.38,1.74-3.51,1.74-5.41,.39-.8-.57-1.5-1.29-2.68-2.33-16.55,14.65-30.23,31.99-44.62,48.97-.67-.43-1.32-.84-2.33-1.49,14.25-17.62,28.01-35.34,45.42-49.85-.99-4.65-6.17-8.82-11.73-9.18Zm5.29-3.27l1.19,.5,1.54-2.79-1.91-.6-.83,2.88Zm-9.56-1.35l1.28-.15-.04-3.19-1.95,.42,.71,2.91Zm17.01,6.9l.97,.85,2.34-2.16-1.62-1.17-1.69,2.47Zm3.7,8.36l.42,1.22,3.1-.71-.83-1.82-2.7,1.31Z"/><g><path class="cls-4" d="M850.53,99.22s19.37-29.85-17.77-55.5c.23,.15-25.26-21.38-53.79,4.26,.87,.66-2.83-.79-3.57,8.27l-17.87,6.29s-3.4,.84-1.35,4.47c0,0,.64,1.86,2.91,4.29,0,0,.2,1.53-3.09,3.14,0,0-2.53,1.51-.92,4.8,0,0-4.82,1.81-2.78,5.44l-5.31,6.95s-3.09,3.14,1.36,7.22l8.95,6.84s4.82,5.74,.73,10.19l-8.29,10.85s-.25,3.93,1.48,5.26l26.09,19.93s3.77,2.19,5.32-.75c0,0,14.44-14.41,21.69-18.49l10.21-5.26s18.1-7.49,20.09-10.09c0,0,7.04-5.62,11.02-10.83,0,0,3.32-4.34,4.87-7.28Z"/><path class="cls-4" d="M734.85,155.23s-3.5-8.86,5.45-8.9c-.02-.01-3.77-7.69,7.16-7.6l26.09,19.93s4.82,9.18-4.97,9.26c-.06-.05,1.93,9.04-6.9,7.1,0,0-.97,10.26-10.85,3.4,0,0-16.11,5.57-16.33-12.48-.17-.13-8.12-6.81,.51-10.91"/></g><path class="cls-2" d="M803.89,78.36c-9.34,20.67-23.1,38.37-36.02,56.88l-2.35-1.5c12.37-18.48,25.78-36.07,35.63-56.08-1.03-.68-1.87-1.16-2.65-1.74-1.94-1.45-2.46-3.36-1.49-5.55,.83-1.88,2.42-2.74,4.44-2.35,2.31,.44,3.27,2.14,3.42,4.34,.05,.72-.22,1.48-.06,2.16,.11,.48,.69,.85,1.32,1.18-.15-2.85,.15-5.39,3.12-6.31,1.93-.6,3.83-.03,5.04,1.79,1.42,2.15,.91,3.58-2.45,7.08l2.05,1.57c2.03-3.93,3.4-4.97,5.79-4.35,2.25,.58,3.26,2.26,3.35,4.43,.09,2.22-1.55,3.58-5.86,4.64,1.13,.5,1.67,.94,2.19,.92,.79-.03,1.57-.43,2.37-.57,2.13-.38,4.13,.32,4.63,2.35,.34,1.39-.2,3.45-1.12,4.61-1.38,1.74-3.51,1.74-5.41,.39-.8-.57-1.5-1.29-2.68-2.33-16.55,14.65-30.23,31.99-44.62,48.97-.67-.43-1.32-.84-2.33-1.49,14.25-17.62,28.01-35.34,45.42-49.85-.99-4.65-6.17-8.82-11.73-9.18Zm5.29-3.27l1.19,.5,1.54-2.79-1.91-.6-.83,2.88Zm-9.56-1.35l1.28-.15-.04-3.19-1.95,.42,.71,2.91Zm17.01,6.9l.97,.85,2.34-2.16-1.62-1.17-1.69,2.47Zm3.7,8.36l.42,1.22,3.1-.71-.83-1.82-2.7,1.31Z"/><g><path class="cls-4" d="M1015.53,357.22s19.37-29.85-17.77-55.5c.23,.15-25.26-21.38-53.79,4.26,.87,.66-2.83-.79-3.57,8.27l-17.87,6.29s-3.4,.84-1.35,4.47c0,0,.64,1.86,2.91,4.29,0,0,.2,1.53-3.09,3.14,0,0-2.53,1.51-.92,4.8,0,0-4.82,1.81-2.78,5.44l-5.31,6.95s-3.09,3.14,1.36,7.22l8.95,6.84s4.82,5.74,.73,10.19l-8.29,10.85s-.25,3.93,1.48,5.26l26.09,19.93s3.77,2.19,5.32-.75c0,0,14.44-14.41,21.69-18.49l10.21-5.26s18.1-7.49,20.09-10.09c0,0,7.04-5.62,11.02-10.83,0,0,3.32-4.34,4.87-7.28Z"/><path class="cls-4" d="M899.85,413.23s-3.5-8.86,5.45-8.9c-.02-.01-3.77-7.69,7.16-7.6l26.09,19.93s4.82,9.18-4.97,9.26c-.06-.05,1.93,9.04-6.9,7.1,0,0-.97,10.26-10.85,3.4,0,0-16.11,5.57-16.33-12.48-.17-.13-8.12-6.81,.51-10.91"/></g><path class="cls-2" d="M968.89,336.36c-9.34,20.67-23.1,38.37-36.02,56.88l-2.35-1.5c12.37-18.48,25.78-36.07,35.63-56.08-1.03-.68-1.87-1.16-2.65-1.74-1.94-1.45-2.46-3.36-1.49-5.55,.83-1.88,2.42-2.74,4.44-2.35,2.31,.44,3.27,2.14,3.42,4.34,.05,.72-.22,1.48-.06,2.16,.11,.48,.69,.85,1.32,1.18-.15-2.85,.15-5.39,3.12-6.31,1.93-.6,3.83-.03,5.04,1.79,1.42,2.15,.91,3.58-2.45,7.08l2.05,1.57c2.03-3.93,3.4-4.97,5.79-4.35,2.25,.58,3.26,2.26,3.35,4.43,.09,2.22-1.55,3.58-5.86,4.64,1.13,.5,1.67,.94,2.19,.92,.79-.03,1.57-.43,2.37-.57,2.13-.38,4.13,.32,4.63,2.35,.34,1.39-.2,3.45-1.12,4.61-1.38,1.74-3.51,1.74-5.41,.39-.8-.57-1.5-1.29-2.68-2.33-16.55,14.65-30.23,31.99-44.62,48.97-.67-.43-1.32-.84-2.33-1.49,14.25-17.62,28.01-35.34,45.42-49.85-.99-4.65-6.17-8.82-11.73-9.18Zm5.29-3.27l1.19,.5,1.54-2.79-1.91-.6-.83,2.88Zm-9.56-1.35l1.28-.15-.04-3.19-1.95,.42,.71,2.91Zm17.01,6.9l.97,.85,2.34-2.16-1.62-1.17-1.69,2.47Zm3.7,8.36l.42,1.22,3.1-.71-.83-1.82-2.7,1.31Z"/><g><path class="cls-4" d="M1015.53,172.22s19.37-29.85-17.77-55.5c.23,.15-25.26-21.38-53.79,4.26,.87,.66-2.83-.79-3.57,8.27l-17.87,6.29s-3.4,.84-1.35,4.47c0,0,.64,1.86,2.91,4.29,0,0,.2,1.53-3.09,3.14,0,0-2.53,1.51-.92,4.8,0,0-4.82,1.81-2.78,5.44l-5.31,6.95s-3.09,3.14,1.36,7.22l8.95,6.84s4.82,5.74,.73,10.19l-8.29,10.85s-.25,3.93,1.48,5.26l26.09,19.93s3.77,2.19,5.32-.75c0,0,14.44-14.41,21.69-18.49l10.21-5.26s18.1-7.49,20.09-10.09c0,0,7.04-5.62,11.02-10.83,0,0,3.32-4.34,4.87-7.28Z"/><path class="cls-4" d="M899.85,228.23s-3.5-8.86,5.45-8.9c-.02-.01-3.77-7.69,7.16-7.6l26.09,19.93s4.82,9.18-4.97,9.26c-.06-.05,1.93,9.04-6.9,7.1,0,0-.97,10.26-10.85,3.4,0,0-16.11,5.57-16.33-12.48-.17-.13-8.12-6.81,.51-10.91"/></g><path class="cls-2" d="M968.89,151.36c-9.34,20.67-23.1,38.37-36.02,56.88l-2.35-1.5c12.37-18.48,25.78-36.07,35.63-56.08-1.03-.68-1.87-1.16-2.65-1.74-1.94-1.45-2.46-3.36-1.49-5.55,.83-1.88,2.42-2.74,4.44-2.35,2.31,.44,3.27,2.14,3.42,4.34,.05,.72-.22,1.48-.06,2.16,.11,.48,.69,.85,1.32,1.18-.15-2.85,.15-5.39,3.12-6.31,1.93-.6,3.83-.03,5.04,1.79,1.42,2.15,.91,3.58-2.45,7.08l2.05,1.57c2.03-3.93,3.4-4.97,5.79-4.35,2.25,.58,3.26,2.26,3.35,4.43,.09,2.22-1.55,3.58-5.86,4.64,1.13,.5,1.67,.94,2.19,.92,.79-.03,1.57-.43,2.37-.57,2.13-.38,4.13,.32,4.63,2.35,.34,1.39-.2,3.45-1.12,4.61-1.38,1.74-3.51,1.74-5.41,.39-.8-.57-1.5-1.29-2.68-2.33-16.55,14.65-30.23,31.99-44.62,48.97-.67-.43-1.32-.84-2.33-1.49,14.25-17.62,28.01-35.34,45.42-49.85-.99-4.65-6.17-8.82-11.73-9.18Zm5.29-3.27l1.19,.5,1.54-2.79-1.91-.6-.83,2.88Zm-9.56-1.35l1.28-.15-.04-3.19-1.95,.42,.71,2.91Zm17.01,6.9l.97,.85,2.34-2.16-1.62-1.17-1.69,2.47Zm3.7,8.36l.42,1.22,3.1-.71-.83-1.82-2.7,1.31Z"/><g><path class="cls-4" d="M1192.53,469.22s19.37-29.85-17.77-55.5c.23,.15-25.26-21.38-53.79,4.26,.87,.66-2.83-.79-3.57,8.27l-17.87,6.29s-3.4,.84-1.35,4.47c0,0,.64,1.86,2.91,4.29,0,0,.2,1.53-3.09,3.14,0,0-2.53,1.51-.92,4.8,0,0-4.82,1.81-2.78,5.44l-5.31,6.95s-3.09,3.14,1.36,7.22l8.95,6.84s4.82,5.74,.73,10.19l-8.29,10.85s-.25,3.93,1.48,5.26l26.09,19.93s3.77,2.19,5.32-.75c0,0,14.44-14.41,21.69-18.49l10.21-5.26s18.1-7.49,20.09-10.09c0,0,7.04-5.62,11.02-10.83,0,0,3.32-4.34,4.87-7.28Z"/><path class="cls-4" d="M1076.85,525.23s-3.5-8.86,5.45-8.9c-.02-.01-3.77-7.69,7.16-7.6l26.09,19.93s4.82,9.18-4.97,9.26c-.06-.05,1.93,9.04-6.9,7.1,0,0-.97,10.26-10.85,3.4,0,0-16.11,5.57-16.33-12.48-.17-.13-8.12-6.81,.51-10.91"/></g><path class="cls-2" d="M1145.89,448.36c-9.34,20.67-23.1,38.37-36.02,56.88l-2.35-1.5c12.37-18.48,25.78-36.07,35.63-56.08-1.03-.68-1.87-1.16-2.65-1.74-1.94-1.45-2.46-3.36-1.49-5.55,.83-1.88,2.42-2.74,4.44-2.35,2.31,.44,3.27,2.14,3.42,4.34,.05,.72-.22,1.48-.06,2.16,.11,.48,.69,.85,1.32,1.18-.15-2.85,.15-5.39,3.12-6.31,1.93-.6,3.83-.03,5.04,1.79,1.42,2.15,.91,3.58-2.45,7.08l2.05,1.57c2.03-3.93,3.4-4.97,5.79-4.35,2.25,.58,3.26,2.26,3.35,4.43,.09,2.22-1.55,3.58-5.86,4.64,1.13,.5,1.67,.94,2.19,.92,.79-.03,1.57-.43,2.37-.57,2.13-.38,4.13,.32,4.63,2.35,.34,1.39-.2,3.45-1.12,4.61-1.38,1.74-3.51,1.74-5.41,.39-.8-.57-1.5-1.29-2.68-2.33-16.55,14.65-30.23,31.99-44.62,48.97-.67-.43-1.32-.84-2.33-1.49,14.25-17.62,28.01-35.34,45.42-49.85-.99-4.65-6.17-8.82-11.73-9.18Zm5.29-3.27l1.19,.5,1.54-2.79-1.91-.6-.83,2.88Zm-9.56-1.35l1.28-.15-.04-3.19-1.95,.42,.71,2.91Zm17.01,6.9l.97,.85,2.34-2.16-1.62-1.17-1.69,2.47Zm3.7,8.36l.42,1.22,3.1-.71-.83-1.82-2.7,1.31Z"/><g><path class="cls-4" d="M1192.53,284.22s19.37-29.85-17.77-55.5c.23,.15-25.26-21.38-53.79,4.26,.87,.66-2.83-.79-3.57,8.27l-17.87,6.29s-3.4,.84-1.35,4.47c0,0,.64,1.86,2.91,4.29,0,0,.2,1.53-3.09,3.14,0,0-2.53,1.51-.92,4.8,0,0-4.82,1.81-2.78,5.44l-5.31,6.95s-3.09,3.14,1.36,7.22l8.95,6.84s4.82,5.74,.73,10.19l-8.29,10.85s-.25,3.93,1.48,5.26l26.09,19.93s3.77,2.19,5.32-.75c0,0,14.44-14.41,21.69-18.49l10.21-5.26s18.1-7.49,20.09-10.09c0,0,7.04-5.62,11.02-10.83,0,0,3.32-4.34,4.87-7.28Z"/><path class="cls-4" d="M1076.85,340.23s-3.5-8.86,5.45-8.9c-.02-.01-3.77-7.69,7.16-7.6l26.09,19.93s4.82,9.18-4.97,9.26c-.06-.05,1.93,9.04-6.9,7.1,0,0-.97,10.26-10.85,3.4,0,0-16.11,5.57-16.33-12.48-.17-.13-8.12-6.81,.51-10.91"/></g><path class="cls-2" d="M1145.89,263.36c-9.34,20.67-23.1,38.37-36.02,56.88l-2.35-1.5c12.37-18.48,25.78-36.07,35.63-56.08-1.03-.68-1.87-1.16-2.65-1.74-1.94-1.45-2.46-3.36-1.49-5.55,.83-1.88,2.42-2.74,4.44-2.35,2.31,.44,3.27,2.14,3.42,4.34,.05,.72-.22,1.48-.06,2.16,.11,.48,.69,.85,1.32,1.18-.15-2.85,.15-5.39,3.12-6.31,1.93-.6,3.83-.03,5.04,1.79,1.42,2.15,.91,3.58-2.45,7.08l2.05,1.57c2.03-3.93,3.4-4.97,5.79-4.35,2.25,.58,3.26,2.26,3.35,4.43,.09,2.22-1.55,3.58-5.86,4.64,1.13,.5,1.67,.94,2.19,.92,.79-.03,1.57-.43,2.37-.57,2.13-.38,4.13,.32,4.63,2.35,.34,1.39-.2,3.45-1.12,4.61-1.38,1.74-3.51,1.74-5.41,.39-.8-.57-1.5-1.29-2.68-2.33-16.55,14.65-30.23,31.99-44.62,48.97-.67-.43-1.32-.84-2.33-1.49,14.25-17.62,28.01-35.34,45.42-49.85-.99-4.65-6.17-8.82-11.73-9.18Zm5.29-3.27l1.19,.5,1.54-2.79-1.91-.6-.83,2.88Zm-9.56-1.35l1.28-.15-.04-3.19-1.95,.42,.71,2.91Zm17.01,6.9l.97,.85,2.34-2.16-1.62-1.17-1.69,2.47Zm3.7,8.36l.42,1.22,3.1-.71-.83-1.82-2.7,1.31Z"/><g><path class="cls-4" d="M1192.53,99.22s19.37-29.85-17.77-55.5c.23,.15-25.26-21.38-53.79,4.26,.87,.66-2.83-.79-3.57,8.27l-17.87,6.29s-3.4,.84-1.35,4.47c0,0,.64,1.86,2.91,4.29,0,0,.2,1.53-3.09,3.14,0,0-2.53,1.51-.92,4.8,0,0-4.82,1.81-2.78,5.44l-5.31,6.95s-3.09,3.14,1.36,7.22l8.95,6.84s4.82,5.74,.73,10.19l-8.29,10.85s-.25,3.93,1.48,5.26l26.09,19.93s3.77,2.19,5.32-.75c0,0,14.44-14.41,21.69-18.49l10.21-5.26s18.1-7.49,20.09-10.09c0,0,7.04-5.62,11.02-10.83,0,0,3.32-4.34,4.87-7.28Z"/><path class="cls-4" d="M1076.85,155.23s-3.5-8.86,5.45-8.9c-.02-.01-3.77-7.69,7.16-7.6l26.09,19.93s4.82,9.18-4.97,9.26c-.06-.05,1.93,9.04-6.9,7.1,0,0-.97,10.26-10.85,3.4,0,0-16.11,5.57-16.33-12.48-.17-.13-8.12-6.81,.51-10.91"/></g><path class="cls-2" d="M1145.89,78.36c-9.34,20.67-23.1,38.37-36.02,56.88l-2.35-1.5c12.37-18.48,25.78-36.07,35.63-56.08-1.03-.68-1.87-1.16-2.65-1.74-1.94-1.45-2.46-3.36-1.49-5.55,.83-1.88,2.42-2.74,4.44-2.35,2.31,.44,3.27,2.14,3.42,4.34,.05,.72-.22,1.48-.06,2.16,.11,.48,.69,.85,1.32,1.18-.15-2.85,.15-5.39,3.12-6.31,1.93-.6,3.83-.03,5.04,1.79,1.42,2.15,.91,3.58-2.45,7.08l2.05,1.57c2.03-3.93,3.4-4.97,5.79-4.35,2.25,.58,3.26,2.26,3.35,4.43,.09,2.22-1.55,3.58-5.86,4.64,1.13,.5,1.67,.94,2.19,.92,.79-.03,1.57-.43,2.37-.57,2.13-.38,4.13,.32,4.63,2.35,.34,1.39-.2,3.45-1.12,4.61-1.38,1.74-3.51,1.74-5.41,.39-.8-.57-1.5-1.29-2.68-2.33-16.55,14.65-30.23,31.99-44.62,48.97-.67-.43-1.32-.84-2.33-1.49,14.25-17.62,28.01-35.34,45.42-49.85-.99-4.65-6.17-8.82-11.73-9.18Zm5.29-3.27l1.19,.5,1.54-2.79-1.91-.6-.83,2.88Zm-9.56-1.35l1.28-.15-.04-3.19-1.95,.42,.71,2.91Zm17.01,6.9l.97,.85,2.34-2.16-1.62-1.17-1.69,2.47Zm3.7,8.36l.42,1.22,3.1-.71-.83-1.82-2.7,1.31Z"/><g><path class="cls-4" d="M1357.53,357.22s19.37-29.85-17.77-55.5c.23,.15-25.26-21.38-53.79,4.26,.87,.66-2.83-.79-3.57,8.27l-17.87,6.29s-3.4,.84-1.35,4.47c0,0,.64,1.86,2.91,4.29,0,0,.2,1.53-3.09,3.14,0,0-2.53,1.51-.92,4.8,0,0-4.82,1.81-2.78,5.44l-5.31,6.95s-3.09,3.14,1.36,7.22l8.95,6.84s4.82,5.74,.73,10.19l-8.29,10.85s-.25,3.93,1.48,5.26l26.09,19.93s3.77,2.19,5.32-.75c0,0,14.44-14.41,21.69-18.49l10.21-5.26s18.1-7.49,20.09-10.09c0,0,7.04-5.62,11.02-10.83,0,0,3.32-4.34,4.87-7.28Z"/><path class="cls-4" d="M1241.85,413.23s-3.5-8.86,5.45-8.9c-.02-.01-3.77-7.69,7.16-7.6l26.09,19.93s4.82,9.18-4.97,9.26c-.06-.05,1.93,9.04-6.9,7.1,0,0-.97,10.26-10.85,3.4,0,0-16.11,5.57-16.33-12.48-.17-.13-8.12-6.81,.51-10.91"/></g><path class="cls-2" d="M1310.89,336.36c-9.34,20.67-23.1,38.37-36.02,56.88l-2.35-1.5c12.37-18.48,25.78-36.07,35.63-56.08-1.03-.68-1.87-1.16-2.65-1.74-1.94-1.45-2.46-3.36-1.49-5.55,.83-1.88,2.42-2.74,4.44-2.35,2.31,.44,3.27,2.14,3.42,4.34,.05,.72-.22,1.48-.06,2.16,.11,.48,.69,.85,1.32,1.18-.15-2.85,.15-5.39,3.12-6.31,1.93-.6,3.83-.03,5.04,1.79,1.42,2.15,.91,3.58-2.45,7.08l2.05,1.57c2.03-3.93,3.4-4.97,5.79-4.35,2.25,.58,3.26,2.26,3.35,4.43,.09,2.22-1.55,3.58-5.86,4.64,1.13,.5,1.67,.94,2.19,.92,.79-.03,1.57-.43,2.37-.57,2.13-.38,4.13,.32,4.63,2.35,.34,1.39-.2,3.45-1.12,4.61-1.38,1.74-3.51,1.74-5.41,.39-.8-.57-1.5-1.29-2.68-2.33-16.55,14.65-30.23,31.99-44.62,48.97-.67-.43-1.32-.84-2.33-1.49,14.25-17.62,28.01-35.34,45.42-49.85-.99-4.65-6.17-8.82-11.73-9.18Zm5.29-3.27l1.19,.5,1.54-2.79-1.91-.6-.83,2.88Zm-9.56-1.35l1.28-.15-.04-3.19-1.95,.42,.71,2.91Zm17.01,6.9l.97,.85,2.34-2.16-1.62-1.17-1.69,2.47Zm3.7,8.36l.42,1.22,3.1-.71-.83-1.82-2.7,1.31Z"/><g><path class="cls-4" d="M1357.53,172.22s19.37-29.85-17.77-55.5c.23,.15-25.26-21.38-53.79,4.26,.87,.66-2.83-.79-3.57,8.27l-17.87,6.29s-3.4,.84-1.35,4.47c0,0,.64,1.86,2.91,4.29,0,0,.2,1.53-3.09,3.14,0,0-2.53,1.51-.92,4.8,0,0-4.82,1.81-2.78,5.44l-5.31,6.95s-3.09,3.14,1.36,7.22l8.95,6.84s4.82,5.74,.73,10.19l-8.29,10.85s-.25,3.93,1.48,5.26l26.09,19.93s3.77,2.19,5.32-.75c0,0,14.44-14.41,21.69-18.49l10.21-5.26s18.1-7.49,20.09-10.09c0,0,7.04-5.62,11.02-10.83,0,0,3.32-4.34,4.87-7.28Z"/><path class="cls-4" d="M1241.85,228.23s-3.5-8.86,5.45-8.9c-.02-.01-3.77-7.69,7.16-7.6l26.09,19.93s4.82,9.18-4.97,9.26c-.06-.05,1.93,9.04-6.9,7.1,0,0-.97,10.26-10.85,3.4,0,0-16.11,5.57-16.33-12.48-.17-.13-8.12-6.81,.51-10.91"/></g><path class="cls-2" d="M1310.89,151.36c-9.34,20.67-23.1,38.37-36.02,56.88l-2.35-1.5c12.37-18.48,25.78-36.07,35.63-56.08-1.03-.68-1.87-1.16-2.65-1.74-1.94-1.45-2.46-3.36-1.49-5.55,.83-1.88,2.42-2.74,4.44-2.35,2.31,.44,3.27,2.14,3.42,4.34,.05,.72-.22,1.48-.06,2.16,.11,.48,.69,.85,1.32,1.18-.15-2.85,.15-5.39,3.12-6.31,1.93-.6,3.83-.03,5.04,1.79,1.42,2.15,.91,3.58-2.45,7.08l2.05,1.57c2.03-3.93,3.4-4.97,5.79-4.35,2.25,.58,3.26,2.26,3.35,4.43,.09,2.22-1.55,3.58-5.86,4.64,1.13,.5,1.67,.94,2.19,.92,.79-.03,1.57-.43,2.37-.57,2.13-.38,4.13,.32,4.63,2.35,.34,1.39-.2,3.45-1.12,4.61-1.38,1.74-3.51,1.74-5.41,.39-.8-.57-1.5-1.29-2.68-2.33-16.55,14.65-30.23,31.99-44.62,48.97-.67-.43-1.32-.84-2.33-1.49,14.25-17.62,28.01-35.34,45.42-49.85-.99-4.65-6.17-8.82-11.73-9.18Zm5.29-3.27l1.19,.5,1.54-2.79-1.91-.6-.83,2.88Zm-9.56-1.35l1.28-.15-.04-3.19-1.95,.42,.71,2.91Zm17.01,6.9l.97,.85,2.34-2.16-1.62-1.17-1.69,2.47Zm3.7,8.36l.42,1.22,3.1-.71-.83-1.82-2.7,1.31Z"/><g><path class="cls-4" d="M1534.53,469.22s19.37-29.85-17.77-55.5c.23,.15-25.26-21.38-53.79,4.26,.87,.66-2.83-.79-3.57,8.27l-17.87,6.29s-3.4,.84-1.35,4.47c0,0,.64,1.86,2.91,4.29,0,0,.2,1.53-3.09,3.14,0,0-2.53,1.51-.92,4.8,0,0-4.82,1.81-2.78,5.44l-5.31,6.95s-3.09,3.14,1.36,7.22l8.95,6.84s4.82,5.74,.73,10.19l-8.29,10.85s-.25,3.93,1.48,5.26l26.09,19.93s3.77,2.19,5.32-.75c0,0,14.44-14.41,21.69-18.49l10.21-5.26s18.1-7.49,20.09-10.09c0,0,7.04-5.62,11.02-10.83,0,0,3.32-4.34,4.87-7.28Z"/><path class="cls-4" d="M1418.85,525.23s-3.5-8.86,5.45-8.9c-.02-.01-3.77-7.69,7.16-7.6l26.09,19.93s4.82,9.18-4.97,9.26c-.06-.05,1.93,9.04-6.9,7.1,0,0-.97,10.26-10.85,3.4,0,0-16.11,5.57-16.33-12.48-.17-.13-8.12-6.81,.51-10.91"/></g><path class="cls-2" d="M1487.89,448.36c-9.34,20.67-23.1,38.37-36.02,56.88l-2.35-1.5c12.37-18.48,25.78-36.07,35.63-56.08-1.03-.68-1.87-1.16-2.65-1.74-1.94-1.45-2.46-3.36-1.49-5.55,.83-1.88,2.42-2.74,4.44-2.35,2.31,.44,3.27,2.14,3.42,4.34,.05,.72-.22,1.48-.06,2.16,.11,.48,.69,.85,1.32,1.18-.15-2.85,.15-5.39,3.12-6.31,1.93-.6,3.83-.03,5.04,1.79,1.42,2.15,.91,3.58-2.45,7.08l2.05,1.57c2.03-3.93,3.4-4.97,5.79-4.35,2.25,.58,3.26,2.26,3.35,4.43,.09,2.22-1.55,3.58-5.86,4.64,1.13,.5,1.67,.94,2.19,.92,.79-.03,1.57-.43,2.37-.57,2.13-.38,4.13,.32,4.63,2.35,.34,1.39-.2,3.45-1.12,4.61-1.38,1.74-3.51,1.74-5.41,.39-.8-.57-1.5-1.29-2.68-2.33-16.55,14.65-30.23,31.99-44.62,48.97-.67-.43-1.32-.84-2.33-1.49,14.25-17.62,28.01-35.34,45.42-49.85-.99-4.65-6.17-8.82-11.73-9.18Zm5.29-3.27l1.19,.5,1.54-2.79-1.91-.6-.83,2.88Zm-9.56-1.35l1.28-.15-.04-3.19-1.95,.42,.71,2.91Zm17.01,6.9l.97,.85,2.34-2.16-1.62-1.17-1.69,2.47Zm3.7,8.36l.42,1.22,3.1-.71-.83-1.82-2.7,1.31Z"/><g><path class="cls-4" d="M1534.53,284.22s19.37-29.85-17.77-55.5c.23,.15-25.26-21.38-53.79,4.26,.87,.66-2.83-.79-3.57,8.27l-17.87,6.29s-3.4,.84-1.35,4.47c0,0,.64,1.86,2.91,4.29,0,0,.2,1.53-3.09,3.14,0,0-2.53,1.51-.92,4.8,0,0-4.82,1.81-2.78,5.44l-5.31,6.95s-3.09,3.14,1.36,7.22l8.95,6.84s4.82,5.74,.73,10.19l-8.29,10.85s-.25,3.93,1.48,5.26l26.09,19.93s3.77,2.19,5.32-.75c0,0,14.44-14.41,21.69-18.49l10.21-5.26s18.1-7.49,20.09-10.09c0,0,7.04-5.62,11.02-10.83,0,0,3.32-4.34,4.87-7.28Z"/><path class="cls-4" d="M1418.85,340.23s-3.5-8.86,5.45-8.9c-.02-.01-3.77-7.69,7.16-7.6l26.09,19.93s4.82,9.18-4.97,9.26c-.06-.05,1.93,9.04-6.9,7.1,0,0-.97,10.26-10.85,3.4,0,0-16.11,5.57-16.33-12.48-.17-.13-8.12-6.81,.51-10.91"/></g><path class="cls-2" d="M1487.89,263.36c-9.34,20.67-23.1,38.37-36.02,56.88l-2.35-1.5c12.37-18.48,25.78-36.07,35.63-56.08-1.03-.68-1.87-1.16-2.65-1.74-1.94-1.45-2.46-3.36-1.49-5.55,.83-1.88,2.42-2.74,4.44-2.35,2.31,.44,3.27,2.14,3.42,4.34,.05,.72-.22,1.48-.06,2.16,.11,.48,.69,.85,1.32,1.18-.15-2.85,.15-5.39,3.12-6.31,1.93-.6,3.83-.03,5.04,1.79,1.42,2.15,.91,3.58-2.45,7.08l2.05,1.57c2.03-3.93,3.4-4.97,5.79-4.35,2.25,.58,3.26,2.26,3.35,4.43,.09,2.22-1.55,3.58-5.86,4.64,1.13,.5,1.67,.94,2.19,.92,.79-.03,1.57-.43,2.37-.57,2.13-.38,4.13,.32,4.63,2.35,.34,1.39-.2,3.45-1.12,4.61-1.38,1.74-3.51,1.74-5.41,.39-.8-.57-1.5-1.29-2.68-2.33-16.55,14.65-30.23,31.99-44.62,48.97-.67-.43-1.32-.84-2.33-1.49,14.25-17.62,28.01-35.34,45.42-49.85-.99-4.65-6.17-8.82-11.73-9.18Zm5.29-3.27l1.19,.5,1.54-2.79-1.91-.6-.83,2.88Zm-9.56-1.35l1.28-.15-.04-3.19-1.95,.42,.71,2.91Zm17.01,6.9l.97,.85,2.34-2.16-1.62-1.17-1.69,2.47Zm3.7,8.36l.42,1.22,3.1-.71-.83-1.82-2.7,1.31Z"/><g><path class="cls-4" d="M1534.53,99.22s19.37-29.85-17.77-55.5c.23,.15-25.26-21.38-53.79,4.26,.87,.66-2.83-.79-3.57,8.27l-17.87,6.29s-3.4,.84-1.35,4.47c0,0,.64,1.86,2.91,4.29,0,0,.2,1.53-3.09,3.14,0,0-2.53,1.51-.92,4.8,0,0-4.82,1.81-2.78,5.44l-5.31,6.95s-3.09,3.14,1.36,7.22l8.95,6.84s4.82,5.74,.73,10.19l-8.29,10.85s-.25,3.93,1.48,5.26l26.09,19.93s3.77,2.19,5.32-.75c0,0,14.44-14.41,21.69-18.49l10.21-5.26s18.1-7.49,20.09-10.09c0,0,7.04-5.62,11.02-10.83,0,0,3.32-4.34,4.87-7.28Z"/><path class="cls-4" d="M1418.85,155.23s-3.5-8.86,5.45-8.9c-.02-.01-3.77-7.69,7.16-7.6l26.09,19.93s4.82,9.18-4.97,9.26c-.06-.05,1.93,9.04-6.9,7.1,0,0-.97,10.26-10.85,3.4,0,0-16.11,5.57-16.33-12.48-.17-.13-8.12-6.81,.51-10.91"/></g><path class="cls-2" d="M1487.89,78.36c-9.34,20.67-23.1,38.37-36.02,56.88l-2.35-1.5c12.37-18.48,25.78-36.07,35.63-56.08-1.03-.68-1.87-1.16-2.65-1.74-1.94-1.45-2.46-3.36-1.49-5.55,.83-1.88,2.42-2.74,4.44-2.35,2.31,.44,3.27,2.14,3.42,4.34,.05,.72-.22,1.48-.06,2.16,.11,.48,.69,.85,1.32,1.18-.15-2.85,.15-5.39,3.12-6.31,1.93-.6,3.83-.03,5.04,1.79,1.42,2.15,.91,3.58-2.45,7.08l2.05,1.57c2.03-3.93,3.4-4.97,5.79-4.35,2.25,.58,3.26,2.26,3.35,4.43,.09,2.22-1.55,3.58-5.86,4.64,1.13,.5,1.67,.94,2.19,.92,.79-.03,1.57-.43,2.37-.57,2.13-.38,4.13,.32,4.63,2.35,.34,1.39-.2,3.45-1.12,4.61-1.38,1.74-3.51,1.74-5.41,.39-.8-.57-1.5-1.29-2.68-2.33-16.55,14.65-30.23,31.99-44.62,48.97-.67-.43-1.32-.84-2.33-1.49,14.25-17.62,28.01-35.34,45.42-49.85-.99-4.65-6.17-8.82-11.73-9.18Zm5.29-3.27l1.19,.5,1.54-2.79-1.91-.6-.83,2.88Zm-9.56-1.35l1.28-.15-.04-3.19-1.95,.42,.71,2.91Zm17.01,6.9l.97,.85,2.34-2.16-1.62-1.17-1.69,2.47Zm3.7,8.36l.42,1.22,3.1-.71-.83-1.82-2.7,1.31Z"/><g><path class="cls-4" d="M1699.53,357.22s19.37-29.85-17.77-55.5c.23,.15-25.26-21.38-53.79,4.26,.87,.66-2.83-.79-3.57,8.27l-17.87,6.29s-3.4,.84-1.35,4.47c0,0,.64,1.86,2.91,4.29,0,0,.2,1.53-3.09,3.14,0,0-2.53,1.51-.92,4.8,0,0-4.82,1.81-2.78,5.44l-5.31,6.95s-3.09,3.14,1.36,7.22l8.95,6.84s4.82,5.74,.73,10.19l-8.29,10.85s-.25,3.93,1.48,5.26l26.09,19.93s3.77,2.19,5.32-.75c0,0,14.44-14.41,21.69-18.49l10.21-5.26s18.1-7.49,20.09-10.09c0,0,7.04-5.62,11.02-10.83,0,0,3.32-4.34,4.87-7.28Z"/><path class="cls-4" d="M1583.85,413.23s-3.5-8.86,5.45-8.9c-.02-.01-3.77-7.69,7.16-7.6l26.09,19.93s4.82,9.18-4.97,9.26c-.06-.05,1.93,9.04-6.9,7.1,0,0-.97,10.26-10.85,3.4,0,0-16.11,5.57-16.33-12.48-.17-.13-8.12-6.81,.51-10.91"/></g><path class="cls-2" d="M1652.89,336.36c-9.34,20.67-23.1,38.37-36.02,56.88l-2.35-1.5c12.37-18.48,25.78-36.07,35.63-56.08-1.03-.68-1.87-1.16-2.65-1.74-1.94-1.45-2.46-3.36-1.49-5.55,.83-1.88,2.42-2.74,4.44-2.35,2.31,.44,3.27,2.14,3.42,4.34,.05,.72-.22,1.48-.06,2.16,.11,.48,.69,.85,1.32,1.18-.15-2.85,.15-5.39,3.12-6.31,1.93-.6,3.83-.03,5.04,1.79,1.42,2.15,.91,3.58-2.45,7.08l2.05,1.57c2.03-3.93,3.4-4.97,5.79-4.35,2.25,.58,3.26,2.26,3.35,4.43,.09,2.22-1.55,3.58-5.86,4.64,1.13,.5,1.67,.94,2.19,.92,.79-.03,1.57-.43,2.37-.57,2.13-.38,4.13,.32,4.63,2.35,.34,1.39-.2,3.45-1.12,4.61-1.38,1.74-3.51,1.74-5.41,.39-.8-.57-1.5-1.29-2.68-2.33-16.55,14.65-30.23,31.99-44.62,48.97-.67-.43-1.32-.84-2.33-1.49,14.25-17.62,28.01-35.34,45.42-49.85-.99-4.65-6.17-8.82-11.73-9.18Zm5.29-3.27l1.19,.5,1.54-2.79-1.91-.6-.83,2.88Zm-9.56-1.35l1.28-.15-.04-3.19-1.95,.42,.71,2.91Zm17.01,6.9l.97,.85,2.34-2.16-1.62-1.17-1.69,2.47Zm3.7,8.36l.42,1.22,3.1-.71-.83-1.82-2.7,1.31Z"/><g><path class="cls-4" d="M1699.53,172.22s19.37-29.85-17.77-55.5c.23,.15-25.26-21.38-53.79,4.26,.87,.66-2.83-.79-3.57,8.27l-17.87,6.29s-3.4,.84-1.35,4.47c0,0,.64,1.86,2.91,4.29,0,0,.2,1.53-3.09,3.14,0,0-2.53,1.51-.92,4.8,0,0-4.82,1.81-2.78,5.44l-5.31,6.95s-3.09,3.14,1.36,7.22l8.95,6.84s4.82,5.74,.73,10.19l-8.29,10.85s-.25,3.93,1.48,5.26l26.09,19.93s3.77,2.19,5.32-.75c0,0,14.44-14.41,21.69-18.49l10.21-5.26s18.1-7.49,20.09-10.09c0,0,7.04-5.62,11.02-10.83,0,0,3.32-4.34,4.87-7.28Z"/><path class="cls-4" d="M1583.85,228.23s-3.5-8.86,5.45-8.9c-.02-.01-3.77-7.69,7.16-7.6l26.09,19.93s4.82,9.18-4.97,9.26c-.06-.05,1.93,9.04-6.9,7.1,0,0-.97,10.26-10.85,3.4,0,0-16.11,5.57-16.33-12.48-.17-.13-8.12-6.81,.51-10.91"/></g><path class="cls-2" d="M1652.89,151.36c-9.34,20.67-23.1,38.37-36.02,56.88l-2.35-1.5c12.37-18.48,25.78-36.07,35.63-56.08-1.03-.68-1.87-1.16-2.65-1.74-1.94-1.45-2.46-3.36-1.49-5.55,.83-1.88,2.42-2.74,4.44-2.35,2.31,.44,3.27,2.14,3.42,4.34,.05,.72-.22,1.48-.06,2.16,.11,.48,.69,.85,1.32,1.18-.15-2.85,.15-5.39,3.12-6.31,1.93-.6,3.83-.03,5.04,1.79,1.42,2.15,.91,3.58-2.45,7.08l2.05,1.57c2.03-3.93,3.4-4.97,5.79-4.35,2.25,.58,3.26,2.26,3.35,4.43,.09,2.22-1.55,3.58-5.86,4.64,1.13,.5,1.67,.94,2.19,.92,.79-.03,1.57-.43,2.37-.57,2.13-.38,4.13,.32,4.63,2.35,.34,1.39-.2,3.45-1.12,4.61-1.38,1.74-3.51,1.74-5.41,.39-.8-.57-1.5-1.29-2.68-2.33-16.55,14.65-30.23,31.99-44.62,48.97-.67-.43-1.32-.84-2.33-1.49,14.25-17.62,28.01-35.34,45.42-49.85-.99-4.65-6.17-8.82-11.73-9.18Zm5.29-3.27l1.19,.5,1.54-2.79-1.91-.6-.83,2.88Zm-9.56-1.35l1.28-.15-.04-3.19-1.95,.42,.71,2.91Zm17.01,6.9l.97,.85,2.34-2.16-1.62-1.17-1.69,2.47Zm3.7,8.36l.42,1.22,3.1-.71-.83-1.82-2.7,1.31Z"/><g><path class="cls-4" d="M1876.53,469.22s19.37-29.85-17.77-55.5c.23,.15-25.26-21.38-53.79,4.26,.87,.66-2.83-.79-3.57,8.27l-17.87,6.29s-3.4,.84-1.35,4.47c0,0,.64,1.86,2.91,4.29,0,0,.2,1.53-3.09,3.14,0,0-2.53,1.51-.92,4.8,0,0-4.82,1.81-2.78,5.44l-5.31,6.95s-3.09,3.14,1.36,7.22l8.95,6.84s4.82,5.74,.73,10.19l-8.29,10.85s-.25,3.93,1.48,5.26l26.09,19.93s3.77,2.19,5.32-.75c0,0,14.44-14.41,21.69-18.49l10.21-5.26s18.1-7.49,20.09-10.09c0,0,7.04-5.62,11.02-10.83,0,0,3.32-4.34,4.87-7.28Z"/><path class="cls-4" d="M1760.85,525.23s-3.5-8.86,5.45-8.9c-.02-.01-3.77-7.69,7.16-7.6l26.09,19.93s4.82,9.18-4.97,9.26c-.06-.05,1.93,9.04-6.9,7.1,0,0-.97,10.26-10.85,3.4,0,0-16.11,5.57-16.33-12.48-.17-.13-8.12-6.81,.51-10.91"/></g><path class="cls-2" d="M1829.89,448.36c-9.34,20.67-23.1,38.37-36.02,56.88l-2.35-1.5c12.37-18.48,25.78-36.07,35.63-56.08-1.03-.68-1.87-1.16-2.65-1.74-1.94-1.45-2.46-3.36-1.49-5.55,.83-1.88,2.42-2.74,4.44-2.35,2.31,.44,3.27,2.14,3.42,4.34,.05,.72-.22,1.48-.06,2.16,.11,.48,.69,.85,1.32,1.18-.15-2.85,.15-5.39,3.12-6.31,1.93-.6,3.83-.03,5.04,1.79,1.42,2.15,.91,3.58-2.45,7.08l2.05,1.57c2.03-3.93,3.4-4.97,5.79-4.35,2.25,.58,3.26,2.26,3.35,4.43,.09,2.22-1.55,3.58-5.86,4.64,1.13,.5,1.67,.94,2.19,.92,.79-.03,1.57-.43,2.37-.57,2.13-.38,4.13,.32,4.63,2.35,.34,1.39-.2,3.45-1.12,4.61-1.38,1.74-3.51,1.74-5.41,.39-.8-.57-1.5-1.29-2.68-2.33-16.55,14.65-30.23,31.99-44.62,48.97-.67-.43-1.32-.84-2.33-1.49,14.25-17.62,28.01-35.34,45.42-49.85-.99-4.65-6.17-8.82-11.73-9.18Zm5.29-3.27l1.19,.5,1.54-2.79-1.91-.6-.83,2.88Zm-9.56-1.35l1.28-.15-.04-3.19-1.95,.42,.71,2.91Zm17.01,6.9l.97,.85,2.34-2.16-1.62-1.17-1.69,2.47Zm3.7,8.36l.42,1.22,3.1-.71-.83-1.82-2.7,1.31Z"/><g><path class="cls-4" d="M1876.53,284.22s19.37-29.85-17.77-55.5c.23,.15-25.26-21.38-53.79,4.26,.87,.66-2.83-.79-3.57,8.27l-17.87,6.29s-3.4,.84-1.35,4.47c0,0,.64,1.86,2.91,4.29,0,0,.2,1.53-3.09,3.14,0,0-2.53,1.51-.92,4.8,0,0-4.82,1.81-2.78,5.44l-5.31,6.95s-3.09,3.14,1.36,7.22l8.95,6.84s4.82,5.74,.73,10.19l-8.29,10.85s-.25,3.93,1.48,5.26l26.09,19.93s3.77,2.19,5.32-.75c0,0,14.44-14.41,21.69-18.49l10.21-5.26s18.1-7.49,20.09-10.09c0,0,7.04-5.62,11.02-10.83,0,0,3.32-4.34,4.87-7.28Z"/><path class="cls-4" d="M1760.85,340.23s-3.5-8.86,5.45-8.9c-.02-.01-3.77-7.69,7.16-7.6l26.09,19.93s4.82,9.18-4.97,9.26c-.06-.05,1.93,9.04-6.9,7.1,0,0-.97,10.26-10.85,3.4,0,0-16.11,5.57-16.33-12.48-.17-.13-8.12-6.81,.51-10.91"/></g><path class="cls-2" d="M1829.89,263.36c-9.34,20.67-23.1,38.37-36.02,56.88l-2.35-1.5c12.37-18.48,25.78-36.07,35.63-56.08-1.03-.68-1.87-1.16-2.65-1.74-1.94-1.45-2.46-3.36-1.49-5.55,.83-1.88,2.42-2.74,4.44-2.35,2.31,.44,3.27,2.14,3.42,4.34,.05,.72-.22,1.48-.06,2.16,.11,.48,.69,.85,1.32,1.18-.15-2.85,.15-5.39,3.12-6.31,1.93-.6,3.83-.03,5.04,1.79,1.42,2.15,.91,3.58-2.45,7.08l2.05,1.57c2.03-3.93,3.4-4.97,5.79-4.35,2.25,.58,3.26,2.26,3.35,4.43,.09,2.22-1.55,3.58-5.86,4.64,1.13,.5,1.67,.94,2.19,.92,.79-.03,1.57-.43,2.37-.57,2.13-.38,4.13,.32,4.63,2.35,.34,1.39-.2,3.45-1.12,4.61-1.38,1.74-3.51,1.74-5.41,.39-.8-.57-1.5-1.29-2.68-2.33-16.55,14.65-30.23,31.99-44.62,48.97-.67-.43-1.32-.84-2.33-1.49,14.25-17.62,28.01-35.34,45.42-49.85-.99-4.65-6.17-8.82-11.73-9.18Zm5.29-3.27l1.19,.5,1.54-2.79-1.91-.6-.83,2.88Zm-9.56-1.35l1.28-.15-.04-3.19-1.95,.42,.71,2.91Zm17.01,6.9l.97,.85,2.34-2.16-1.62-1.17-1.69,2.47Zm3.7,8.36l.42,1.22,3.1-.71-.83-1.82-2.7,1.31Z"/><g><path class="cls-4" d="M1876.53,99.22s19.37-29.85-17.77-55.5c.23,.15-25.26-21.38-53.79,4.26,.87,.66-2.83-.79-3.57,8.27l-17.87,6.29s-3.4,.84-1.35,4.47c0,0,.64,1.86,2.91,4.29,0,0,.2,1.53-3.09,3.14,0,0-2.53,1.51-.92,4.8,0,0-4.82,1.81-2.78,5.44l-5.31,6.95s-3.09,3.14,1.36,7.22l8.95,6.84s4.82,5.74,.73,10.19l-8.29,10.85s-.25,3.93,1.48,5.26l26.09,19.93s3.77,2.19,5.32-.75c0,0,14.44-14.41,21.69-18.49l10.21-5.26s18.1-7.49,20.09-10.09c0,0,7.04-5.62,11.02-10.83,0,0,3.32-4.34,4.87-7.28Z"/><path class="cls-4" d="M1760.85,155.23s-3.5-8.86,5.45-8.9c-.02-.01-3.77-7.69,7.16-7.6l26.09,19.93s4.82,9.18-4.97,9.26c-.06-.05,1.93,9.04-6.9,7.1,0,0-.97,10.26-10.85,3.4,0,0-16.11,5.57-16.33-12.48-.17-.13-8.12-6.81,.51-10.91"/></g><path class="cls-2" d="M1829.89,78.36c-9.34,20.67-23.1,38.37-36.02,56.88l-2.35-1.5c12.37-18.48,25.78-36.07,35.63-56.08-1.03-.68-1.87-1.16-2.65-1.74-1.94-1.45-2.46-3.36-1.49-5.55,.83-1.88,2.42-2.74,4.44-2.35,2.31,.44,3.27,2.14,3.42,4.34,.05,.72-.22,1.48-.06,2.16,.11,.48,.69,.85,1.32,1.18-.15-2.85,.15-5.39,3.12-6.31,1.93-.6,3.83-.03,5.04,1.79,1.42,2.15,.91,3.58-2.45,7.08l2.05,1.57c2.03-3.93,3.4-4.97,5.79-4.35,2.25,.58,3.26,2.26,3.35,4.43,.09,2.22-1.55,3.58-5.86,4.64,1.13,.5,1.67,.94,2.19,.92,.79-.03,1.57-.43,2.37-.57,2.13-.38,4.13,.32,4.63,2.35,.34,1.39-.2,3.45-1.12,4.61-1.38,1.74-3.51,1.74-5.41,.39-.8-.57-1.5-1.29-2.68-2.33-16.55,14.65-30.23,31.99-44.62,48.97-.67-.43-1.32-.84-2.33-1.49,14.25-17.62,28.01-35.34,45.42-49.85-.99-4.65-6.17-8.82-11.73-9.18Zm5.29-3.27l1.19,.5,1.54-2.79-1.91-.6-.83,2.88Zm-9.56-1.35l1.28-.15-.04-3.19-1.95,.42,.71,2.91Zm17.01,6.9l.97,.85,2.34-2.16-1.62-1.17-1.69,2.47Zm3.7,8.36l.42,1.22,3.1-.71-.83-1.82-2.7,1.31Z"/><text class="cls-3" transform="translate(724.34 292.82)"><tspan x="0" y="0">Le concept</tspan></text></svg>