<?xml version="1.0" encoding="UTF-8"?><svg id="Calque_1" xmlns="http://www.w3.org/2000/svg" viewBox="0 0 375.26 264.55"><defs><style>.cls-1{fill:#0aabdf;opacity:.2;}.cls-1,.cls-2,.cls-3,.cls-4{stroke-miterlimit:10;}.cls-1,.cls-3,.cls-4{stroke:#fff;}.cls-5{fill:#f7b394;}.cls-2{fill:none;stroke:#ed6e3a;stroke-linecap:round;stroke-width:4px;}.cls-6{fill:#413218;}.cls-3{fill:#d8d8d8;}.cls-4{fill:#fff;}.cls-7{fill:#8bc04e;}</style></defs><rect class="cls-4" x=".5" y=".5" width="374.26" height="263.55" rx="23.09" ry="23.09"/><rect class="cls-1" x=".5" y=".5" width="374.26" height="263.55" rx="23.09" ry="23.09"/><rect class="cls-3" x="30.92" y="57.99" width="148.56" height="148.56"/><path class="cls-7" d="M50.51,202.28s-2.31-29.98,24.89-38.77c0,0,25.17,21.93,56.34,0,0,0,28.31,6.32,26.46,38.77H50.51Z"/><path class="cls-5" d="M105.4,173.01s-31.14,5.87-38.31-34.4c0,0-13.37-3.42-13.37-15,0,0-.49-10.92,11.74-11.25,0,0,3.42-12.55,14.1-14.18,0,0,11.66,.33,21.12-7.66,0,0,7.34,8.64,20.71,8.32,0,0,16.96,4.57,15.33,14.51,0,0,15.49,3.1,14.18,14.51,0,0,2.45,10.27-11.9,11.09,0,0-3.26,36.03-33.59,34.08Z"/><path class="cls-6" d="M102.28,94.97s-8.37,9.69-24.83,11.76c0,0-9.41-.19-13.36,11.29,0,0-3.2-21.16,.94-26.71,0,0,7.43-24.83,33.11-25.21,0,0,24.83-3.1,36.12,20.88,0,0,5.17,4.99,4.04,29.72,0,0-2.92-11.76-16.37-12.7,0,0-5.64,1.69-19.66-9.03Z"/><line class="cls-2" x1="202.39" y1="78.61" x2="344.51" y2="78.61"/><line class="cls-2" x1="202.39" y1="114.61" x2="344.51" y2="114.61"/><line class="cls-2" x1="202.39" y1="150.61" x2="344.51" y2="150.61"/><line class="cls-2" x1="202.39" y1="186.61" x2="278.85" y2="186.61"/></svg>