<?xml version="1.0" encoding="UTF-8"?><svg id="Calque_1" xmlns="http://www.w3.org/2000/svg" viewBox="0 0 203 422.42"><defs><style>.cls-1,.cls-2{fill:#ed6e38;}.cls-3{fill:#fff;}.cls-4{fill:#0aabdf;opacity:.2;}.cls-5{fill:#40596b;}.cls-6{fill:#cdd6e0;}.cls-7{fill:#8bc04e;}.cls-7,.cls-2{opacity:.4;}</style></defs><rect class="cls-3" x="0" y="235.21" width="203" height="187.21" rx="9.33" ry="9.33"/><rect class="cls-4" y="235.21" width="203" height="187.21" rx="9.33" ry="9.33"/><path class="cls-3" d="M8.31,235.21H195.23c4.29,0,7.77,3.48,7.77,7.77v41.47H0v-40.93C0,238.94,3.72,235.21,8.31,235.21Z"/><path class="cls-2" d="M8.31,235.21H195.23c4.29,0,7.77,3.48,7.77,7.77v41.47H0v-40.93c0-4.59,3.72-8.31,8.31-8.31Z"/><rect class="cls-1" y="284.46" width="203" height="5.09"/><path class="cls-5" d="M45.36,220.87v32.09s-.34,7.13,5.43,6.79c0,0,6.96,1.36,5.94-6.96l.1-31.92s-1.7-4.25-5.74-4.25c0,0-4.72,.17-5.74,4.25Z"/><path class="cls-5" d="M146.23,220.87v32.09s-.34,7.13,5.43,6.79c0,0,6.96,1.36,5.94-6.96l.1-31.92s-1.7-4.25-5.74-4.25c0,0-4.72,.17-5.74,4.25Z"/><path class="cls-3" d="M56.75,250.61s2.69,2.32,.97,7.75c0,0-1.4,4.42-6.57,4.36,0,0-5.87-.23-6.95-5.26,0,0-1.4-3.51,1.24-6.85,0,0-1.41,7.02,5.62,7.47,0,0,6.39,0,5.69-7.47Z"/><path class="cls-3" d="M157.62,250.61s2.69,2.32,.97,7.75c0,0-1.4,4.42-6.57,4.36,0,0-5.87-.23-6.95-5.26,0,0-1.4-3.51,1.24-6.85,0,0-1.41,7.02,5.62,7.47,0,0,6.39,0,5.69-7.47Z"/><rect class="cls-6" x="61.48" y="311.29" width="33.4" height="25.3"/><rect class="cls-6" x="108.12" y="311.29" width="33.4" height="25.3"/><rect class="cls-6" x="154.76" y="311.29" width="33.4" height="25.3"/><rect class="cls-3" x="61.48" y="349.1" width="33.4" height="25.3"/><rect class="cls-7" x="61.48" y="349.1" width="33.4" height="25.3"/><rect class="cls-6" x="108.12" y="349.1" width="33.4" height="25.3"/><rect class="cls-6" x="154.76" y="349.1" width="33.4" height="25.3"/><rect class="cls-6" x="14.84" y="349.1" width="33.4" height="25.3"/><rect class="cls-6" x="14.84" y="386.91" width="33.4" height="25.3"/><rect class="cls-6" x="61.48" y="386.91" width="33.4" height="25.3"/><rect class="cls-6" x="108.12" y="386.91" width="33.4" height="25.3"/></svg>