<?xml version="1.0" encoding="UTF-8"?><svg id="Calque_1" xmlns="http://www.w3.org/2000/svg" viewBox="0 0 157.5 136.65"><defs><style>.cls-1{fill:#ed6e3a;}.cls-2{fill:#f7b394;}.cls-3{fill:#413218;}.cls-4{fill:#e7e67a;}.cls-5{fill:#8bc04e;}</style></defs><path class="cls-5" d="M.05,136.31s-2.31-29.98,24.89-38.77c0,0,25.17,21.93,56.34,0,0,0,28.31,6.32,26.46,38.77H.05Z"/><path class="cls-2" d="M54.94,107.05s-31.14,5.87-38.31-34.4c0,0-13.37-3.42-13.37-15,0,0-.49-10.92,11.74-11.25,0,0,3.42-12.55,14.1-14.18,0,0,11.66,.33,21.12-7.66,0,0,7.34,8.64,20.71,8.32,0,0,16.96,4.57,15.33,14.51,0,0,15.49,3.1,14.18,14.51,0,0,2.45,10.27-11.9,11.09,0,0-3.26,36.03-33.59,34.08Z"/><path class="cls-3" d="M51.81,29.01s-8.37,9.69-24.83,11.76c0,0-9.41-.19-13.36,11.29,0,0-3.2-21.16,.94-26.71C14.57,25.34,22,.51,47.68,.13c0,0,24.83-3.1,36.12,20.88,0,0,5.17,4.99,4.04,29.72,0,0-2.92-11.76-16.37-12.7,0,0-5.64,1.69-19.66-9.03Z"/><path class="cls-1" d="M89.91,136.65s-1.45-18.8,15.61-24.31c0,0,15.78,13.75,35.34,0,0,0,17.75,3.96,16.59,24.31H89.91Z"/><path class="cls-2" d="M124.34,118.3s-19.53,3.68-24.03-21.57c0,0-8.38-2.15-8.38-9.41,0,0-.31-6.85,7.36-7.06,0,0,2.15-7.87,8.84-8.9,0,0,7.31,.2,13.24-4.81,0,0,4.6,5.42,12.99,5.21,0,0,10.63,2.86,9.61,9.1,0,0,9.71,1.94,8.9,9.1,0,0,1.53,6.44-7.46,6.95,0,0-2.04,22.6-21.06,21.37Z"/><path class="cls-4" d="M122.38,69.36s-5.25,6.08-15.57,7.37c0,0-5.9-.12-8.38,7.08,0,0-2.01-13.27,.59-16.75,0,0,4.66-15.57,20.76-15.81,0,0,15.57-1.95,22.65,13.1,0,0,3.24,3.13,2.54,18.64,0,0-1.83-7.37-10.26-7.96,0,0-3.54,1.06-12.33-5.66Z"/><ellipse class="cls-4" cx="99.49" cy="88.89" rx="2.38" ry="10.25"/><ellipse class="cls-4" cx="143.81" cy="88.89" rx="2.38" ry="10.25"/><path class="cls-4" d="M98.64,98.57s-2.72,2.15-.91,4.53c0,0,.79,1.25-.62,1.7,0,0,1.75,.34,2.21-.91,0,0,2.72-5.77-.68-5.32Z"/><path class="cls-4" d="M144.58,98.57s2.72,2.15,.91,4.53c0,0-.79,1.25,.62,1.7,0,0-1.75,.34-2.21-.91,0,0-2.72-5.77,.68-5.32Z"/></svg>