<svg id="Calque_1" data-name="Calque 1" xmlns="http://www.w3.org/2000/svg" viewBox="0 0 1920 571"><defs><style>.cls-1{fill:#08aade;opacity:0.1;}.cls-2{fill:#fff;}.cls-3{fill:#00abde;}</style></defs><path class="cls-1" d="M80,0H1840a80,80,0,0,1,80,80V571a0,0,0,0,1,0,0H0a0,0,0,0,1,0,0V80A80,80,0,0,1,80,0Z"/><path class="cls-2" d="M86.48,437.63c-13.1-7.91-17.38-25.05-9.47-37.89s25.17-17.21,38-9.42a28,28,0,0,1,9.36,38A27.57,27.57,0,0,1,86.48,437.63Zm25.81-43.22A22.72,22.72,0,0,0,81,402.3a23,23,0,1,0,39.54,23.32A22.78,22.78,0,0,0,112.29,394.41Z" transform="translate(0 -1)"/><path class="cls-2" d="M82.4,445c22.41,13.26,30.05,45,16,66.94-.69,1.08-2.48,1.44-3.76,2.14.09-1.61-.31-3.46.35-4.79,9.24-18.78,7-39.05-6-53C71.57,437.48,41.08,438.75,23.75,459c-1.73,2-3.1,4.34-4.88,6.3-.74.81-2.12,1.05-3.2,1.56-.17-1.3-1-3.06-.4-3.81,3.05-4.13,6.05-8.42,9.78-11.89A48.23,48.23,0,0,1,82.4,445Z" transform="translate(0 -1)"/><path class="cls-2" d="M86.48,273.63c-13.1-7.91-17.38-25-9.47-37.89s25.17-17.21,38-9.42a28,28,0,0,1,9.36,38A27.57,27.57,0,0,1,86.48,273.63Zm25.81-43.22A22.72,22.72,0,0,0,81,238.3a23,23,0,1,0,39.54,23.32A22.78,22.78,0,0,0,112.29,230.41Z" transform="translate(0 -1)"/><path class="cls-2" d="M82.4,281c22.41,13.26,30.05,45,16,66.94-.69,1.08-2.48,1.44-3.76,2.14.09-1.61-.31-3.46.35-4.79,9.24-18.78,7-39.05-6-53C71.57,273.48,41.08,274.75,23.75,295c-1.73,2-3.1,4.34-4.88,6.3-.74.81-2.12,1.05-3.2,1.56-.17-1.3-1-3.06-.4-3.81,3.05-4.13,6.05-8.42,9.78-11.89A48.23,48.23,0,0,1,82.4,281Z" transform="translate(0 -1)"/><path class="cls-2" d="M86.48,109.63c-13.1-7.91-17.38-25-9.47-37.89s25.17-17.21,38-9.42a28,28,0,0,1,9.36,38A27.57,27.57,0,0,1,86.48,109.63Zm25.81-43.22A22.72,22.72,0,0,0,81,74.3a23,23,0,1,0,39.54,23.32A22.78,22.78,0,0,0,112.29,66.41Z" transform="translate(0 -1)"/><path class="cls-2" d="M82.4,117c22.41,13.26,30.05,45,16,66.94-.69,1.08-2.48,1.44-3.76,2.14.09-1.61-.31-3.46.35-4.79,9.24-18.78,7-39-6-53C71.57,109.48,41.08,110.75,23.75,131c-1.73,2-3.1,4.34-4.88,6.3-.74.81-2.12,1-3.2,1.56-.17-1.3-1-3.06-.4-3.81,3.05-4.13,6.05-8.42,9.78-11.89A48.23,48.23,0,0,1,82.4,117Z" transform="translate(0 -1)"/><path class="cls-2" d="M253.48,206.63c-13.1-7.91-17.38-25-9.47-37.89s25.17-17.21,38-9.42a28,28,0,0,1,9.36,38A27.57,27.57,0,0,1,253.48,206.63Zm25.81-43.22A22.72,22.72,0,0,0,248,171.3a23,23,0,1,0,39.54,23.32A22.78,22.78,0,0,0,279.29,163.41Z" transform="translate(0 -1)"/><path class="cls-2" d="M249.4,214c22.41,13.26,30,45,16,66.94-.69,1.08-2.48,1.44-3.76,2.14.09-1.61-.31-3.46.35-4.79,9.24-18.78,7-39.05-6-53-17.46-18.79-47.95-17.52-65.28,2.77-1.73,2-3.1,4.34-4.88,6.3-.74.81-2.12,1-3.2,1.56-.17-1.3-1-3.06-.4-3.81,3-4.13,6-8.42,9.78-11.89A48.23,48.23,0,0,1,249.4,214Z" transform="translate(0 -1)"/><path class="cls-2" d="M253.48,373.63c-13.1-7.91-17.38-25.05-9.47-37.89s25.17-17.21,38-9.42a28,28,0,0,1,9.36,38A27.57,27.57,0,0,1,253.48,373.63Zm25.81-43.22A22.72,22.72,0,0,0,248,338.3a23,23,0,1,0,39.54,23.32A22.78,22.78,0,0,0,279.29,330.41Z" transform="translate(0 -1)"/><path class="cls-2" d="M249.4,381c22.41,13.26,30,45,16,66.94-.69,1.08-2.48,1.44-3.76,2.14.09-1.61-.31-3.46.35-4.79,9.24-18.78,7-39.05-6-53-17.46-18.79-47.95-17.52-65.28,2.77-1.73,2-3.1,4.34-4.88,6.3-.74.81-2.12,1.05-3.2,1.56-.17-1.3-1-3.06-.4-3.81,3-4.13,6-8.42,9.78-11.89A48.23,48.23,0,0,1,249.4,381Z" transform="translate(0 -1)"/><path class="cls-2" d="M408.48,437.63c-13.1-7.91-17.38-25.05-9.47-37.89s25.17-17.21,38-9.42a28,28,0,0,1,9.36,38A27.57,27.57,0,0,1,408.48,437.63Zm25.81-43.22A22.72,22.72,0,0,0,403,402.3a23,23,0,1,0,39.54,23.32A22.78,22.78,0,0,0,434.29,394.41Z" transform="translate(0 -1)"/><path class="cls-2" d="M404.4,445c22.41,13.26,30.05,45,16,66.94-.69,1.08-2.48,1.44-3.76,2.14.09-1.61-.31-3.46.35-4.79,9.24-18.78,7-39.05-6-53-17.46-18.79-47.95-17.52-65.28,2.77-1.73,2-3.1,4.34-4.88,6.3-.74.81-2.12,1.05-3.2,1.56-.17-1.3-1-3.06-.4-3.81,3.05-4.13,6.05-8.42,9.78-11.89A48.23,48.23,0,0,1,404.4,445Z" transform="translate(0 -1)"/><path class="cls-2" d="M408.48,273.63c-13.1-7.91-17.38-25-9.47-37.89s25.17-17.21,38-9.42a28,28,0,0,1,9.36,38A27.57,27.57,0,0,1,408.48,273.63Zm25.81-43.22A22.72,22.72,0,0,0,403,238.3a23,23,0,1,0,39.54,23.32A22.78,22.78,0,0,0,434.29,230.41Z" transform="translate(0 -1)"/><path class="cls-2" d="M404.4,281c22.41,13.26,30.05,45,16,66.94-.69,1.08-2.48,1.44-3.76,2.14.09-1.61-.31-3.46.35-4.79,9.24-18.78,7-39.05-6-53-17.46-18.79-47.95-17.52-65.28,2.77-1.73,2-3.1,4.34-4.88,6.3-.74.81-2.12,1.05-3.2,1.56-.17-1.3-1-3.06-.4-3.81,3.05-4.13,6.05-8.42,9.78-11.89A48.23,48.23,0,0,1,404.4,281Z" transform="translate(0 -1)"/><path class="cls-2" d="M408.48,109.63c-13.1-7.91-17.38-25-9.47-37.89s25.17-17.21,38-9.42a28,28,0,0,1,9.36,38A27.57,27.57,0,0,1,408.48,109.63Zm25.81-43.22A22.72,22.72,0,0,0,403,74.3a23,23,0,1,0,39.54,23.32A22.78,22.78,0,0,0,434.29,66.41Z" transform="translate(0 -1)"/><path class="cls-2" d="M404.4,117c22.41,13.26,30.05,45,16,66.94-.69,1.08-2.48,1.44-3.76,2.14.09-1.61-.31-3.46.35-4.79,9.24-18.78,7-39-6-53-17.46-18.79-47.95-17.52-65.28,2.77-1.73,2-3.1,4.34-4.88,6.3-.74.81-2.12,1-3.2,1.56-.17-1.3-1-3.06-.4-3.81,3.05-4.13,6.05-8.42,9.78-11.89A48.23,48.23,0,0,1,404.4,117Z" transform="translate(0 -1)"/><path class="cls-2" d="M575.48,206.63c-13.1-7.91-17.38-25-9.47-37.89s25.17-17.21,38-9.42a28,28,0,0,1,9.36,38A27.57,27.57,0,0,1,575.48,206.63Zm25.81-43.22A22.72,22.72,0,0,0,570,171.3a23,23,0,1,0,39.54,23.32A22.78,22.78,0,0,0,601.29,163.41Z" transform="translate(0 -1)"/><path class="cls-2" d="M571.4,214c22.41,13.26,30.05,45,16,66.94-.69,1.08-2.48,1.44-3.76,2.14.09-1.61-.31-3.46.35-4.79,9.24-18.78,7-39.05-6-53-17.46-18.79-47.95-17.52-65.28,2.77-1.73,2-3.1,4.34-4.88,6.3-.74.81-2.12,1-3.2,1.56-.17-1.3-1-3.06-.4-3.81,3.05-4.13,6.05-8.42,9.78-11.89A48.23,48.23,0,0,1,571.4,214Z" transform="translate(0 -1)"/><path class="cls-2" d="M575.48,373.63c-13.1-7.91-17.38-25.05-9.47-37.89s25.17-17.21,38-9.42a28,28,0,0,1,9.36,38A27.57,27.57,0,0,1,575.48,373.63Zm25.81-43.22A22.72,22.72,0,0,0,570,338.3a23,23,0,1,0,39.54,23.32A22.78,22.78,0,0,0,601.29,330.41Z" transform="translate(0 -1)"/><path class="cls-2" d="M571.4,381c22.41,13.26,30.05,45,16,66.94-.69,1.08-2.48,1.44-3.76,2.14.09-1.61-.31-3.46.35-4.79,9.24-18.78,7-39.05-6-53-17.46-18.79-47.95-17.52-65.28,2.77-1.73,2-3.1,4.34-4.88,6.3-.74.81-2.12,1.05-3.2,1.56-.17-1.3-1-3.06-.4-3.81,3.05-4.13,6.05-8.42,9.78-11.89A48.23,48.23,0,0,1,571.4,381Z" transform="translate(0 -1)"/><path class="cls-2" d="M730.48,437.63c-13.1-7.91-17.38-25.05-9.47-37.89s25.17-17.21,38-9.42a28,28,0,0,1,9.36,38A27.57,27.57,0,0,1,730.48,437.63Zm25.81-43.22A22.72,22.72,0,0,0,725,402.3a23,23,0,1,0,39.54,23.32A22.78,22.78,0,0,0,756.29,394.41Z" transform="translate(0 -1)"/><path class="cls-2" d="M726.4,445c22.41,13.26,30.05,45,16,66.94-.69,1.08-2.48,1.44-3.76,2.14.09-1.61-.31-3.46.35-4.79,9.24-18.78,7-39.05-6-53-17.46-18.79-47.95-17.52-65.28,2.77-1.73,2-3.1,4.34-4.88,6.3-.74.81-2.12,1.05-3.2,1.56-.17-1.3-1-3.06-.4-3.81,3.05-4.13,6.05-8.42,9.78-11.89A48.23,48.23,0,0,1,726.4,445Z" transform="translate(0 -1)"/><path class="cls-2" d="M730.48,273.63c-13.1-7.91-17.38-25-9.47-37.89s25.17-17.21,38-9.42a28,28,0,0,1,9.36,38A27.57,27.57,0,0,1,730.48,273.63Zm25.81-43.22A22.72,22.72,0,0,0,725,238.3a23,23,0,1,0,39.54,23.32A22.78,22.78,0,0,0,756.29,230.41Z" transform="translate(0 -1)"/><path class="cls-2" d="M726.4,281c22.41,13.26,30.05,45,16,66.94-.69,1.08-2.48,1.44-3.76,2.14.09-1.61-.31-3.46.35-4.79,9.24-18.78,7-39.05-6-53-17.46-18.79-47.95-17.52-65.28,2.77-1.73,2-3.1,4.34-4.88,6.3-.74.81-2.12,1.05-3.2,1.56-.17-1.3-1-3.06-.4-3.81,3.05-4.13,6.05-8.42,9.78-11.89A48.23,48.23,0,0,1,726.4,281Z" transform="translate(0 -1)"/><path class="cls-2" d="M730.48,109.63c-13.1-7.91-17.38-25-9.47-37.89s25.17-17.21,38-9.42a28,28,0,0,1,9.36,38A27.57,27.57,0,0,1,730.48,109.63Zm25.81-43.22A22.72,22.72,0,0,0,725,74.3a23,23,0,1,0,39.54,23.32A22.78,22.78,0,0,0,756.29,66.41Z" transform="translate(0 -1)"/><path class="cls-2" d="M726.4,117c22.41,13.26,30.05,45,16,66.94-.69,1.08-2.48,1.44-3.76,2.14.09-1.61-.31-3.46.35-4.79,9.24-18.78,7-39-6-53-17.46-18.79-47.95-17.52-65.28,2.77-1.73,2-3.1,4.34-4.88,6.3-.74.81-2.12,1-3.2,1.56-.17-1.3-1-3.06-.4-3.81,3.05-4.13,6.05-8.42,9.78-11.89A48.23,48.23,0,0,1,726.4,117Z" transform="translate(0 -1)"/><path class="cls-2" d="M897.48,206.63c-13.1-7.91-17.38-25-9.47-37.89s25.17-17.21,38-9.42a28,28,0,0,1,9.36,38A27.57,27.57,0,0,1,897.48,206.63Zm25.81-43.22A22.72,22.72,0,0,0,892,171.3a23,23,0,1,0,39.54,23.32A22.78,22.78,0,0,0,923.29,163.41Z" transform="translate(0 -1)"/><path class="cls-2" d="M893.4,214c22.41,13.26,30.05,45,16,66.94-.69,1.08-2.48,1.44-3.76,2.14.09-1.61-.31-3.46.35-4.79,9.24-18.78,7-39.05-6-53-17.46-18.79-47.95-17.52-65.28,2.77-1.73,2-3.1,4.34-4.88,6.3-.74.81-2.12,1-3.2,1.56-.17-1.3-1-3.06-.4-3.81,3.05-4.13,6.05-8.42,9.78-11.89A48.23,48.23,0,0,1,893.4,214Z" transform="translate(0 -1)"/><path class="cls-2" d="M897.48,373.63c-13.1-7.91-17.38-25.05-9.47-37.89s25.17-17.21,38-9.42a28,28,0,0,1,9.36,38A27.57,27.57,0,0,1,897.48,373.63Zm25.81-43.22A22.72,22.72,0,0,0,892,338.3a23,23,0,1,0,39.54,23.32A22.78,22.78,0,0,0,923.29,330.41Z" transform="translate(0 -1)"/><path class="cls-2" d="M893.4,381c22.41,13.26,30.05,45,16,66.94-.69,1.08-2.48,1.44-3.76,2.14.09-1.61-.31-3.46.35-4.79,9.24-18.78,7-39.05-6-53-17.46-18.79-47.95-17.52-65.28,2.77-1.73,2-3.1,4.34-4.88,6.3-.74.81-2.12,1.05-3.2,1.56-.17-1.3-1-3.06-.4-3.81,3.05-4.13,6.05-8.42,9.78-11.89A48.23,48.23,0,0,1,893.4,381Z" transform="translate(0 -1)"/><path class="cls-2" d="M1052.48,437.63c-13.1-7.91-17.38-25.05-9.47-37.89s25.17-17.21,38-9.42a28,28,0,0,1,9.36,38A27.57,27.57,0,0,1,1052.48,437.63Zm25.81-43.22A22.72,22.72,0,0,0,1047,402.3a23,23,0,1,0,39.54,23.32A22.78,22.78,0,0,0,1078.29,394.41Z" transform="translate(0 -1)"/><path class="cls-2" d="M1048.4,445c22.41,13.26,30,45,16,66.94-.69,1.08-2.48,1.44-3.76,2.14.09-1.61-.31-3.46.35-4.79,9.24-18.78,7-39.05-6-53-17.46-18.79-47.95-17.52-65.28,2.77-1.73,2-3.1,4.34-4.88,6.3-.74.81-2.12,1.05-3.2,1.56-.17-1.3-1-3.06-.4-3.81,3.05-4.13,6.05-8.42,9.78-11.89A48.23,48.23,0,0,1,1048.4,445Z" transform="translate(0 -1)"/><path class="cls-2" d="M1052.48,273.63c-13.1-7.91-17.38-25-9.47-37.89s25.17-17.21,38-9.42a28,28,0,0,1,9.36,38A27.57,27.57,0,0,1,1052.48,273.63Zm25.81-43.22A22.72,22.72,0,0,0,1047,238.3a23,23,0,1,0,39.54,23.32A22.78,22.78,0,0,0,1078.29,230.41Z" transform="translate(0 -1)"/><path class="cls-2" d="M1048.4,281c22.41,13.26,30,45,16,66.94-.69,1.08-2.48,1.44-3.76,2.14.09-1.61-.31-3.46.35-4.79,9.24-18.78,7-39.05-6-53-17.46-18.79-47.95-17.52-65.28,2.77-1.73,2-3.1,4.34-4.88,6.3-.74.81-2.12,1.05-3.2,1.56-.17-1.3-1-3.06-.4-3.81,3.05-4.13,6.05-8.42,9.78-11.89A48.23,48.23,0,0,1,1048.4,281Z" transform="translate(0 -1)"/><path class="cls-2" d="M1052.48,109.63c-13.1-7.91-17.38-25-9.47-37.89s25.17-17.21,38-9.42a28,28,0,0,1,9.36,38A27.57,27.57,0,0,1,1052.48,109.63Zm25.81-43.22A22.72,22.72,0,0,0,1047,74.3a23,23,0,1,0,39.54,23.32A22.78,22.78,0,0,0,1078.29,66.41Z" transform="translate(0 -1)"/><path class="cls-2" d="M1048.4,117c22.41,13.26,30,45,16,66.94-.69,1.08-2.48,1.44-3.76,2.14.09-1.61-.31-3.46.35-4.79,9.24-18.78,7-39-6-53-17.46-18.79-47.95-17.52-65.28,2.77-1.73,2-3.1,4.34-4.88,6.3-.74.81-2.12,1-3.2,1.56-.17-1.3-1-3.06-.4-3.81,3.05-4.13,6.05-8.42,9.78-11.89A48.23,48.23,0,0,1,1048.4,117Z" transform="translate(0 -1)"/><path class="cls-2" d="M1219.48,206.63c-13.1-7.91-17.38-25-9.47-37.89s25.17-17.21,38-9.42a28,28,0,0,1,9.36,38A27.57,27.57,0,0,1,1219.48,206.63Zm25.81-43.22A22.72,22.72,0,0,0,1214,171.3a23,23,0,1,0,39.54,23.32A22.78,22.78,0,0,0,1245.29,163.41Z" transform="translate(0 -1)"/><path class="cls-2" d="M1215.4,214c22.41,13.26,30,45,16,66.94-.69,1.08-2.48,1.44-3.76,2.14.09-1.61-.31-3.46.35-4.79,9.24-18.78,7-39.05-6-53-17.46-18.79-48-17.52-65.28,2.77-1.73,2-3.1,4.34-4.88,6.3-.74.81-2.12,1-3.2,1.56-.17-1.3-1-3.06-.4-3.81,3-4.13,6-8.42,9.78-11.89A48.23,48.23,0,0,1,1215.4,214Z" transform="translate(0 -1)"/><path class="cls-2" d="M1219.48,373.63c-13.1-7.91-17.38-25.05-9.47-37.89s25.17-17.21,38-9.42a28,28,0,0,1,9.36,38A27.57,27.57,0,0,1,1219.48,373.63Zm25.81-43.22A22.72,22.72,0,0,0,1214,338.3a23,23,0,1,0,39.54,23.32A22.78,22.78,0,0,0,1245.29,330.41Z" transform="translate(0 -1)"/><path class="cls-2" d="M1215.4,381c22.41,13.26,30,45,16,66.94-.69,1.08-2.48,1.44-3.76,2.14.09-1.61-.31-3.46.35-4.79,9.24-18.78,7-39.05-6-53-17.46-18.79-48-17.52-65.28,2.77-1.73,2-3.1,4.34-4.88,6.3-.74.81-2.12,1.05-3.2,1.56-.17-1.3-1-3.06-.4-3.81,3-4.13,6-8.42,9.78-11.89A48.23,48.23,0,0,1,1215.4,381Z" transform="translate(0 -1)"/><path class="cls-2" d="M1374.48,437.63c-13.1-7.91-17.38-25.05-9.47-37.89s25.17-17.21,38-9.42a28,28,0,0,1,9.36,38A27.57,27.57,0,0,1,1374.48,437.63Zm25.81-43.22A22.72,22.72,0,0,0,1369,402.3a23,23,0,1,0,39.54,23.32A22.78,22.78,0,0,0,1400.29,394.41Z" transform="translate(0 -1)"/><path class="cls-2" d="M1370.4,445c22.41,13.26,30,45,16,66.94-.69,1.08-2.48,1.44-3.76,2.14.09-1.61-.31-3.46.35-4.79,9.24-18.78,7-39.05-6-53-17.46-18.79-48-17.52-65.28,2.77-1.73,2-3.1,4.34-4.88,6.3-.74.81-2.12,1.05-3.2,1.56-.17-1.3-1-3.06-.4-3.81,3-4.13,6-8.42,9.78-11.89A48.23,48.23,0,0,1,1370.4,445Z" transform="translate(0 -1)"/><path class="cls-2" d="M1374.48,273.63c-13.1-7.91-17.38-25-9.47-37.89s25.17-17.21,38-9.42a28,28,0,0,1,9.36,38A27.57,27.57,0,0,1,1374.48,273.63Zm25.81-43.22A22.72,22.72,0,0,0,1369,238.3a23,23,0,1,0,39.54,23.32A22.78,22.78,0,0,0,1400.29,230.41Z" transform="translate(0 -1)"/><path class="cls-2" d="M1370.4,281c22.41,13.26,30,45,16,66.94-.69,1.08-2.48,1.44-3.76,2.14.09-1.61-.31-3.46.35-4.79,9.24-18.78,7-39.05-6-53-17.46-18.79-48-17.52-65.28,2.77-1.73,2-3.1,4.34-4.88,6.3-.74.81-2.12,1.05-3.2,1.56-.17-1.3-1-3.06-.4-3.81,3-4.13,6-8.42,9.78-11.89A48.23,48.23,0,0,1,1370.4,281Z" transform="translate(0 -1)"/><path class="cls-2" d="M1374.48,109.63c-13.1-7.91-17.38-25-9.47-37.89s25.17-17.21,38-9.42a28,28,0,0,1,9.36,38A27.57,27.57,0,0,1,1374.48,109.63Zm25.81-43.22A22.72,22.72,0,0,0,1369,74.3a23,23,0,1,0,39.54,23.32A22.78,22.78,0,0,0,1400.29,66.41Z" transform="translate(0 -1)"/><path class="cls-2" d="M1370.4,117c22.41,13.26,30,45,16,66.94-.69,1.08-2.48,1.44-3.76,2.14.09-1.61-.31-3.46.35-4.79,9.24-18.78,7-39-6-53-17.46-18.79-48-17.52-65.28,2.77-1.73,2-3.1,4.34-4.88,6.3-.74.81-2.12,1-3.2,1.56-.17-1.3-1-3.06-.4-3.81,3-4.13,6-8.42,9.78-11.89A48.23,48.23,0,0,1,1370.4,117Z" transform="translate(0 -1)"/><path class="cls-2" d="M1541.48,206.63c-13.1-7.91-17.38-25-9.47-37.89s25.17-17.21,38-9.42a28,28,0,0,1,9.36,38A27.57,27.57,0,0,1,1541.48,206.63Zm25.81-43.22A22.72,22.72,0,0,0,1536,171.3a23,23,0,1,0,39.54,23.32A22.78,22.78,0,0,0,1567.29,163.41Z" transform="translate(0 -1)"/><path class="cls-2" d="M1537.4,214c22.41,13.26,30,45,16,66.94-.69,1.08-2.48,1.44-3.76,2.14.09-1.61-.31-3.46.35-4.79,9.24-18.78,7-39.05-6-53-17.46-18.79-48-17.52-65.28,2.77-1.73,2-3.1,4.34-4.88,6.3-.74.81-2.12,1-3.2,1.56-.17-1.3-1-3.06-.4-3.81,3-4.13,6-8.42,9.78-11.89A48.23,48.23,0,0,1,1537.4,214Z" transform="translate(0 -1)"/><path class="cls-2" d="M1541.48,373.63c-13.1-7.91-17.38-25.05-9.47-37.89s25.17-17.21,38-9.42a28,28,0,0,1,9.36,38A27.57,27.57,0,0,1,1541.48,373.63Zm25.81-43.22A22.72,22.72,0,0,0,1536,338.3a23,23,0,1,0,39.54,23.32A22.78,22.78,0,0,0,1567.29,330.41Z" transform="translate(0 -1)"/><path class="cls-2" d="M1537.4,381c22.41,13.26,30,45,16,66.94-.69,1.08-2.48,1.44-3.76,2.14.09-1.61-.31-3.46.35-4.79,9.24-18.78,7-39.05-6-53-17.46-18.79-48-17.52-65.28,2.77-1.73,2-3.1,4.34-4.88,6.3-.74.81-2.12,1.05-3.2,1.56-.17-1.3-1-3.06-.4-3.81,3-4.13,6-8.42,9.78-11.89A48.23,48.23,0,0,1,1537.4,381Z" transform="translate(0 -1)"/><path class="cls-2" d="M1696.48,437.63c-13.1-7.91-17.38-25.05-9.47-37.89s25.17-17.21,38-9.42a28,28,0,0,1,9.36,38A27.57,27.57,0,0,1,1696.48,437.63Zm25.81-43.22A22.72,22.72,0,0,0,1691,402.3a23,23,0,1,0,39.54,23.32A22.78,22.78,0,0,0,1722.29,394.41Z" transform="translate(0 -1)"/><path class="cls-2" d="M1692.4,445c22.41,13.26,30,45,16,66.94-.69,1.08-2.48,1.44-3.76,2.14.09-1.61-.31-3.46.35-4.79,9.24-18.78,7-39.05-6-53-17.46-18.79-48-17.52-65.28,2.77-1.73,2-3.1,4.34-4.88,6.3-.74.81-2.12,1.05-3.2,1.56-.17-1.3-1-3.06-.4-3.81,3-4.13,6-8.42,9.78-11.89A48.23,48.23,0,0,1,1692.4,445Z" transform="translate(0 -1)"/><path class="cls-2" d="M1696.48,273.63c-13.1-7.91-17.38-25-9.47-37.89s25.17-17.21,38-9.42a28,28,0,0,1,9.36,38A27.57,27.57,0,0,1,1696.48,273.63Zm25.81-43.22A22.72,22.72,0,0,0,1691,238.3a23,23,0,1,0,39.54,23.32A22.78,22.78,0,0,0,1722.29,230.41Z" transform="translate(0 -1)"/><path class="cls-2" d="M1692.4,281c22.41,13.26,30,45,16,66.94-.69,1.08-2.48,1.44-3.76,2.14.09-1.61-.31-3.46.35-4.79,9.24-18.78,7-39.05-6-53-17.46-18.79-48-17.52-65.28,2.77-1.73,2-3.1,4.34-4.88,6.3-.74.81-2.12,1.05-3.2,1.56-.17-1.3-1-3.06-.4-3.81,3-4.13,6-8.42,9.78-11.89A48.23,48.23,0,0,1,1692.4,281Z" transform="translate(0 -1)"/><path class="cls-2" d="M1696.48,109.63c-13.1-7.91-17.38-25-9.47-37.89s25.17-17.21,38-9.42a28,28,0,0,1,9.36,38A27.57,27.57,0,0,1,1696.48,109.63Zm25.81-43.22A22.72,22.72,0,0,0,1691,74.3a23,23,0,1,0,39.54,23.32A22.78,22.78,0,0,0,1722.29,66.41Z" transform="translate(0 -1)"/><path class="cls-2" d="M1692.4,117c22.41,13.26,30,45,16,66.94-.69,1.08-2.48,1.44-3.76,2.14.09-1.61-.31-3.46.35-4.79,9.24-18.78,7-39-6-53-17.46-18.79-48-17.52-65.28,2.77-1.73,2-3.1,4.34-4.88,6.3-.74.81-2.12,1-3.2,1.56-.17-1.3-1-3.06-.4-3.81,3-4.13,6-8.42,9.78-11.89A48.23,48.23,0,0,1,1692.4,117Z" transform="translate(0 -1)"/><path class="cls-2" d="M1863.48,206.63c-13.1-7.91-17.38-25-9.47-37.89s25.17-17.21,38-9.42a28,28,0,0,1,9.36,38A27.57,27.57,0,0,1,1863.48,206.63Zm25.81-43.22A22.72,22.72,0,0,0,1858,171.3a23,23,0,1,0,39.54,23.32A22.78,22.78,0,0,0,1889.29,163.41Z" transform="translate(0 -1)"/><path class="cls-2" d="M1859.4,214c22.41,13.26,30,45,16,66.94-.69,1.08-2.48,1.44-3.76,2.14.09-1.61-.31-3.46.35-4.79,9.24-18.78,7-39.05-6-53-17.46-18.79-48-17.52-65.28,2.77-1.73,2-3.1,4.34-4.88,6.3-.74.81-2.12,1-3.2,1.56-.17-1.3-1-3.06-.4-3.81,3-4.13,6-8.42,9.78-11.89A48.23,48.23,0,0,1,1859.4,214Z" transform="translate(0 -1)"/><path class="cls-2" d="M1863.48,373.63c-13.1-7.91-17.38-25.05-9.47-37.89s25.17-17.21,38-9.42a28,28,0,0,1,9.36,38A27.57,27.57,0,0,1,1863.48,373.63Zm25.81-43.22A22.72,22.72,0,0,0,1858,338.3a23,23,0,1,0,39.54,23.32A22.78,22.78,0,0,0,1889.29,330.41Z" transform="translate(0 -1)"/><path class="cls-2" d="M1859.4,381c22.41,13.26,30,45,16,66.94-.69,1.08-2.48,1.44-3.76,2.14.09-1.61-.31-3.46.35-4.79,9.24-18.78,7-39.05-6-53-17.46-18.79-48-17.52-65.28,2.77-1.73,2-3.1,4.34-4.88,6.3-.74.81-2.12,1.05-3.2,1.56-.17-1.3-1-3.06-.4-3.81,3-4.13,6-8.42,9.78-11.89A48.23,48.23,0,0,1,1859.4,381Z" transform="translate(0 -1)"/><path class="cls-3" d="M767.46,282q.16,7.65.17,11.9a5.06,5.06,0,0,1-1.36,3.74,5.17,5.17,0,0,1-3.83,1.36,5.29,5.29,0,0,1-3.86-1.36,4.62,4.62,0,0,1-1.41-3.48q-.07-8.08-.08-23.46a132.09,132.09,0,0,0-.64-15.22c-.42-3.4-1-5.1-1.74-5.1q-1.62,0-5.7,11a123.42,123.42,0,0,0-3.65,13.17c-.63,2.55-2.52,3.83-5.7,3.83a7.09,7.09,0,0,1-3.86-.9,4.78,4.78,0,0,1-2-2.67l-.94-3.49q-2-7.47-3-10-1.36-3.57-3.15-7.22t-2.46-3.66q-1.78,0-2.13,19.89-.07,2.89-.08,8l.08,16.07a3.76,3.76,0,0,1-1.44,3.1,6.32,6.32,0,0,1-4,1.15,5.07,5.07,0,0,1-3.82-1.32,6,6,0,0,1-1.28-4.29c0-2.72.06-6.58.17-11.56l.09-11.31q0-17.08,2.59-24.69t8.37-7.61a9.8,9.8,0,0,1,7.95,4.17,31.49,31.49,0,0,1,5.06,9.39q1.78,5.22,3.65,12.79a86.2,86.2,0,0,1,6.72-18.61q4-7.74,10.54-7.74a7.13,7.13,0,0,1,6.37,3.74c1.53,2.5,2.6,6.09,3.19,10.8a157.73,157.73,0,0,1,1,18C767.29,273.08,767.34,277,767.46,282Z" transform="translate(0 -1)"/><path class="cls-3" d="M782.89,293.09q-6.35-5.44-6.34-15.9a25.06,25.06,0,0,1,2.72-11.86,19.69,19.69,0,0,1,7.82-8,24,24,0,0,1,12-2.89,25,25,0,0,1,12.11,2.89,20.53,20.53,0,0,1,8.25,8.12,24.37,24.37,0,0,1,2.93,12.11q0,10.13-6.21,15.56t-16.57,5.44Q789.21,298.53,782.89,293.09Zm25.67-5.91q3.35-3.27,3.35-9.73a16.87,16.87,0,0,0-3.31-10.71,11,11,0,0,0-9.18-4.25,11.35,11.35,0,0,0-9.1,4q-3.39,4-3.4,10.71t3.45,10a12.59,12.59,0,0,0,9,3.27Q805.2,290.45,808.56,287.18Z" transform="translate(0 -1)"/><path class="cls-3" d="M864.53,260.15q4,5.14,4,15.34L868.44,295a2.77,2.77,0,0,1-1.45,2.55,7.17,7.17,0,0,1-3.65.85,8.28,8.28,0,0,1-3.74-.77,2.44,2.44,0,0,1-1.53-2.29V275.41c0-4.37-.49-7.5-1.45-9.4a5,5,0,0,0-4.84-2.84,6.13,6.13,0,0,0-5.19,2.67q-2,2.69-3.06,8.8a54.24,54.24,0,0,0-.59,8.5l.08,11.48a3.26,3.26,0,0,1-1.4,2.84,6.46,6.46,0,0,1-3.78,1,6.33,6.33,0,0,1-3.79-1,3.28,3.28,0,0,1-1.4-2.8q0-14.28-.59-28.22a6,6,0,0,0-.43-2.38,11,11,0,0,0-1-1.87c-.36-.57-.61-1-.72-1.19a2.63,2.63,0,0,1-.51-1.62,3.74,3.74,0,0,1,1.83-2.89,5.93,5.93,0,0,1,3.44-1.36,2.87,2.87,0,0,1,1.62.51,7.6,7.6,0,0,1,1.7,1.79,8.66,8.66,0,0,1,2,5.1v.68a14.23,14.23,0,0,1,4.71-5.83,14.06,14.06,0,0,1,8.46-2.33Q860.53,255,864.53,260.15Z" transform="translate(0 -1)"/><path class="cls-3" d="M916.67,295.68a18.77,18.77,0,0,1-7.52-7.39,21.66,21.66,0,0,1-2.64-10.76A24.32,24.32,0,0,1,909.28,266a20.9,20.9,0,0,1,7.82-8.28,22,22,0,0,1,11.6-3.06,21.42,21.42,0,0,1,12.11,3.4,18.79,18.79,0,0,1,7.27,8.5,6.24,6.24,0,0,1,.51,2.29q0,2.38-3.32,3.23a5.85,5.85,0,0,1-1.7.26,3.52,3.52,0,0,1-2.38-.81,10.41,10.41,0,0,1-2-2.51,13,13,0,0,0-3.91-4.5,10,10,0,0,0-6-1.79,10.9,10.9,0,0,0-6.46,2,13.23,13.23,0,0,0-4.37,5.4,17.56,17.56,0,0,0-1.58,7.48q0,5.78,3.11,9.22t9,3.44q5.61,0,8.46-2.93a9.67,9.67,0,0,0,2.93-6.67,2.75,2.75,0,0,1,1.19-2.21,4.89,4.89,0,0,1,3.14-.94,6.07,6.07,0,0,1,3.66.94,3.74,3.74,0,0,1,1.27,3.23,15.37,15.37,0,0,1-2.25,7.9,16.7,16.7,0,0,1-7.1,6.29q-4.85,2.48-12.32,2.47A23.31,23.31,0,0,1,916.67,295.68Z" transform="translate(0 -1)"/><path class="cls-3" d="M962.32,293.09q-6.35-5.44-6.34-15.9a25.06,25.06,0,0,1,2.72-11.86,19.69,19.69,0,0,1,7.82-8,24,24,0,0,1,12-2.89,25,25,0,0,1,12.11,2.89,20.53,20.53,0,0,1,8.25,8.12,24.37,24.37,0,0,1,2.93,12.11q0,10.13-6.21,15.56T979,298.53Q968.64,298.53,962.32,293.09ZM988,287.18q3.35-3.27,3.35-9.73A16.87,16.87,0,0,0,988,266.74a11,11,0,0,0-9.18-4.25,11.35,11.35,0,0,0-9.1,4q-3.39,4-3.4,10.71t3.45,10a12.59,12.59,0,0,0,9.05,3.27Q984.63,290.45,988,287.18Z" transform="translate(0 -1)"/><path class="cls-3" d="M1067,275.83l-.08,18.62a3.49,3.49,0,0,1-1.32,2.8,5.17,5.17,0,0,1-3.44,1.11,6,6,0,0,1-3.74-1.11,3.61,3.61,0,0,1-1.45-3.06V276.26c0-4.71-.44-8.09-1.32-10.16a4.54,4.54,0,0,0-4.46-3.1c-1.81,0-3.26,1.2-4.33,3.61a24.66,24.66,0,0,0-1.7,9.65v17.93q0,4-4.85,4-5.17,0-5.18-4.17l.08-17.76a23.05,23.05,0,0,0-1.7-9.44c-1.08-2.26-2.6-3.4-4.59-3.4q-2.12,0-4,2.55a20.08,20.08,0,0,0-2.85,7.65,38.13,38.13,0,0,0-.68,7.57l.09,7.65v6a2.85,2.85,0,0,1-1.49,2.59,7,7,0,0,1-3.61.89,6.1,6.1,0,0,1-3.32-1,2.94,2.94,0,0,1-1.36-2.55l-.08-27.45a9.71,9.71,0,0,0-.34-3,5.49,5.49,0,0,0-1.11-1.78,6.34,6.34,0,0,0-.55-.51,2.49,2.49,0,0,1-.55-.68,1.62,1.62,0,0,1-.17-.77,3.87,3.87,0,0,1,1.44-3.14,4.82,4.82,0,0,1,3.15-1.19c1.07,0,2.24.79,3.48,2.38a7.45,7.45,0,0,1,1.53,4.42v.59a15,15,0,0,1,4.21-5.78,10.16,10.16,0,0,1,6.67-2.21,10.92,10.92,0,0,1,6.76,1.91,11.64,11.64,0,0,1,3.78,5.4,13,13,0,0,1,4.8-5.61,13.54,13.54,0,0,1,7.36-2Q1067,255.35,1067,275.83Z" transform="translate(0 -1)"/><path class="cls-3" d="M1111.36,257.39a18.66,18.66,0,0,1,7.48,7.61,26.92,26.92,0,0,1,0,23.5,18.41,18.41,0,0,1-7.48,7.56,22.65,22.65,0,0,1-11.09,2.64,28.12,28.12,0,0,1-7.52-1,22.29,22.29,0,0,1-5.23-2l-.34,17.68a3.42,3.42,0,0,1-1.49,2.89,6.14,6.14,0,0,1-3.78,1.11,5.62,5.62,0,0,1-3.82-1.19,3.62,3.62,0,0,1-1.19-3.23q.42-7.23.51-19.64l.08-6.8q.17-9.85.17-17.42a11.66,11.66,0,0,0-.47-3.66,7.44,7.44,0,0,0-1.4-2.46,9.34,9.34,0,0,1-.93-1.19,2.14,2.14,0,0,1-.26-1.11,4.37,4.37,0,0,1,1.87-3.27,5.82,5.82,0,0,1,3.74-1.57,3.77,3.77,0,0,1,2.13.76,8.65,8.65,0,0,1,1.65,1.87,25.26,25.26,0,0,1,1.66,2.72,16.08,16.08,0,0,1,5.78-4.59,20.28,20.28,0,0,1,9.1-1.87A21.86,21.86,0,0,1,1111.36,257.39Zm-3.4,29.49q3.24-3.64,3.23-10.37,0-6.54-3.06-10a10.49,10.49,0,0,0-8.24-3.44,12.9,12.9,0,0,0-10.25,4.89,6.21,6.21,0,0,0-1.48,3.53l-.17,15.38a4.51,4.51,0,0,0,2.12,1.53,23.67,23.67,0,0,0,4.29,1.49,20.16,20.16,0,0,0,4.89.64A11,11,0,0,0,1108,286.88Z" transform="translate(0 -1)"/><path class="cls-3" d="M1158.66,283.48a4.31,4.31,0,0,1,1.07,3.23,11.28,11.28,0,0,1-3.36,8.46,11.75,11.75,0,0,1-8.54,3.27q-7.07,0-10.25-5.82t-3.18-18.49c0-1.75,0-4.16.17-7.22l-3.06-.17q-4.08-.18-4.08-4a3.93,3.93,0,0,1,1.1-3.1,5.22,5.22,0,0,1,3.66-.89l3.06.17c.39-4,1-8.64,2-13.86.45-2.43,2.13-3.65,5-3.65a5.54,5.54,0,0,1,4,1.36,3.41,3.41,0,0,1,1.07,3.23q-1.36,9.18-1.79,13.43l5.19.08c2.49.06,3.74,1.33,3.74,3.83a3.75,3.75,0,0,1-1,2.89,5.17,5.17,0,0,1-3.49.93h-5.1q-.16,4.43-.17,7,0,9,.85,12.58t3,3.57a2.1,2.1,0,0,0,2-1,7.13,7.13,0,0,0,.68-3.27,3.8,3.8,0,0,1,1-2.72,4.51,4.51,0,0,1,3.06-.85A4.83,4.83,0,0,1,1158.66,283.48Z" transform="translate(0 -1)"/><path class="cls-3" d="M1177.28,296.1a19.08,19.08,0,0,1-7.86-8,24.12,24.12,0,0,1-2.64-11.34,22.24,22.24,0,0,1,2.93-11.35,20.89,20.89,0,0,1,8.08-7.91,25.25,25.25,0,0,1,22.14-.55,17.67,17.67,0,0,1,10.12,16.41c0,2.21-.36,3.78-1.07,4.71s-2,1.41-4,1.41l-29.15.25a9.18,9.18,0,0,0,1.61,4.93,12.8,12.8,0,0,0,4.76,4.29,14.94,14.94,0,0,0,7.4,1.75,14.21,14.21,0,0,0,4.88-.73,11.47,11.47,0,0,0,3.28-1.74,30.74,30.74,0,0,0,3-2.8,3.92,3.92,0,0,1,2.81-1.28,4.73,4.73,0,0,1,3.1,1.28,3.75,3.75,0,0,1,1.49,2.89,5,5,0,0,1-.94,2.63,19.19,19.19,0,0,1-6.16,5.57Q1197,299,1190,299A25.55,25.55,0,0,1,1177.28,296.1Zm23.16-23.41a1.15,1.15,0,0,0,.89-.26,1.5,1.5,0,0,0,.22-.93,7.72,7.72,0,0,0-3.49-6.46,15.72,15.72,0,0,0-15.77-.81,13.48,13.48,0,0,0-4.76,4.25,8.41,8.41,0,0,0-1.65,4.46Z" transform="translate(0 -1)"/></svg>