<?xml version="1.0" encoding="utf-8"?>
<!-- Generator: Adobe Illustrator 26.2.1, SVG Export Plug-In . SVG Version: 6.00 Build 0)  -->
<svg version="1.1" id="Calque_1" xmlns="http://www.w3.org/2000/svg" xmlns:xlink="http://www.w3.org/1999/xlink" x="0px" y="0px"
	 viewBox="0 0 124.2 124.2" style="enable-background:new 0 0 124.2 124.2;" xml:space="preserve">
<style type="text/css">
	.st0{opacity:0.8;fill:#EC6E38;enable-background:new    ;}
	.st1{fill:#08AADE;}
</style>
<circle class="st0" cx="62.1" cy="62.1" r="62.1"/>
<path class="st1" d="M75.9,46.5c0.5,0.3,0.7,0.9,0.7,1.6c0,1.3-0.7,2.2-2.2,2.7c-0.4,0.2-2,0.8-4.8,1.8s-6.5,2.4-11,4
	c-3.2,1.1-5.9,2.2-8.2,3.3c-2.2,1.1-3.4,1.9-3.4,2.4c0,0.5,1.1,1.4,3.3,2.5c2.2,1.1,5,2.4,8.5,3.8c4,1.6,7.6,2.8,10.8,3.6
	c3.2,0.8,4.9,1.3,5.2,1.4c2,0.5,3,1.4,3,2.6c0,0.7-0.2,1.2-0.7,1.6c-0.5,0.4-1.1,0.6-1.8,0.6c-0.9,0-3.5-0.6-7.7-1.9
	C63.5,75.2,60,74,57.2,73c-5.3-1.9-9.4-3.8-12.3-5.5s-4.3-3.5-4.3-5.2s1.3-3.3,4-4.9s6.7-3.4,12-5.4c5.9-2.2,10.1-3.7,12.7-4.6
	c2.6-0.9,4.2-1.4,4.8-1.4C74.8,46,75.4,46.1,75.9,46.5L75.9,46.5z"/>
</svg>
