<svg id="Calque_1" data-name="Calque 1" xmlns="http://www.w3.org/2000/svg" viewBox="0 0 165.1 205.57"><defs><style>.cls-1{fill:#f6b292;}.cls-2{fill:#bdd898;}.cls-3{fill:#41331a;}.cls-4{fill:#eed6bb;}.cls-5{fill:#fefefe;}.cls-6{fill:#fefdfd;}</style></defs><path class="cls-1" d="M156.6,72.33c5.62,1.77,10.65,4.33,14.36,8.55a15.59,15.59,0,0,1,4,10.44c0,1.34-.3,2.7.25,4-1.52,3.38-3.23,6.71-4.11,10.29-.59.42-1.17.87-1.79,1.27-3.26,2.12-7,2.91-11,3.27-.66.06-1.12.14-1.19.84a62.15,62.15,0,0,1-1.94,10.34,69,69,0,0,1-11,23.91,55.93,55.93,0,0,1-7.35,7.83h0l-.41.24a42,42,0,0,1-7.92,4.82,42.51,42.51,0,0,1-18.81,3.55c-1.41-.54-2.73-.08-4.08.23a66.85,66.85,0,0,1-11.4-.46,51.47,51.47,0,0,1-16-5.52l-.32-.24h0a.56.56,0,0,0-.56-.24h0c-1.52-1.12-3.08-2.21-4.53-3.4a53.83,53.83,0,0,1-14.87-19.85,93.51,93.51,0,0,1-6.55-21.66c-.12-.67-.48-.91-1.13-1.14C43.16,106.88,37.23,103,34,96.59s-3.33-13.09.6-19.46c2.18-3.53,5.69-5.62,10.15-6.51l1.2-.24c.32,2.64.64,5.27,1,8,.57-.27.53-.73.66-1.07a27.49,27.49,0,0,1,2.48-5C53.35,67,57.92,63,64.94,61.9,67,61.57,69,61.45,71,61c12.3-2.49,22.79-7.71,31.25-16,.79-.77,1.18-1,2.17-.18a80.57,80.57,0,0,0,15.71,9.92c3.48,1.61,7,3.06,11.13,2.89a19,19,0,0,1,4.47.38,25.49,25.49,0,0,1,17.72,12.28,30.29,30.29,0,0,1,2.83,6.24l.29-4.27Z" transform="translate(-26.88 -0.24)"/><path class="cls-2" d="M109.79,161.69a42.53,42.53,0,0,0,18.81-3.55,42,42,0,0,0,7.92-4.82c.19,0,.36-.06.41-.25h0a1.64,1.64,0,0,0,1.23-.42c1.76-1.07,3.56-2.1,5.26-3.23,3.68-2.43,3.63-2.41,7.93-.71a55.21,55.21,0,0,1,21.37,14.75,31.52,31.52,0,0,1,5.36,7.61,61.44,61.44,0,0,0-6.1,4A33.35,33.35,0,0,0,161,192.22a46.72,46.72,0,0,0-1.71,13.59c-.64,0-1.28,0-1.92,0H29c-2.06,0-2.11,0-2.09-1.81.06-12.11,2.43-23.8,8.82-34.66a49.48,49.48,0,0,1,23.78-20.6c2.84-1.23,4.88-1.44,7.32.77,2.65,2.4,6.09,4,9.43,5.68a1.84,1.84,0,0,0,1.28.33h0c.08.26.3.28.56.24h0c0,.2-.08.44.32.23a51.59,51.59,0,0,0,16,5.52,67.92,67.92,0,0,0,11.41.46,16.41,16.41,0,0,0,4.08-.23Z" transform="translate(-26.88 -0.24)"/><path class="cls-3" d="M156.6,72.33l-.3,4.27a31.06,31.06,0,0,0-2.82-6.24,25.53,25.53,0,0,0-17.73-12.28,19.62,19.62,0,0,0-4.47-.38c-4.07.18-7.65-1.28-11.13-2.89a80.57,80.57,0,0,1-15.71-9.92c-1-.78-1.38-.59-2.17.18-8.46,8.25-19,13.47-31.25,16-2,.4-4.06.53-6.07.86C57.93,63,53.37,67,50.06,72.22a28.14,28.14,0,0,0-2.48,5c-.13.34-.09.8-.66,1.07-.32-2.7-.64-5.33-1-8-.36-5.21-.84-10.43-.72-15.65.09-4.34,0-8.75,1.6-12.92,3.36-8.95,7.34-17.66,14.21-25.11C68.64,8.46,78,2.71,90.14,1c16.92-2.37,32.27.55,45.18,10.94,6.48,5.22,10.64,11.8,14.57,18.63,5.19,9,5.87,18.64,6.52,28.35.3,4.46.13,8.93.19,13.39Z" transform="translate(-26.88 -0.24)"/><path class="cls-4" d="M109.79,161.69a16.41,16.41,0,0,1-4.08.23C107.05,161.61,108.38,161.15,109.79,161.69Z" transform="translate(-26.88 -0.24)"/><path class="cls-5" d="M78.05,155.71c-.27,0-.48,0-.56-.25A.55.55,0,0,1,78.05,155.71Z" transform="translate(-26.88 -0.24)"/><path class="cls-5" d="M78.34,156c-.4.21-.34,0-.32-.24Z" transform="translate(-26.88 -0.24)"/><path class="cls-6" d="M136.92,153.07c0,.19-.22.24-.41.25Z" transform="translate(-26.88 -0.24)"/><path class="cls-6" d="M190.88,174.77l-.57-.37C190.61,174.39,190.82,174.48,190.88,174.77Z" transform="translate(-26.88 -0.24)"/><path class="cls-6" d="M190.32,174.42c-.17,0-.33,0-.29-.25C190.21,174.17,190.33,174.25,190.32,174.42Z" transform="translate(-26.88 -0.24)"/><path class="cls-2" d="M177.36,171.07s6,1.36,14.62,34.74H158.61S156.28,183,177.36,171.07Z" transform="translate(-26.88 -0.24)"/></svg>