<svg id="Calque_1" data-name="Calque 1" xmlns="http://www.w3.org/2000/svg" viewBox="0 0 512 512"><defs><style>.cls-1{fill:#0fabdf;}.cls-2{fill:none;}</style></defs><path class="cls-1" d="M42,579.87v-1q84.63,9.45,152.9-41.55c-21.76-2.05-41.69-8.57-59-21.73s-29.95-29.84-36.79-51.46a89.55,89.55,0,0,0,43.22-1.29c-23-6.9-42.79-18.61-57.71-37.51S62.42,384.81,62.3,360.09c14.68,6.66,28.69,12.28,45.81,12-22.46-16.69-37-37.16-42.54-63.2s-1.81-50.77,12-74.09c57.27,66.29,128.87,101.89,215.7,108.12a22.2,22.2,0,0,0,0-4.07c-3.75-17-2.13-33.75,2.88-50.24,6.08-20,17.64-36.4,33.79-49.42a106.4,106.4,0,0,1,19.94-12.7,100.38,100.38,0,0,1,54.23-10.16,147.44,147.44,0,0,1,28.3,5.84c15.24,4.62,28,13.62,39.57,24.46a5.2,5.2,0,0,0,3.95,1.37c19.84-4.68,39.14-10.88,57-21,2-1.16,4.2-2.12,7.41-3.73-8.63,24.34-22.79,42.65-43.18,56.44,5.7-.54,11.25-1.05,16.47-2.65,13.56-4.16,27-8.79,40.44-13.23v2c-1,1-2,2-2.92,3-6.22,7.48-11.9,15.48-18.72,22.35-8.49,8.55-17.84,16.26-27,24.16-2.49,2.16-3.78,4.2-3.86,7.78-.32,14.22-.18,28.56-2.1,42.6a364.23,364.23,0,0,1-10,48.51A282,282,0,0,1,460.67,481a304,304,0,0,1-44.46,58.5c-6.67,6.87-14.06,13.07-21.28,19.39a251.08,251.08,0,0,1-48.56,32.79,282.08,282.08,0,0,1-52.8,21.52,300,300,0,0,1-72.13,12.19c-22.8.93-45.61.29-68.27-3.7C132,618,111.07,613,91.36,604.39,74.53,597.08,58.42,588.11,42,579.87Z" transform="translate(-42 -164.89)"/><path class="cls-2" d="M554,263.81c-13.47,4.44-26.88,9.07-40.44,13.23-5.22,1.6-10.77,2.11-16.47,2.65,20.39-13.79,34.55-32.1,43.18-56.44-3.21,1.61-5.36,2.57-7.41,3.73-17.85,10.11-37.15,16.31-57,21a5.2,5.2,0,0,1-3.95-1.37c-11.55-10.84-24.33-19.84-39.57-24.46a147.44,147.44,0,0,0-28.3-5.84,100.38,100.38,0,0,0-54.23,10.16,106.4,106.4,0,0,0-19.94,12.7c-16.15,13-27.71,29.43-33.79,49.42-5,16.49-6.63,33.22-2.88,50.24a22.2,22.2,0,0,1,0,4.07c-86.83-6.23-158.43-41.83-215.7-108.12-13.78,23.32-17.45,48.1-12,74.09s20.08,46.51,42.54,63.2c-17.12.31-31.13-5.31-45.81-12,.12,24.72,7.36,46.33,22.29,65.24s34.68,30.61,57.71,37.51a89.55,89.55,0,0,1-43.22,1.29c6.84,21.62,19.46,38.3,36.79,51.46s37.27,19.68,59,21.73Q126.52,588.16,42,578.87v-414H554Z" transform="translate(-42 -164.89)"/><path class="cls-2" d="M42,579.87c16.42,8.24,32.53,17.21,49.36,24.52C111.07,613,132,618,153.17,621.69c22.66,4,45.47,4.63,68.27,3.7a300,300,0,0,0,72.13-12.19,282.08,282.08,0,0,0,52.8-21.52,251.08,251.08,0,0,0,48.56-32.79c7.22-6.32,14.61-12.52,21.28-19.39A304,304,0,0,0,460.67,481a282,282,0,0,0,28.78-66.76,364.23,364.23,0,0,0,10-48.51c1.92-14,1.78-28.38,2.1-42.6.08-3.58,1.37-5.62,3.86-7.78,9.12-7.9,18.47-15.61,27-24.16,6.82-6.87,12.5-14.87,18.72-22.35.89-1.07,1.94-2,2.92-3V676.89H42Z" transform="translate(-42 -164.89)"/></svg>